<?xml version="1.0" encoding="UTF-8" standalone="no"?>
<svg
   sodipodi:docname="3.svg"
   inkscape:version="1.2.2 (b0a8486541, 2022-12-01)"
   id="svg8"
   version="1.1"
   viewBox="0 0 443 624"
   height="624mm"
   width="443mm"
   xmlns:inkscape="http://www.inkscape.org/namespaces/inkscape"
   xmlns:sodipodi="http://sodipodi.sourceforge.net/DTD/sodipodi-0.dtd"
   xmlns="http://www.w3.org/2000/svg"
   xmlns:svg="http://www.w3.org/2000/svg"
   xmlns:rdf="http://www.w3.org/1999/02/22-rdf-syntax-ns#"
   xmlns:cc="http://creativecommons.org/ns#"
   xmlns:dc="http://purl.org/dc/elements/1.1/">
  <defs
     id="defs2">
    <clipPath
       clipPathUnits="userSpaceOnUse"
       id="clipEmfPath1">
      <path
         d="M 0,0 H 264.09071 V 373.01291 H 0 Z"
         id="path833" />
    </clipPath>
    <pattern
       id="EMFhbasepattern"
       patternUnits="userSpaceOnUse"
       width="6"
       height="6"
       x="0"
       y="0" />
  </defs>
  <sodipodi:namedview
     inkscape:window-maximized="1"
     inkscape:window-y="22"
     inkscape:window-x="0"
     inkscape:window-height="1054"
     inkscape:window-width="1916"
     showgrid="false"
     inkscape:document-rotation="0"
     inkscape:current-layer="layer1"
     inkscape:document-units="mm"
     inkscape:cy="894.99517"
     inkscape:cx="40.406102"
     inkscape:zoom="0.24748737"
     inkscape:pageshadow="2"
     inkscape:pageopacity="0.0"
     borderopacity="1.0"
     bordercolor="#666666"
     pagecolor="#ffffff"
     id="base"
     inkscape:showpageshadow="2"
     inkscape:pagecheckerboard="0"
     inkscape:deskcolor="#d1d1d1">
    <inkscape:grid
       type="xygrid"
       id="grid1906" />
  </sodipodi:namedview>
  <metadata
     id="metadata5">
    <rdf:RDF>
      <cc:Work
         rdf:about="">
        <dc:format>image/svg+xml</dc:format>
        <dc:type
           rdf:resource="http://purl.org/dc/dcmitype/StillImage" />
      </cc:Work>
    </rdf:RDF>
  </metadata>
  <g
     id="layer1"
     inkscape:groupmode="layer"
     inkscape:label="Layer 1">
    <text
       xml:space="preserve"
       style="font-style:normal;font-weight:normal;font-size:27.5656px;line-height:1.25;font-family:sans-serif;fill:#000000;fill-opacity:1;stroke:none;stroke-width:0.861423"
       x="26.895372"
       y="60.379772"
       id="text874"><tspan
         sodipodi:role="line"
         x="26.895372"
         y="60.379772"
         style="font-style:normal;font-variant:normal;font-weight:normal;font-stretch:normal;font-size:27.5656px;font-family:'Fredoka One';-inkscape-font-specification:'Fredoka One';stroke-width:0.861423"
         id="tspan884" /></text>
    <g
       id="g1051"
       inkscape:label="Layer 1"
       transform="matrix(2,0,0,2,168.33899,93.666697)">
      <path
         sodipodi:nodetypes="czscccc"
         id="path1045"
         d="m 26.580504,0.79165146 c 0,0 -16.102139,19.01900054 -22.4567111,27.20816454 -6.3545726,8.189164 1.7279492,24.047726 20.6302561,16.641949 0.926599,-0.363033 -0.520123,5.034132 -3.910355,7.746767 l 7.387671,-0.106363 -2.197413,-8.809433 C 48.074512,31.785515 45.871837,21.466847 26.580504,0.79165146 Z"
         style="fill:#000000;fill-opacity:1;stroke:#000000;stroke-width:0.311837px;stroke-linecap:butt;stroke-linejoin:miter;stroke-opacity:1" />
      <path
         style="fill:#000000;fill-opacity:1;stroke:#000000;stroke-width:0.311837px;stroke-linecap:butt;stroke-linejoin:miter;stroke-opacity:1"
         d="m 26.580504,0.79165146 c 0,0 16.102138,19.01900054 22.456711,27.20816454 6.354572,8.189164 -1.727948,24.047726 -20.630257,16.641949 -0.926599,-0.363033 0.520123,5.034132 3.910355,7.746767 l -7.387671,-0.106363 2.197413,-8.809433 C 5.0864956,31.785515 7.2891707,21.466847 26.580504,0.79165146 Z"
         id="path1047"
         sodipodi:nodetypes="czscccc" />
      <rect
         y="40.479897"
         x="25.539888"
         height="6.3976779"
         width="2.0812299"
         id="rect1049"
         style="fill:#000000;fill-opacity:1;stroke:#000000;stroke-width:0.935512;stroke-linecap:round;stroke-linejoin:round;paint-order:stroke fill markers" />
    </g>
    <g
       transform="matrix(1.9010085,0,0,-1.8252754,170.97024,520.02832)"
       inkscape:label="Layer 1"
       id="g1059">
      <path
         style="fill:#000000;fill-opacity:1;stroke:#000000;stroke-width:0.311837px;stroke-linecap:butt;stroke-linejoin:miter;stroke-opacity:1"
         d="m 26.580504,0.79165146 c 0,0 -16.102139,19.01900054 -22.4567111,27.20816454 -6.3545726,8.189164 1.7279492,24.047726 20.6302561,16.641949 0.926599,-0.363033 -0.520123,5.034132 -3.910355,7.746767 l 7.387671,-0.106363 -2.197413,-8.809433 C 48.074512,31.785515 45.871837,21.466847 26.580504,0.79165146 Z"
         id="path1053"
         sodipodi:nodetypes="czscccc" />
      <path
         sodipodi:nodetypes="czscccc"
         id="path1055"
         d="m 26.580504,0.79165146 c 0,0 16.102138,19.01900054 22.456711,27.20816454 6.354572,8.189164 -1.727948,24.047726 -20.630257,16.641949 -0.926599,-0.363033 0.520123,5.034132 3.910355,7.746767 l -7.387671,-0.106363 2.197413,-8.809433 C 5.0864956,31.785515 7.2891707,21.466847 26.580504,0.79165146 Z"
         style="fill:#000000;fill-opacity:1;stroke:#000000;stroke-width:0.311837px;stroke-linecap:butt;stroke-linejoin:miter;stroke-opacity:1" />
      <rect
         style="fill:#000000;fill-opacity:1;stroke:#000000;stroke-width:0.935512;stroke-linecap:round;stroke-linejoin:round;paint-order:stroke fill markers"
         id="rect1057"
         width="2.0812299"
         height="6.3976779"
         x="25.539888"
         y="40.479897" />
    </g>
    <g
       id="g862"
       inkscape:label="Layer 1"
       transform="matrix(1.9010085,0,0,-1.8252754,170.97024,364.92863)">
      <path
         sodipodi:nodetypes="czscccc"
         id="path856"
         d="m 26.580504,0.79165146 c 0,0 -16.102139,19.01900054 -22.4567111,27.20816454 -6.3545726,8.189164 1.7279492,24.047726 20.6302561,16.641949 0.926599,-0.363033 -0.520123,5.034132 -3.910355,7.746767 l 7.387671,-0.106363 -2.197413,-8.809433 C 48.074512,31.785515 45.871837,21.466847 26.580504,0.79165146 Z"
         style="fill:#000000;fill-opacity:1;stroke:#000000;stroke-width:0.311837px;stroke-linecap:butt;stroke-linejoin:miter;stroke-opacity:1" />
      <path
         style="fill:#000000;fill-opacity:1;stroke:#000000;stroke-width:0.311837px;stroke-linecap:butt;stroke-linejoin:miter;stroke-opacity:1"
         d="m 26.580504,0.79165146 c 0,0 16.102138,19.01900054 22.456711,27.20816454 6.354572,8.189164 -1.727948,24.047726 -20.630257,16.641949 -0.926599,-0.363033 0.520123,5.034132 3.910355,7.746767 l -7.387671,-0.106363 2.197413,-8.809433 C 5.0864956,31.785515 7.2891707,21.466847 26.580504,0.79165146 Z"
         id="path858"
         sodipodi:nodetypes="czscccc" />
      <rect
         y="40.479897"
         x="25.539888"
         height="6.3976779"
         width="2.0812299"
         id="rect860"
         style="fill:#000000;fill-opacity:1;stroke:#000000;stroke-width:0.935512;stroke-linecap:round;stroke-linejoin:round;paint-order:stroke fill markers" />
    </g>
    <g
       id="layer1-5"
       inkscape:label="Layer 1"
       transform="translate(34.641135,137.14181)">
      <path
         sodipodi:nodetypes="czscccc"
         id="path835"
         d="m 26.580504,0.79165146 c 0,0 -16.102139,19.01900054 -22.4567111,27.20816454 -6.3545726,8.189164 1.7279492,24.047726 20.6302561,16.641949 0.926599,-0.363033 -0.520123,5.034132 -3.910355,7.746767 l 7.387671,-0.106363 -2.197413,-8.809433 C 48.074512,31.785515 45.871837,21.466847 26.580504,0.79165146 Z"
         style="fill:#000000;fill-opacity:1;stroke:#000000;stroke-width:0.311837px;stroke-linecap:butt;stroke-linejoin:miter;stroke-opacity:1" />
      <path
         style="fill:#000000;fill-opacity:1;stroke:#000000;stroke-width:0.311837px;stroke-linecap:butt;stroke-linejoin:miter;stroke-opacity:1"
         d="m 26.580504,0.79165146 c 0,0 16.102138,19.01900054 22.456711,27.20816454 6.354572,8.189164 -1.727948,24.047726 -20.630257,16.641949 -0.926599,-0.363033 0.520123,5.034132 3.910355,7.746767 l -7.387671,-0.106363 2.197413,-8.809433 C 5.0864956,31.785515 7.2891707,21.466847 26.580504,0.79165146 Z"
         id="path841"
         sodipodi:nodetypes="czscccc" />
      <rect
         y="40.479897"
         x="25.539888"
         height="6.3976779"
         width="2.0812299"
         id="rect843"
         style="fill:#000000;fill-opacity:1;stroke:#000000;stroke-width:0.935512;stroke-linecap:round;stroke-linejoin:round;paint-order:stroke fill markers" />
    </g>
    <g
       transform="matrix(1,0,0,-1,355.19786,486.8582)"
       inkscape:label="Layer 1"
       id="g1043">
      <path
         style="fill:#000000;fill-opacity:1;stroke:#000000;stroke-width:0.311837px;stroke-linecap:butt;stroke-linejoin:miter;stroke-opacity:1"
         d="m 26.580504,0.79165146 c 0,0 -16.102139,19.01900054 -22.4567111,27.20816454 -6.3545726,8.189164 1.7279492,24.047726 20.6302561,16.641949 0.926599,-0.363033 -0.520123,5.034132 -3.910355,7.746767 l 7.387671,-0.106363 -2.197413,-8.809433 C 48.074512,31.785515 45.871837,21.466847 26.580504,0.79165146 Z"
         id="path1037"
         sodipodi:nodetypes="czscccc" />
      <path
         sodipodi:nodetypes="czscccc"
         id="path1039"
         d="m 26.580504,0.79165146 c 0,0 16.102138,19.01900054 22.456711,27.20816454 6.354572,8.189164 -1.727948,24.047726 -20.630257,16.641949 -0.926599,-0.363033 0.520123,5.034132 3.910355,7.746767 l -7.387671,-0.106363 2.197413,-8.809433 C 5.0864956,31.785515 7.2891707,21.466847 26.580504,0.79165146 Z"
         style="fill:#000000;fill-opacity:1;stroke:#000000;stroke-width:0.311837px;stroke-linecap:butt;stroke-linejoin:miter;stroke-opacity:1" />
      <rect
         style="fill:#000000;fill-opacity:1;stroke:#000000;stroke-width:0.935512;stroke-linecap:round;stroke-linejoin:round;paint-order:stroke fill markers"
         id="rect1041"
         width="2.0812299"
         height="6.3976779"
         x="25.539888"
         y="40.479897" />
    </g>
    <text
       xml:space="preserve"
       style="font-style:normal;font-weight:normal;font-size:84.6666px;line-height:1.25;font-family:sans-serif;fill:#000000;fill-opacity:1;stroke:none;stroke-width:0.396874"
       x="61.626152"
       y="124.62608"
       id="text1772"><tspan
         sodipodi:role="line"
         id="tspan1770"
         x="61.626152"
         y="124.62608"
         style="font-style:normal;font-variant:normal;font-weight:normal;font-stretch:normal;font-size:84.6666px;font-family:'Fredoka One';-inkscape-font-specification:'Fredoka One';text-align:center;text-anchor:middle;fill:#000000;fill-opacity:1;stroke-width:0.396874">3</tspan></text>
    <text
       xml:space="preserve"
       style="font-style:normal;font-weight:normal;font-size:84.6666px;line-height:1.25;font-family:sans-serif;fill:#000000;fill-opacity:1;stroke:none;stroke-width:0.396874"
       x="-381.37384"
       y="-499.37393"
       id="text969-5-3"
       transform="scale(-1)"><tspan
         sodipodi:role="line"
         id="tspan967-0-6"
         x="-381.37384"
         y="-499.37393"
         style="font-style:normal;font-variant:normal;font-weight:normal;font-stretch:normal;font-size:84.6666px;font-family:'Fredoka One';-inkscape-font-specification:'Fredoka One';text-align:center;text-anchor:middle;fill:#000000;fill-opacity:1;stroke-width:0.396874">3</tspan></text>
  </g>
</svg>
