<?xml version="1.0" encoding="UTF-8" standalone="no"?>
<svg
   xmlns:dc="http://purl.org/dc/elements/1.1/"
   xmlns:cc="http://creativecommons.org/ns#"
   xmlns:rdf="http://www.w3.org/1999/02/22-rdf-syntax-ns#"
   xmlns:svg="http://www.w3.org/2000/svg"
   xmlns="http://www.w3.org/2000/svg"
   xmlns:sodipodi="http://sodipodi.sourceforge.net/DTD/sodipodi-0.dtd"
   xmlns:inkscape="http://www.inkscape.org/namespaces/inkscape"
   sodipodi:docname="drottning.svg"
   inkscape:version="1.0 (4035a4fb49, 2020-05-01)"
   id="svg8"
   version="1.1"
   viewBox="0 0 443 624"
   height="624mm"
   width="443mm">
  <defs
     id="defs2">
    <inkscape:perspective
       id="perspective1087"
       inkscape:persp3d-origin="221.5 : 208 : 1"
       inkscape:vp_z="443 : 312 : 1"
       inkscape:vp_y="0 : 1000 : 0"
       inkscape:vp_x="0 : 312 : 1"
       sodipodi:type="inkscape:persp3d" />
    <clipPath
       clipPathUnits="userSpaceOnUse"
       id="clipEmfPath1">
      <path
         d="M 0,0 H 264.09071 V 373.01291 H 0 Z"
         id="path833" />
    </clipPath>
    <pattern
       id="EMFhbasepattern"
       patternUnits="userSpaceOnUse"
       width="6"
       height="6"
       x="0"
       y="0" />
  </defs>
  <sodipodi:namedview
     inkscape:window-maximized="1"
     inkscape:window-y="35"
     inkscape:window-x="-11"
     inkscape:window-height="1000"
     inkscape:window-width="1920"
     showgrid="false"
     inkscape:document-rotation="0"
     inkscape:current-layer="layer1"
     inkscape:document-units="mm"
     inkscape:cy="1084.1241"
     inkscape:cx="586.94242"
     inkscape:zoom="0.25"
     inkscape:pageshadow="2"
     inkscape:pageopacity="0.0"
     borderopacity="1.0"
     bordercolor="#666666"
     pagecolor="#ffffff"
     id="base" />
  <metadata
     id="metadata5">
    <rdf:RDF>
      <cc:Work
         rdf:about="">
        <dc:format>image/svg+xml</dc:format>
        <dc:type
           rdf:resource="http://purl.org/dc/dcmitype/StillImage" />
        <dc:title />
      </cc:Work>
    </rdf:RDF>
  </metadata>
  <g
     id="layer1"
     inkscape:groupmode="layer"
     inkscape:label="Layer 1">
    <path
       id="path903"
       d="m 162.07681,275.79291 1.10947,203.00055 112.42591,-0.86938 0.36981,-202.13117 z"
       style="fill:#faedb2;fill-opacity:1;stroke:none;stroke-width:0.793833px;stroke-linecap:butt;stroke-linejoin:miter;stroke-opacity:1" />
    <path
       sodipodi:nodetypes="cscczsc"
       id="path990"
       d="m 159.43721,290.61775 c 0,0 -55.88605,25.89839 -54.97733,65.88193 0.90871,39.98351 0.45435,22.7179 0.45435,22.7179 l 28.98956,-0.68154 c 0,0 -1.03427,-12.26484 0.15591,-21.40523 1.19017,-9.14038 13.36735,-32.5303 28.10366,-34.02645 16.99192,-1.72517 -2.72615,-32.48661 -2.72615,-32.48661 z"
       style="fill:#a82b2b;fill-opacity:1;stroke:#000000;stroke-width:0.224896px;stroke-linecap:butt;stroke-linejoin:miter;stroke-opacity:1" />
    <text
       xml:space="preserve"
       style="font-style:normal;font-weight:normal;font-size:27.5656px;line-height:1.25;font-family:sans-serif;fill:#000000;fill-opacity:1;stroke:none;stroke-width:0.861423"
       x="26.895372"
       y="60.379772"
       id="text874"><tspan
         sodipodi:role="line"
         x="26.895372"
         y="60.379772"
         style="font-style:normal;font-variant:normal;font-weight:normal;font-stretch:normal;font-size:27.5656px;font-family:Cabin;-inkscape-font-specification:Cabin;stroke-width:0.861423"
         id="tspan884" /></text>
    <g
       id="g1048"
       transform="translate(-4.5435818,-32.473247)" />
    <g
       id="g1037"
       transform="translate(-4.5435818,-32.473247)" />
    <path
       style="fill:#a82b2b;fill-opacity:1;stroke:#000000;stroke-width:0.224896px;stroke-linecap:butt;stroke-linejoin:miter;stroke-opacity:1"
       d="m 278.65564,330.70812 c 0,0 59.53423,-15.80043 65.58238,-55.33433 6.04815,-39.53387 3.49747,-22.45165 3.49747,-22.45165 L 319.068,248.55933 c 0,0 -1.11118,12.25811 -3.87052,21.05296 -2.7593,8.79485 -18.8131,29.71488 -33.58533,28.62936 -17.03335,-1.25165 -2.95651,32.46647 -2.95651,32.46647 z"
       id="path994"
       sodipodi:nodetypes="cscczsc" />
    <path
       sodipodi:nodetypes="cssccc"
       id="path879"
       d="m 159.43721,290.61775 c 0,0 19.91934,26.34495 28.91517,30.20031 8.99584,3.85535 17.67039,4.81921 27.95135,15.10015 10.28094,10.28093 8.99583,143.61203 8.99583,143.61203 l -62.11328,-0.73678 z"
       style="fill:#a82b2b;fill-opacity:1;stroke:none;stroke-width:0.224896px;stroke-linecap:butt;stroke-linejoin:miter;stroke-opacity:1" />
    <path
       style="fill:#a82b2b;fill-opacity:1;stroke:none;stroke-width:0.224896px;stroke-linecap:butt;stroke-linejoin:miter;stroke-opacity:1"
       d="m 279.36126,289.74837 c 0,0 -19.91935,26.34495 -28.91518,30.20031 -8.99584,3.85535 -48.79392,8.68126 -59.07487,18.96219 -10.28094,10.28093 33.64438,140.70455 33.64438,140.70455 l 54.08948,-0.0159 z"
       id="path883"
       sodipodi:nodetypes="cssccc" />
    <rect
       y="329.13467"
       x="209.60901"
       height="150.35202"
       width="22.617092"
       id="rect1081"
       style="fill:#111111;fill-opacity:1;stroke:none;stroke-width:0.735185;stroke-linecap:round;stroke-miterlimit:4;stroke-dasharray:none;stroke-opacity:1;paint-order:stroke fill markers" />
    <path
       sodipodi:nodetypes="cscsc"
       id="path1193"
       d="m 168.24808,280.43743 c 0,0 -16.6428,0.14611 -34.34157,19.61965 -17.69877,19.47352 32.75099,41.19909 32.75099,41.19909 0,0 51.63893,25.09771 44.49503,-16.1617 -0.19709,-1.13827 -42.90445,-44.65704 -42.90445,-44.65704 z"
       style="fill:#362275;fill-opacity:1;stroke:none;stroke-width:0.207238px;stroke-linecap:butt;stroke-linejoin:miter;stroke-opacity:1" />
    <rect
       y="329.89908"
       x="217.35355"
       height="149.71634"
       width="7.6620402"
       id="rect1103"
       style="fill:#f0e693;fill-opacity:1;stroke:none;stroke-width:5.49658;stroke-linecap:round;stroke-miterlimit:4;stroke-dasharray:none;stroke-opacity:1;paint-order:stroke fill markers" />
    <path
       sodipodi:nodetypes="csczsc"
       style="fill:#debb41;fill-opacity:1;stroke:none;stroke-width:2.43525;stroke-linecap:butt;stroke-linejoin:miter;stroke-miterlimit:4;stroke-dasharray:none;stroke-opacity:1"
       d="m 182.24808,274.23249 c 0,0 18.63106,48.92249 35.34077,49.47709 18.7547,0.62247 3.82139,11.65126 3.82139,11.65126 0,0 -21.39087,1.41189 -38.03768,-22.09286 -16.64682,-23.50475 -22.76525,-31.48504 -21.20447,-38.39293 1.52381,-6.74425 12.04799,-8.032 20.07999,-0.64256 z"
       id="path1918" />
    <path
       style="fill:#362275;fill-opacity:1;stroke:none;stroke-width:0.207238px;stroke-linecap:butt;stroke-linejoin:miter;stroke-opacity:1"
       d="m 275.63465,280.36275 c 0,0 15.29311,3.10614 32.99188,22.57968 17.69876,19.47352 -32.751,41.19909 -32.751,41.19909 0,0 -51.63892,25.09771 -44.49502,-16.1617 0.19709,-1.13827 44.25414,-47.61707 44.25414,-47.61707 z"
       id="path1204"
       sodipodi:nodetypes="cscsc" />
    <path
       id="path885"
       d="m 197.50887,289.65391 c 0,0 10.28094,16.22464 21.52574,17.99167 11.24479,1.76705 20.5619,-15.42142 20.5619,-15.42142"
       style="fill:none;stroke:#ffffff;stroke-width:2.52025;stroke-linecap:butt;stroke-linejoin:miter;stroke-miterlimit:4;stroke-dasharray:none;stroke-opacity:1" />
    <path
       id="path1215"
       d="m 260.34523,274.11889 c 0,0 -18.62186,49.46516 -35.34077,49.47709 -24.94179,0.0179 -3.59422,11.76486 -3.59422,11.76486 0,0 22.60945,-0.22778 37.81051,-22.20645 15.20106,-21.97867 22.76525,-31.48504 21.20447,-38.39293 -1.52381,-6.74426 -12.04799,-8.032 -20.07999,-0.64257 z"
       style="fill:#debb41;fill-opacity:1;stroke:none;stroke-width:2.43525;stroke-linecap:butt;stroke-linejoin:miter;stroke-miterlimit:4;stroke-dasharray:none;stroke-opacity:1"
       sodipodi:nodetypes="csczsc" />
    <g
       transform="matrix(0.85,0,0,0.85,30.503244,16.081104)"
       id="g986">
      <circle
         r="66.343704"
         cy="261.58655"
         cx="223.35309"
         id="path883-1"
         style="fill:#f8e89b;fill-opacity:1;stroke:#303030;stroke-width:4.26015;stroke-linecap:round;stroke-miterlimit:4;stroke-dasharray:none;stroke-opacity:1;paint-order:stroke fill markers" />
      <ellipse
         style="fill:#000000;fill-opacity:1;stroke:#f8e798;stroke-width:5.54367;stroke-linecap:round;stroke-miterlimit:4;stroke-dasharray:none;stroke-opacity:1;paint-order:stroke fill markers"
         id="path900"
         cx="198.77075"
         cy="240.85179"
         rx="13.952684"
         ry="15.978811" />
      <ellipse
         ry="16.264074"
         rx="13.930296"
         cy="240.76167"
         cx="248.58803"
         id="path900-2"
         style="fill:#000000;fill-opacity:1;stroke:#f8e798;stroke-width:5.58847;stroke-linecap:round;stroke-miterlimit:4;stroke-dasharray:none;stroke-opacity:1;paint-order:stroke fill markers" />
      <path
         style="fill:none;stroke:#000000;stroke-width:3.44568;stroke-linecap:butt;stroke-linejoin:miter;stroke-miterlimit:4;stroke-dasharray:none;stroke-opacity:1"
         d="m 194.62257,274.20937 c 0,0 12.93103,16.49568 22.44951,25.08451 2.84373,2.56598 6.83925,3.30412 9.84485,0.61531 5.0722,-4.53761 23.96589,-23.31324 23.96589,-27.3127"
         id="path873"
         sodipodi:nodetypes="cssc" />
    </g>
    <g
       transform="matrix(0.83380191,0,0,0.85,32.037428,8.5869643)"
       id="g3435">
      <rect
         style="fill:#ccc9c4;fill-opacity:1;stroke:none;stroke-width:1.03189;paint-order:stroke fill markers"
         id="rect876"
         width="159.28059"
         height="48.392979"
         x="146.04729"
         y="183.58963" />
      <path
         style="fill:#ccc9c4;fill-opacity:1;stroke:none;stroke-width:0.262431px;stroke-linecap:butt;stroke-linejoin:miter;stroke-opacity:1"
         d="m 146.03525,184.72356 -8.24951,-45.40924 38.47298,43.94239 24.43089,-49.21986 25.54256,49.52792 26.50419,-48.93824 21.70908,48.82934 38.8097,-44.35937 -7.92726,45.62706 z"
         id="path880"
         sodipodi:nodetypes="cccccccccc" />
    </g>
    <rect
       style="fill:#f6e40f;fill-opacity:1;stroke:none;stroke-width:0.946993;stroke-opacity:1;paint-order:stroke fill markers"
       id="rect895"
       width="132.89507"
       height="7.6948962"
       x="153.80191"
       y="194.22984" />
    <g
       id="g1101"
       transform="matrix(0.98094342,0,0,1.12905,-1.5745233,-60.078113)" />
    <g
       style="fill:#f6e40f;fill-opacity:1"
       transform="matrix(0.83380191,0,0,0.85,32.037428,8.5869643)"
       id="g949">
      <rect
         y="222.92979"
         x="146.03526"
         height="9.0528193"
         width="159.38446"
         id="rect893"
         style="fill:#f6e40f;fill-opacity:1;stroke:none;stroke-width:1.12488;stroke-opacity:1;paint-order:stroke fill markers" />
      <path
         transform="matrix(1,0,0,1.12905,-0.17555719,-28.276298)"
         sodipodi:nodetypes="cccccc"
         id="path897"
         d="M 153.17907,214.46856 149,208.73957 l 5.14347,-6.91669 4.70145,7.05643 -4.05853,5.93858 z"
         style="fill:#f6e40f;fill-opacity:1;stroke:none;stroke-width:0.296717px;stroke-linecap:butt;stroke-linejoin:miter;stroke-opacity:1" />
      <path
         transform="matrix(1,0,0,1.12905,-0.17555719,-28.276298)"
         style="fill:#f6e40f;fill-opacity:1;stroke:none;stroke-width:0.296717px;stroke-linecap:butt;stroke-linejoin:miter;stroke-opacity:1"
         d="m 165.20688,214.46856 -4.17908,-5.72899 5.14348,-6.91669 4.70145,7.05643 -4.05853,5.93858 z"
         id="path918"
         sodipodi:nodetypes="cccccc" />
      <path
         transform="matrix(1,0,0,1.12905,-0.17555719,-28.276298)"
         sodipodi:nodetypes="cccccc"
         id="path920"
         d="m 177.23469,214.46856 -4.17908,-5.72899 5.14348,-6.91669 4.70145,7.05643 -4.05853,5.93858 z"
         style="fill:#f6e40f;fill-opacity:1;stroke:none;stroke-width:0.296717px;stroke-linecap:butt;stroke-linejoin:miter;stroke-opacity:1" />
      <path
         transform="matrix(1,0,0,1.12905,-0.17555719,-28.276298)"
         style="fill:#f6e40f;fill-opacity:1;stroke:none;stroke-width:0.296717px;stroke-linecap:butt;stroke-linejoin:miter;stroke-opacity:1"
         d="m 189.26249,214.46856 -4.17907,-5.72899 5.14347,-6.91669 4.70146,7.05643 -4.05853,5.93858 z"
         id="path922"
         sodipodi:nodetypes="cccccc" />
      <path
         transform="matrix(1,0,0,1.12905,-0.17555719,-28.276298)"
         sodipodi:nodetypes="cccccc"
         id="path924"
         d="m 201.2903,214.46856 -4.17907,-5.72899 5.14347,-6.91669 4.70146,7.05643 -4.05853,5.93858 z"
         style="fill:#f6e40f;fill-opacity:1;stroke:none;stroke-width:0.296717px;stroke-linecap:butt;stroke-linejoin:miter;stroke-opacity:1" />
      <path
         transform="matrix(1,0,0,1.12905,-0.17555719,-28.276298)"
         style="fill:#f6e40f;fill-opacity:1;stroke:none;stroke-width:0.296717px;stroke-linecap:butt;stroke-linejoin:miter;stroke-opacity:1"
         d="m 213.31811,214.46856 -4.17907,-5.72899 5.14347,-6.91669 4.70145,7.05643 -4.05853,5.93858 z"
         id="path926"
         sodipodi:nodetypes="cccccc" />
      <path
         transform="matrix(1,0,0,1.12905,-0.17555719,-28.276298)"
         sodipodi:nodetypes="cccccc"
         id="path928"
         d="m 225.34592,214.46856 -4.17908,-5.72899 5.14348,-6.91669 4.70145,7.05643 -4.05853,5.93858 z"
         style="fill:#f6e40f;fill-opacity:1;stroke:none;stroke-width:0.296717px;stroke-linecap:butt;stroke-linejoin:miter;stroke-opacity:1" />
      <path
         transform="matrix(1,0,0,1.12905,-0.17555719,-28.276298)"
         style="fill:#f6e40f;fill-opacity:1;stroke:none;stroke-width:0.296717px;stroke-linecap:butt;stroke-linejoin:miter;stroke-opacity:1"
         d="m 249.40153,214.46856 -4.17907,-5.72899 5.14347,-6.91669 4.70146,7.05643 -4.05853,5.93858 z"
         id="path930"
         sodipodi:nodetypes="cccccc" />
      <path
         transform="matrix(1,0,0,1.12905,-0.17555719,-28.276298)"
         sodipodi:nodetypes="cccccc"
         id="path932"
         d="m 237.37373,214.46856 -4.17908,-5.72899 5.14348,-6.91669 4.70145,7.05643 -4.05853,5.93858 z"
         style="fill:#f6e40f;fill-opacity:1;stroke:none;stroke-width:0.296717px;stroke-linecap:butt;stroke-linejoin:miter;stroke-opacity:1" />
      <path
         transform="matrix(1,0,0,1.12905,-0.17555719,-28.276298)"
         sodipodi:nodetypes="cccccc"
         id="path934"
         d="m 261.42934,214.46856 -4.17907,-5.72899 5.14347,-6.91669 4.70146,7.05643 -4.05853,5.93858 z"
         style="fill:#f6e40f;fill-opacity:1;stroke:none;stroke-width:0.296717px;stroke-linecap:butt;stroke-linejoin:miter;stroke-opacity:1" />
      <path
         transform="matrix(1,0,0,1.12905,-0.17555719,-28.276298)"
         style="fill:#f6e40f;fill-opacity:1;stroke:none;stroke-width:0.296717px;stroke-linecap:butt;stroke-linejoin:miter;stroke-opacity:1"
         d="m 273.45715,214.46856 -4.17907,-5.72899 5.14347,-6.91669 4.70145,7.05643 -4.05853,5.93858 z"
         id="path936"
         sodipodi:nodetypes="cccccc" />
      <path
         transform="matrix(1,0,0,1.12905,-0.17555719,-28.276298)"
         sodipodi:nodetypes="cccccc"
         id="path938"
         d="m 285.48496,214.46856 -4.17908,-5.72899 5.14348,-6.91669 4.70145,7.05643 -4.05853,5.93858 z"
         style="fill:#f6e40f;fill-opacity:1;stroke:none;stroke-width:0.296717px;stroke-linecap:butt;stroke-linejoin:miter;stroke-opacity:1" />
      <path
         transform="matrix(1,0,0,1.12905,-0.17555719,-28.276298)"
         style="fill:#f6e40f;fill-opacity:1;stroke:none;stroke-width:0.296717px;stroke-linecap:butt;stroke-linejoin:miter;stroke-opacity:1"
         d="m 297.51277,214.46856 -4.17908,-5.72899 5.14348,-6.91669 4.70145,7.05643 -4.05853,5.93858 z"
         id="path940"
         sodipodi:nodetypes="cccccc" />
      <rect
         style="fill:#f6e40f;fill-opacity:1;stroke:none;stroke-width:1.12488;stroke-opacity:1;paint-order:stroke fill markers"
         id="rect882"
         width="159.38446"
         height="9.0528479"
         x="146.03526"
         y="213.87695" />
    </g>
    <path
       sodipodi:nodetypes="cscsc"
       id="path1073"
       d="m 326.38563,215.99769 c 0,0 -11.446,1.95073 -21.12418,-5.23319 -3.65614,-2.71389 -6.03821,-9.38433 -6.03821,-9.38433 0,0 22.5521,2.1525 26.49957,8.74799 2.97579,4.97198 0.66281,5.86953 0.66281,5.86953 z"
       style="fill:#40a354;fill-opacity:1;stroke:none;stroke-width:0.282205px;stroke-linecap:butt;stroke-linejoin:miter;stroke-opacity:1" />
    <path
       style="fill:#40a354;fill-opacity:1;stroke:none;stroke-width:0.286929px;stroke-linecap:butt;stroke-linejoin:miter;stroke-opacity:1"
       d="m 333.64271,219.87135 c 0,0 11.60145,-0.48759 19.57452,-9.83182 3.01201,-3.52999 3.95516,-10.78688 3.95516,-10.78688 0,0 -21.61175,7.02363 -24.10169,14.5412 -1.87702,5.66706 0.57201,6.0775 0.57201,6.0775 z"
       id="path1077"
       sodipodi:nodetypes="cscsc" />
    <path
       id="path1004"
       d="m 329.89296,217.1445 c 0,0 -0.92822,-13.10094 -0.30942,-21.43791"
       style="fill:none;stroke:#40a354;stroke-width:6.74687;stroke-linecap:butt;stroke-linejoin:miter;stroke-miterlimit:4;stroke-dasharray:none;stroke-opacity:1" />
    <path
       sodipodi:nodetypes="cc"
       style="fill:none;stroke:#246c38;stroke-width:0.938052;stroke-linecap:butt;stroke-linejoin:miter;stroke-miterlimit:4;stroke-dasharray:none;stroke-opacity:1"
       d="m 353.85576,202.76284 c -0.003,8.5e-4 -9.3603,9.41223 -19.53739,14.40478"
       id="path1079" />
    <path
       sodipodi:nodetypes="cc"
       id="path1002"
       d="m 333.67374,260.07144 c 1.43947,12.32524 6.66742,17.90963 16.27116,22.32927"
       style="fill:none;stroke:#40a354;stroke-width:6.74687;stroke-linecap:butt;stroke-linejoin:miter;stroke-miterlimit:4;stroke-dasharray:none;stroke-opacity:1" />
    <ellipse
       transform="rotate(10)"
       style="fill:#f8e89b;fill-opacity:1;stroke:#030303;stroke-width:3.37344;stroke-miterlimit:4;stroke-dasharray:none;stroke-opacity:1;paint-order:stroke fill markers"
       id="ellipse996"
       cx="368.21729"
       cy="177.08354"
       rx="20.446117"
       ry="20.900475" />
    <text
       id="text1076"
       y="79.51857"
       x="15.590449"
       style="font-style:normal;font-weight:normal;font-size:7.71522px;line-height:1.25;font-family:sans-serif;fill:#000000;fill-opacity:1;stroke:none;stroke-width:0.192881;"
       xml:space="preserve"><tspan
         style="font-style:normal;font-variant:normal;font-weight:normal;font-stretch:normal;font-size:54.0067px;font-family:TechnicLite;-inkscape-font-specification:TechnicLite;fill:#000000;fill-opacity:1;stroke-width:0.192881;"
         y="79.51857"
         x="15.590449"
         id="tspan1074"
         sodipodi:role="line">Q</tspan></text>
    <text
       transform="scale(-1)"
       xml:space="preserve"
       style="font-style:normal;font-weight:normal;font-size:7.71522px;line-height:1.25;font-family:sans-serif;fill:#000000;fill-opacity:1;stroke:none;stroke-width:0.192881;"
       x="-425.43085"
       y="-542.6106"
       id="text1082"><tspan
         sodipodi:role="line"
         id="tspan1080"
         x="-425.43085"
         y="-542.6106"
         style="font-style:normal;font-variant:normal;font-weight:normal;font-stretch:normal;font-size:54.0067px;font-family:TechnicLite;-inkscape-font-specification:TechnicLite;fill:#000000;fill-opacity:1;stroke-width:0.192881;">Q</tspan></text>
    <ellipse
       ry="20.900475"
       rx="20.446117"
       cy="392.62112"
       cx="120.13523"
       id="path992"
       style="fill:#f8e89b;fill-opacity:1;stroke:#030303;stroke-width:3.37344;stroke-miterlimit:4;stroke-dasharray:none;stroke-opacity:1;paint-order:stroke fill markers" />
    <path
       sodipodi:nodetypes="zszsz"
       id="path887"
       d="m 215.47321,313.0386 c -0.41668,-3.10418 1.19409,-4.96109 4.40898,-5.09141 3.88743,-0.15758 4.94374,1.82109 4.43582,5.15585 -0.50792,3.33476 -2.42401,5.96633 -4.04978,5.99369 -1.75514,0.0295 -4.37834,-2.95396 -4.79502,-6.05813 z"
       style="fill:#8bfbff;fill-opacity:1;stroke:#ffffff;stroke-width:1.64466;stroke-linecap:butt;stroke-linejoin:miter;stroke-miterlimit:4;stroke-dasharray:none;stroke-opacity:1" />
    <ellipse
       ry="13.313776"
       rx="12.808391"
       cy="173.34711"
       cx="318.08475"
       id="path1006"
       style="fill:#f0ea4c;fill-opacity:1;stroke:none;stroke-width:12.4103;stroke-linecap:round;stroke-miterlimit:4;stroke-dasharray:none;stroke-opacity:1;paint-order:stroke fill markers" />
    <ellipse
       style="fill:#f0ea4c;fill-opacity:1;stroke:none;stroke-width:12.4103;stroke-linecap:round;stroke-miterlimit:4;stroke-dasharray:none;stroke-opacity:1;paint-order:stroke fill markers"
       id="ellipse1017"
       cx="340.06198"
       cy="172.63132"
       rx="12.808391"
       ry="13.313776" />
    <ellipse
       ry="13.313776"
       rx="12.808391"
       cy="190.09669"
       cx="339.92197"
       id="ellipse1019"
       style="fill:#f0ea4c;fill-opacity:1;stroke:none;stroke-width:12.4103;stroke-linecap:round;stroke-miterlimit:4;stroke-dasharray:none;stroke-opacity:1;paint-order:stroke fill markers" />
    <ellipse
       style="fill:#f0ea4c;fill-opacity:1;stroke:none;stroke-width:12.4103;stroke-linecap:round;stroke-miterlimit:4;stroke-dasharray:none;stroke-opacity:1;paint-order:stroke fill markers"
       id="ellipse1021"
       cx="319.48456"
       cy="191.0988"
       rx="12.808391"
       ry="13.313776" />
    <ellipse
       ry="5.7362719"
       rx="5.8498611"
       cy="182.31941"
       cx="329.30054"
       id="path1023"
       style="fill:#e91313;fill-opacity:1;stroke:#191919;stroke-width:6.97;stroke-linecap:round;stroke-miterlimit:4;stroke-dasharray:none;stroke-opacity:1;paint-order:stroke fill markers" />
    <path
       sodipodi:nodetypes="zscz"
       id="path1027"
       d="m 309.27405,183.06936 c 0.0904,1.44575 8.89752,1.31 12.79237,0.2576 0.80336,-0.21707 -0.70422,-1.94432 -0.70422,-1.94432 0,0 -12.17851,0.24096 -12.08815,1.68672 z"
       style="fill:#191919;fill-opacity:1;stroke:#191919;stroke-width:0.224896px;stroke-linecap:butt;stroke-linejoin:miter;stroke-opacity:1" />
    <path
       style="fill:#191919;fill-opacity:1;stroke:#191919;stroke-width:0.174088px;stroke-linecap:butt;stroke-linejoin:miter;stroke-opacity:1"
       d="m 330.06171,198.51604 c 0.87499,-0.0351 1.33678,-5.38523 0.78495,-7.67227 -0.12224,-0.50661 -1.74314,0.17256 -1.74314,0.17256 0,0 0.0832,7.53482 0.95819,7.49971 z"
       id="path1047"
       sodipodi:nodetypes="zscz" />
    <path
       style="fill:#191919;fill-opacity:1;stroke:#191919;stroke-width:0.224896px;stroke-linecap:butt;stroke-linejoin:miter;stroke-opacity:1"
       d="m 349.6407,181.45292 c -0.0904,1.44576 -7.47492,1.5894 -11.42657,1.48831 -0.83189,-0.0212 -0.66158,-3.17502 -0.66158,-3.17502 0,0 12.17851,0.24095 12.08815,1.68671 z"
       id="path1060"
       sodipodi:nodetypes="zscz" />
    <path
       sodipodi:nodetypes="zscz"
       id="path1071"
       d="m 328.69628,165.83725 c 0.87499,0.0351 1.33678,5.38523 0.78495,7.67227 -0.12224,0.50662 -1.74314,-0.17256 -1.74314,-0.17256 0,0 0.0832,-7.53482 0.95819,-7.49971 z"
       style="fill:#191919;fill-opacity:1;stroke:#191919;stroke-width:0.174088px;stroke-linecap:butt;stroke-linejoin:miter;stroke-opacity:1" />
    <path
       id="path1075"
       d="m 302.94829,204.77347 c 0,0 8.46884,5.69689 21.73186,7.99763"
       style="fill:none;stroke:#246c38;stroke-width:0.922616;stroke-linecap:butt;stroke-linejoin:miter;stroke-miterlimit:4;stroke-dasharray:none;stroke-opacity:1" />
    <ellipse
       ry="2.1284785"
       rx="2.1686382"
       cy="339.81372"
       cx="221.28357"
       id="path1105"
       style="fill:#181818;fill-opacity:1;stroke:none;stroke-width:6.79999;stroke-linecap:round;stroke-miterlimit:4;stroke-dasharray:none;stroke-opacity:1;paint-order:stroke fill markers" />
    <ellipse
       style="fill:#181818;fill-opacity:1;stroke:none;stroke-width:6.79999;stroke-linecap:round;stroke-miterlimit:4;stroke-dasharray:none;stroke-opacity:1;paint-order:stroke fill markers"
       id="path1105-4"
       cx="221.36388"
       cy="349.45212"
       rx="2.1686382"
       ry="2.1284785" />
    <ellipse
       style="fill:#181818;fill-opacity:1;stroke:none;stroke-width:6.79999;stroke-linecap:round;stroke-miterlimit:4;stroke-dasharray:none;stroke-opacity:1;paint-order:stroke fill markers"
       id="path1105-8"
       cx="221.28358"
       cy="359.97403"
       rx="2.1686382"
       ry="2.1284785" />
    <ellipse
       style="fill:#181818;fill-opacity:1;stroke:none;stroke-width:6.79999;stroke-linecap:round;stroke-miterlimit:4;stroke-dasharray:none;stroke-opacity:1;paint-order:stroke fill markers"
       id="path1105-6"
       cx="221.4442"
       cy="370.65656"
       rx="2.1686382"
       ry="2.1284785" />
    <ellipse
       style="fill:#181818;fill-opacity:1;stroke:none;stroke-width:6.79999;stroke-linecap:round;stroke-miterlimit:4;stroke-dasharray:none;stroke-opacity:1;paint-order:stroke fill markers"
       id="path1105-2"
       cx="221.44421"
       cy="380.93756"
       rx="2.1686382"
       ry="2.1284785" />
    <ellipse
       style="fill:#181818;fill-opacity:1;stroke:none;stroke-width:6.79999;stroke-linecap:round;stroke-miterlimit:4;stroke-dasharray:none;stroke-opacity:1;paint-order:stroke fill markers"
       id="path1105-0"
       cx="221.48438"
       cy="392.3028"
       rx="2.1686382"
       ry="2.1284785" />
    <ellipse
       style="fill:#181818;fill-opacity:1;stroke:none;stroke-width:6.79999;stroke-linecap:round;stroke-miterlimit:4;stroke-dasharray:none;stroke-opacity:1;paint-order:stroke fill markers"
       id="path1105-3"
       cx="221.36388"
       cy="404.02948"
       rx="2.1686382"
       ry="2.1284785" />
    <ellipse
       style="fill:#181818;fill-opacity:1;stroke:none;stroke-width:6.79999;stroke-linecap:round;stroke-miterlimit:4;stroke-dasharray:none;stroke-opacity:1;paint-order:stroke fill markers"
       id="path1105-80"
       cx="221.36754"
       cy="414.70477"
       rx="2.1686382"
       ry="2.1284785" />
    <ellipse
       ry="2.1284785"
       rx="2.1686382"
       cy="424.34317"
       cx="221.44785"
       id="path1105-4-6"
       style="fill:#181818;fill-opacity:1;stroke:none;stroke-width:6.79999;stroke-linecap:round;stroke-miterlimit:4;stroke-dasharray:none;stroke-opacity:1;paint-order:stroke fill markers" />
    <ellipse
       ry="2.1284785"
       rx="2.1686382"
       cy="434.86508"
       cx="221.36755"
       id="path1105-8-2"
       style="fill:#181818;fill-opacity:1;stroke:none;stroke-width:6.79999;stroke-linecap:round;stroke-miterlimit:4;stroke-dasharray:none;stroke-opacity:1;paint-order:stroke fill markers" />
    <ellipse
       ry="2.1284785"
       rx="2.1686382"
       cy="445.54761"
       cx="221.52817"
       id="path1105-6-5"
       style="fill:#181818;fill-opacity:1;stroke:none;stroke-width:6.79999;stroke-linecap:round;stroke-miterlimit:4;stroke-dasharray:none;stroke-opacity:1;paint-order:stroke fill markers" />
    <ellipse
       ry="2.1284785"
       rx="2.1686382"
       cy="455.82861"
       cx="221.52818"
       id="path1105-2-7"
       style="fill:#181818;fill-opacity:1;stroke:none;stroke-width:6.79999;stroke-linecap:round;stroke-miterlimit:4;stroke-dasharray:none;stroke-opacity:1;paint-order:stroke fill markers" />
    <ellipse
       ry="2.1284785"
       rx="2.1686382"
       cy="467.19385"
       cx="221.56833"
       id="path1105-0-5"
       style="fill:#181818;fill-opacity:1;stroke:none;stroke-width:6.79999;stroke-linecap:round;stroke-miterlimit:4;stroke-dasharray:none;stroke-opacity:1;paint-order:stroke fill markers" />
    <g
       transform="translate(12.333938,105.15641)"
       inkscape:label="Layer 1"
       id="layer1-2">
      <path
         style="fill:#000000;fill-opacity:1;stroke:#000000;stroke-width:0.311837px;stroke-linecap:butt;stroke-linejoin:miter;stroke-opacity:1"
         d="m 26.580504,0.79165146 c 0,0 -16.102139,19.01900054 -22.4567111,27.20816454 -6.3545726,8.189164 1.7279492,24.047726 20.6302561,16.641949 0.926599,-0.363033 -0.520123,5.034132 -3.910355,7.746767 l 7.387671,-0.106363 -2.197413,-8.809433 C 48.074512,31.785515 45.871837,21.466847 26.580504,0.79165146 Z"
         id="path835-62"
         sodipodi:nodetypes="czscccc" />
      <path
         sodipodi:nodetypes="czscccc"
         id="path841"
         d="m 26.580504,0.79165146 c 0,0 16.102138,19.01900054 22.456711,27.20816454 6.354572,8.189164 -1.727948,24.047726 -20.630257,16.641949 -0.926599,-0.363033 0.520123,5.034132 3.910355,7.746767 l -7.387671,-0.106363 2.197413,-8.809433 C 5.0864956,31.785515 7.2891707,21.466847 26.580504,0.79165146 Z"
         style="fill:#000000;fill-opacity:1;stroke:#000000;stroke-width:0.311837px;stroke-linecap:butt;stroke-linejoin:miter;stroke-opacity:1" />
      <rect
         style="fill:#000000;fill-opacity:1;stroke:#000000;stroke-width:0.935512;stroke-linecap:round;stroke-linejoin:round;paint-order:stroke fill markers"
         id="rect843"
         width="2.0812299"
         height="6.3976779"
         x="25.539888"
         y="40.479897" />
    </g>
    <g
       id="g965"
       inkscape:label="Layer 1"
       transform="matrix(1.8,0,0,1.8,69.57833,11.464195)">
      <path
         sodipodi:nodetypes="czscccc"
         id="path959"
         d="m 26.580504,0.79165146 c 0,0 -16.102139,19.01900054 -22.4567111,27.20816454 -6.3545726,8.189164 1.7279492,24.047726 20.6302561,16.641949 0.926599,-0.363033 -0.520123,5.034132 -3.910355,7.746767 l 7.387671,-0.106363 -2.197413,-8.809433 C 48.074512,31.785515 45.871837,21.466847 26.580504,0.79165146 Z"
         style="fill:#000000;fill-opacity:1;stroke:#000000;stroke-width:0.311837px;stroke-linecap:butt;stroke-linejoin:miter;stroke-opacity:1" />
      <path
         style="fill:#000000;fill-opacity:1;stroke:#000000;stroke-width:0.311837px;stroke-linecap:butt;stroke-linejoin:miter;stroke-opacity:1"
         d="m 26.580504,0.79165146 c 0,0 16.102138,19.01900054 22.456711,27.20816454 6.354572,8.189164 -1.727948,24.047726 -20.630257,16.641949 -0.926599,-0.363033 0.520123,5.034132 3.910355,7.746767 l -7.387671,-0.106363 2.197413,-8.809433 C 5.0864956,31.785515 7.2891707,21.466847 26.580504,0.79165146 Z"
         id="path961"
         sodipodi:nodetypes="czscccc" />
      <rect
         y="40.479897"
         x="25.539888"
         height="6.3976779"
         width="2.0812299"
         id="rect963"
         style="fill:#000000;fill-opacity:1;stroke:#000000;stroke-width:0.935512;stroke-linecap:round;stroke-linejoin:round;paint-order:stroke fill markers" />
    </g>
    <g
       transform="matrix(1.8,0,0,-1.8,279.6844,605.73522)"
       inkscape:label="Layer 1"
       id="g973">
      <path
         style="fill:#000000;fill-opacity:1;stroke:#000000;stroke-width:0.311837px;stroke-linecap:butt;stroke-linejoin:miter;stroke-opacity:1"
         d="m 26.580504,0.79165146 c 0,0 -16.102139,19.01900054 -22.4567111,27.20816454 -6.3545726,8.189164 1.7279492,24.047726 20.6302561,16.641949 0.926599,-0.363033 -0.520123,5.034132 -3.910355,7.746767 l 7.387671,-0.106363 -2.197413,-8.809433 C 48.074512,31.785515 45.871837,21.466847 26.580504,0.79165146 Z"
         id="path967"
         sodipodi:nodetypes="czscccc" />
      <path
         sodipodi:nodetypes="czscccc"
         id="path969"
         d="m 26.580504,0.79165146 c 0,0 16.102138,19.01900054 22.456711,27.20816454 6.354572,8.189164 -1.727948,24.047726 -20.630257,16.641949 -0.926599,-0.363033 0.520123,5.034132 3.910355,7.746767 l -7.387671,-0.106363 2.197413,-8.809433 C 5.0864956,31.785515 7.2891707,21.466847 26.580504,0.79165146 Z"
         style="fill:#000000;fill-opacity:1;stroke:#000000;stroke-width:0.311837px;stroke-linecap:butt;stroke-linejoin:miter;stroke-opacity:1" />
      <rect
         style="fill:#000000;fill-opacity:1;stroke:#000000;stroke-width:0.935512;stroke-linecap:round;stroke-linejoin:round;paint-order:stroke fill markers"
         id="rect971"
         width="2.0812299"
         height="6.3976779"
         x="25.539888"
         y="40.479897" />
    </g>
    <g
       id="g981"
       inkscape:label="Layer 1"
       transform="matrix(1,0,0,-1,378.02761,514.60817)">
      <path
         sodipodi:nodetypes="czscccc"
         id="path975"
         d="m 26.580504,0.79165146 c 0,0 -16.102139,19.01900054 -22.4567111,27.20816454 -6.3545726,8.189164 1.7279492,24.047726 20.6302561,16.641949 0.926599,-0.363033 -0.520123,5.034132 -3.910355,7.746767 l 7.387671,-0.106363 -2.197413,-8.809433 C 48.074512,31.785515 45.871837,21.466847 26.580504,0.79165146 Z"
         style="fill:#000000;fill-opacity:1;stroke:#000000;stroke-width:0.311837px;stroke-linecap:butt;stroke-linejoin:miter;stroke-opacity:1" />
      <path
         style="fill:#000000;fill-opacity:1;stroke:#000000;stroke-width:0.311837px;stroke-linecap:butt;stroke-linejoin:miter;stroke-opacity:1"
         d="m 26.580504,0.79165146 c 0,0 16.102138,19.01900054 22.456711,27.20816454 6.354572,8.189164 -1.727948,24.047726 -20.630257,16.641949 -0.926599,-0.363033 0.520123,5.034132 3.910355,7.746767 l -7.387671,-0.106363 2.197413,-8.809433 C 5.0864956,31.785515 7.2891707,21.466847 26.580504,0.79165146 Z"
         id="path977"
         sodipodi:nodetypes="czscccc" />
      <rect
         y="40.479897"
         x="25.539888"
         height="6.3976779"
         width="2.0812299"
         id="rect979"
         style="fill:#000000;fill-opacity:1;stroke:#000000;stroke-width:0.935512;stroke-linecap:round;stroke-linejoin:round;paint-order:stroke fill markers" />
    </g>
  </g>
</svg>
