<?xml version="1.0" encoding="UTF-8" standalone="no"?>
<svg
   width="443mm"
   height="624mm"
   viewBox="0 0 443 624"
   version="1.1"
   id="svg8"
   inkscape:version="1.2.2 (b0a8486541, 2022-12-01)"
   sodipodi:docname="ess.svg"
   xmlns:inkscape="http://www.inkscape.org/namespaces/inkscape"
   xmlns:sodipodi="http://sodipodi.sourceforge.net/DTD/sodipodi-0.dtd"
   xmlns="http://www.w3.org/2000/svg"
   xmlns:svg="http://www.w3.org/2000/svg"
   xmlns:rdf="http://www.w3.org/1999/02/22-rdf-syntax-ns#"
   xmlns:cc="http://creativecommons.org/ns#"
   xmlns:dc="http://purl.org/dc/elements/1.1/">
  <defs
     id="defs2">
    <clipPath
       id="clipEmfPath1"
       clipPathUnits="userSpaceOnUse">
      <path
         id="path833"
         d="M 0,0 H 264.09071 V 373.01291 H 0 Z" />
    </clipPath>
    <pattern
       y="0"
       x="0"
       height="6"
       width="6"
       patternUnits="userSpaceOnUse"
       id="EMFhbasepattern" />
    <clipPath
       id="clipEmfPath1-7"
       clipPathUnits="userSpaceOnUse">
      <path
         id="path833-0"
         d="M 0,0 H 264.09071 V 373.01291 H 0 Z" />
    </clipPath>
    <pattern
       y="0"
       x="0"
       height="6"
       width="6"
       patternUnits="userSpaceOnUse"
       id="EMFhbasepattern-6" />
  </defs>
  <sodipodi:namedview
     id="base"
     pagecolor="#ffffff"
     bordercolor="#666666"
     borderopacity="1.0"
     inkscape:pageopacity="0.0"
     inkscape:pageshadow="2"
     inkscape:zoom="0.23591351"
     inkscape:cx="406.9288"
     inkscape:cy="803.26049"
     inkscape:document-units="mm"
     inkscape:current-layer="layer1"
     inkscape:document-rotation="0"
     showgrid="false"
     inkscape:window-width="1916"
     inkscape:window-height="1054"
     inkscape:window-x="0"
     inkscape:window-y="22"
     inkscape:window-maximized="1"
     inkscape:showpageshadow="2"
     inkscape:pagecheckerboard="0"
     inkscape:deskcolor="#d1d1d1">
    <inkscape:grid
       id="grid1906"
       type="xygrid" />
  </sodipodi:namedview>
  <metadata
     id="metadata5">
    <rdf:RDF>
      <cc:Work
         rdf:about="">
        <dc:format>image/svg+xml</dc:format>
        <dc:type
           rdf:resource="http://purl.org/dc/dcmitype/StillImage" />
      </cc:Work>
    </rdf:RDF>
  </metadata>
  <g
     inkscape:label="Layer 1"
     inkscape:groupmode="layer"
     id="layer1">
    <text
       id="text874"
       y="60.379772"
       x="26.895372"
       style="font-style:normal;font-weight:normal;font-size:27.5656px;line-height:1.25;font-family:sans-serif;fill:#000000;fill-opacity:1;stroke:none;stroke-width:0.861423"
       xml:space="preserve"><tspan
         id="tspan884"
         style="font-style:normal;font-variant:normal;font-weight:normal;font-stretch:normal;font-size:27.5656px;font-family:'Fredoka One';-inkscape-font-specification:'Fredoka One';stroke-width:0.861423"
         y="60.379772"
         x="26.895372"
         sodipodi:role="line" /></text>
    <g
       transform="matrix(4.8390539,0,0,4.892733,93.70961,157.27991)"
       inkscape:label="Layer 1"
       id="g1051"
       style="fill:none;stroke-width:1.94541;stroke-miterlimit:4;stroke-dasharray:none">
      <path
         style="fill:none;fill-opacity:1;stroke:#000000;stroke-width:1.94541;stroke-linecap:butt;stroke-linejoin:miter;stroke-miterlimit:4;stroke-dasharray:none;stroke-opacity:1"
         d="m 26.580504,0.79165146 c 0,0 -16.102139,19.01900054 -22.4567111,27.20816454 -6.3545726,8.189164 1.7279492,24.047726 20.6302561,16.641949 0.926599,-0.363033 -0.520123,5.034132 -3.910355,7.746767 l 7.387671,-0.106363 -2.197413,-8.809433 c 22.9795,-8.518924 19.837885,-22.005889 0.546552,-42.68108454 z"
         id="path1045"
         sodipodi:nodetypes="czscccc" />
      <path
         sodipodi:nodetypes="czscccc"
         id="path1047"
         d="m 26.580504,0.79165146 c 0,0 16.102138,19.01900054 22.456711,27.20816454 6.354572,8.189164 -1.727948,24.047726 -20.630257,16.641949 -0.926599,-0.363033 0.520123,5.034132 3.910355,7.746767 l -7.387671,-0.106363 2.197413,-8.809433 C 5.6388133,37.848981 7.2891707,21.466847 26.580504,0.79165146 Z"
         style="fill:none;fill-opacity:1;stroke:#000000;stroke-width:1.94541;stroke-linecap:butt;stroke-linejoin:miter;stroke-miterlimit:4;stroke-dasharray:none;stroke-opacity:1" />
      <rect
         style="fill:none;fill-opacity:1;stroke:#000000;stroke-width:1.94541;stroke-linecap:round;stroke-linejoin:round;stroke-miterlimit:4;stroke-dasharray:none;paint-order:stroke fill markers"
         id="rect1049"
         width="2.0812299"
         height="6.3976779"
         x="25.539888"
         y="40.479897" />
    </g>
    <path
       style="fill:#ffffff;fill-opacity:1;stroke:none;stroke-width:0.264583px;stroke-linecap:butt;stroke-linejoin:miter;stroke-opacity:1"
       d="m 207.35319,349.5818 1.78376,10.20929 12.96879,5.71255 11.13129,-6.1937 3.35397,-10.40975 z"
       id="path856"
       sodipodi:nodetypes="cccccc" />
    <path
       style="fill:#ffffff;fill-opacity:1;stroke:#000000;stroke-width:0.264583px;stroke-linecap:butt;stroke-linejoin:miter;stroke-opacity:1"
       d="m 206.20302,409.12895 c 0,0 17.84277,-0.43437 32.45486,-0.43431 0.79375,0 -16.57986,-32.63861 -16.57986,-32.63861 0,0 -10.06356,18.14049 -16.67681,32.87247 -0.0953,0.21227 0.80181,0.20045 0.80181,0.20045 z"
       id="path858"
       sodipodi:nodetypes="cscsc" />
    <text
       xml:space="preserve"
       style="font-style:normal;font-weight:normal;font-size:35.2778px;line-height:1.25;font-family:sans-serif;fill:#000000;fill-opacity:1;stroke:none;stroke-width:0.264583"
       x="222.42661"
       y="465.61014"
       id="text876"><tspan
         sodipodi:role="line"
         id="tspan874"
         x="222.42661"
         y="465.61014"
         style="font-weight:bold;font-size:35.2778px;text-align:center;text-anchor:middle;stroke-width:0.264583">KNÅKER</tspan><tspan
         sodipodi:role="line"
         x="222.42661"
         y="509.7074"
         style="font-weight:bold;font-size:35.2778px;text-align:center;text-anchor:middle;stroke-width:0.264583"
         id="tspan878">KORTLEK</tspan></text>
    <path
       sodipodi:nodetypes="cccccccsccc"
       id="path862"
       d="m 152.13542,252.28764 42.71131,-51.40475 60.66518,6.61458 46.86905,57.64136 2.45685,63.68899 -67.27977,41.19941 -5.32508,0.37895 c 0,0 -9.34819,-4.62349 -20.21599,0.0993 -10.86769,4.72269 -77.45744,-25.61363 -77.45744,-25.61363 l -0.75596,-49.13691 z"
       style="fill:#ffffff;fill-opacity:1;stroke:none;stroke-width:0.264583px;stroke-linecap:butt;stroke-linejoin:miter;stroke-opacity:1" />
    <ellipse
       ry="19.334362"
       rx="16.882748"
       cy="267.63739"
       cx="197.40677"
       id="path900"
       style="fill:#000000;fill-opacity:1;stroke:none;stroke-width:6.70784;stroke-linecap:round;stroke-miterlimit:4;stroke-dasharray:none;stroke-opacity:1;paint-order:stroke fill markers" />
    <ellipse
       style="fill:#000000;fill-opacity:1;stroke:none;stroke-width:6.76205;stroke-linecap:round;stroke-miterlimit:4;stroke-dasharray:none;stroke-opacity:1;paint-order:stroke fill markers"
       id="path900-2"
       cx="250.96581"
       cy="265.40909"
       rx="16.855658"
       ry="19.679529" />
    <path
       sodipodi:nodetypes="cssc"
       id="path873"
       d="m 187.31271,306.66301 c 0,0 15.64655,19.95977 27.16392,30.35226 3.4409,3.10483 8.27549,3.99798 11.91227,0.74452 6.13737,-5.4905 28.99873,-28.20901 28.99873,-33.04836"
       style="fill:none;stroke:#000000;stroke-width:4.16928;stroke-linecap:butt;stroke-linejoin:miter;stroke-miterlimit:4;stroke-dasharray:none;stroke-opacity:1" />
    <path
       id="path982"
       d="m 217.2985,386.63937 1.52843,-4.23217 c 0,0 2.3386,-11.82667 -9.95579,-10.22305 -12.2944,1.60361 13.49711,-9.28762 13.49711,-9.28762 l -0.26727,19.17658 z"
       style="fill:#ffffff;fill-opacity:1;stroke:none;stroke-width:0.264583px;stroke-linecap:butt;stroke-linejoin:miter;stroke-opacity:1" />
    <path
       style="fill:#ffffff;fill-opacity:1;stroke:none;stroke-width:0.264583px;stroke-linecap:butt;stroke-linejoin:miter;stroke-opacity:1"
       d="m 226.90346,386.63937 -1.52843,-4.23217 c 0,0 -2.3386,-11.82667 9.95579,-10.22305 12.2944,1.60361 -13.49711,-9.28762 -13.49711,-9.28762 l 0.26727,19.17658 z"
       id="path984" />
    <g
       id="g47320"
       transform="translate(96.576286)">
      <path
         style="fill:#000000;fill-opacity:1;stroke:#000000;stroke-width:0.42686px;stroke-linecap:butt;stroke-linejoin:miter;stroke-opacity:1"
         d="m -31.432009,146.49233 c 0,0 -22.041503,26.03426 -30.739995,37.24404 -8.698492,11.20979 2.365313,32.91787 28.239842,22.78043 1.26838,-0.49694 -0.711974,6.891 -5.352712,10.60421 l 10.112655,-0.1456 -3.007941,-12.05884 c 30.170344,-15.99812 27.1552,-30.12289 0.748151,-58.42424 z"
         id="path835-62"
         sodipodi:nodetypes="czscccc" />
      <path
         sodipodi:nodetypes="czscccc"
         id="path841"
         d="m -31.432009,146.49233 c 0,0 22.0415015,26.03426 30.73999436,37.24404 8.69849144,11.20979 -2.36531126,32.91787 -28.23984236,22.78043 -1.268381,-0.49694 0.711973,6.891 5.352711,10.60421 l -10.112655,-0.1456 3.007941,-12.05884 c -30.170343,-15.99812 -27.155199,-30.12289 -0.748149,-58.42424 z"
         style="fill:#000000;fill-opacity:1;stroke:#000000;stroke-width:0.42686px;stroke-linecap:butt;stroke-linejoin:miter;stroke-opacity:1" />
      <rect
         style="fill:#000000;fill-opacity:1;stroke:#000000;stroke-width:1.28058;stroke-linecap:round;stroke-linejoin:round;paint-order:stroke fill markers"
         id="rect843"
         width="2.8489032"
         height="8.7574968"
         x="-32.856461"
         y="200.81981" />
    </g>
    <text
       id="text11445"
       y="123.62872"
       x="64.720932"
       style="font-style:normal;font-weight:normal;font-size:84.6666px;line-height:1.25;font-family:sans-serif;fill:#000000;fill-opacity:1;stroke:none;stroke-width:0.396874"
       xml:space="preserve"><tspan
         style="font-style:normal;font-variant:normal;font-weight:normal;font-stretch:normal;font-size:84.6666px;font-family:'Fredoka One';-inkscape-font-specification:'Fredoka One';text-align:center;text-anchor:middle;fill:#000000;fill-opacity:1;stroke-width:0.396874"
         y="123.62872"
         x="64.720932"
         id="tspan11443"
         sodipodi:role="line">A</tspan></text>
    <text
       id="text7592"
       y="-500.37128"
       x="-378.27908"
       style="font-style:normal;font-weight:normal;font-size:84.6666px;line-height:1.25;font-family:sans-serif;fill:#000000;fill-opacity:1;stroke:none;stroke-width:0.396874"
       xml:space="preserve"
       transform="scale(-1)"><tspan
         style="font-style:normal;font-variant:normal;font-weight:normal;font-stretch:normal;font-size:84.6666px;font-family:'Fredoka One';-inkscape-font-specification:'Fredoka One';text-align:center;text-anchor:middle;fill:#000000;fill-opacity:1;stroke-width:0.396874"
         y="-500.37128"
         x="-378.27908"
         id="tspan7590"
         sodipodi:role="line">A</tspan></text>
    <g
       id="g47328"
       transform="rotate(180,173.21186,314.66952)">
      <path
         style="fill:#000000;fill-opacity:1;stroke:#000000;stroke-width:0.42686px;stroke-linecap:butt;stroke-linejoin:miter;stroke-opacity:1"
         d="m -31.432009,146.49233 c 0,0 -22.041503,26.03426 -30.739995,37.24404 -8.698492,11.20979 2.365313,32.91787 28.239842,22.78043 1.26838,-0.49694 -0.711974,6.891 -5.352712,10.60421 l 10.112655,-0.1456 -3.007941,-12.05884 c 30.170344,-15.99812 27.1552,-30.12289 0.748151,-58.42424 z"
         id="path47322"
         sodipodi:nodetypes="czscccc" />
      <path
         sodipodi:nodetypes="czscccc"
         id="path47324"
         d="m -31.432009,146.49233 c 0,0 22.0415015,26.03426 30.73999436,37.24404 8.69849144,11.20979 -2.36531126,32.91787 -28.23984236,22.78043 -1.268381,-0.49694 0.711973,6.891 5.352711,10.60421 l -10.112655,-0.1456 3.007941,-12.05884 c -30.170343,-15.99812 -27.155199,-30.12289 -0.748149,-58.42424 z"
         style="fill:#000000;fill-opacity:1;stroke:#000000;stroke-width:0.42686px;stroke-linecap:butt;stroke-linejoin:miter;stroke-opacity:1" />
      <rect
         style="fill:#000000;fill-opacity:1;stroke:#000000;stroke-width:1.28058;stroke-linecap:round;stroke-linejoin:round;paint-order:stroke fill markers"
         id="rect47326"
         width="2.8489032"
         height="8.7574968"
         x="-32.856461"
         y="200.81981" />
    </g>
  </g>
</svg>
