<?xml version="1.0" encoding="UTF-8" standalone="no"?>
<svg
   xmlns:dc="http://purl.org/dc/elements/1.1/"
   xmlns:cc="http://creativecommons.org/ns#"
   xmlns:rdf="http://www.w3.org/1999/02/22-rdf-syntax-ns#"
   xmlns:svg="http://www.w3.org/2000/svg"
   xmlns="http://www.w3.org/2000/svg"
   xmlns:xlink="http://www.w3.org/1999/xlink"
   xmlns:sodipodi="http://sodipodi.sourceforge.net/DTD/sodipodi-0.dtd"
   xmlns:inkscape="http://www.inkscape.org/namespaces/inkscape"
   width="443mm"
   height="624mm"
   viewBox="0 0 443 624"
   version="1.1"
   id="svg8"
   inkscape:version="1.0 (4035a4fb49, 2020-05-01)"
   sodipodi:docname="knug.svg">
  <defs
     id="defs2">
    <pattern
       inkscape:collect="always"
       xlink:href="#Polkadots-med"
       id="pattern3461"
       patternTransform="matrix(8.5,0,0,8.5,30.531242,18.364686)" />
    <pattern
       inkscape:collect="always"
       xlink:href="#Polkadots-med"
       id="pattern3459"
       patternTransform="matrix(8.5,0,0,8.5,30.531242,18.364686)" />
    <pattern
       inkscape:stockid="Polka dots, medium"
       id="Polkadots-med"
       patternTransform="translate(0,0) scale(10,10)"
       height="10"
       width="10"
       patternUnits="userSpaceOnUse"
       inkscape:collect="always">
      <circle
         id="circle2460"
         r="0.15"
         cy="0.810"
         cx="2.567"
         style="fill:black;stroke:none" />
      <circle
         id="circle2462"
         r="0.15"
         cy="2.33"
         cx="3.048"
         style="fill:black;stroke:none" />
      <circle
         id="circle2464"
         r="0.15"
         cy="2.415"
         cx="4.418"
         style="fill:black;stroke:none" />
      <circle
         id="circle2466"
         r="0.15"
         cy="3.029"
         cx="1.844"
         style="fill:black;stroke:none" />
      <circle
         id="circle2468"
         r="0.15"
         cy="1.363"
         cx="6.08"
         style="fill:black;stroke:none" />
      <circle
         id="circle2470"
         r="0.15"
         cy="4.413"
         cx="5.819"
         style="fill:black;stroke:none" />
      <circle
         id="circle2472"
         r="0.15"
         cy="4.048"
         cx="4.305"
         style="fill:black;stroke:none" />
      <circle
         id="circle2474"
         r="0.15"
         cy="3.045"
         cx="5.541"
         style="fill:black;stroke:none" />
      <circle
         id="circle2476"
         r="0.15"
         cy="5.527"
         cx="4.785"
         style="fill:black;stroke:none" />
      <circle
         id="circle2478"
         r="0.15"
         cy="5.184"
         cx="2.667"
         style="fill:black;stroke:none" />
      <circle
         id="circle2480"
         r="0.15"
         cy="1.448"
         cx="7.965"
         style="fill:black;stroke:none" />
      <circle
         id="circle2482"
         r="0.15"
         cy="5.049"
         cx="7.047"
         style="fill:black;stroke:none" />
      <circle
         id="circle2484"
         r="0.15"
         cy="0.895"
         cx="4.340"
         style="fill:black;stroke:none" />
      <circle
         id="circle2486"
         r="0.15"
         cy="0.340"
         cx="7.125"
         style="fill:black;stroke:none" />
      <circle
         id="circle2488"
         r="0.15"
         cy="1.049"
         cx="9.553"
         style="fill:black;stroke:none" />
      <circle
         id="circle2490"
         r="0.15"
         cy="2.689"
         cx="7.006"
         style="fill:black;stroke:none" />
      <circle
         id="circle2492"
         r="0.15"
         cy="2.689"
         cx="8.909"
         style="fill:black;stroke:none" />
      <circle
         id="circle2494"
         r="0.15"
         cy="4.407"
         cx="9.315"
         style="fill:black;stroke:none" />
      <circle
         id="circle2496"
         r="0.15"
         cy="3.870"
         cx="7.820"
         style="fill:black;stroke:none" />
      <circle
         id="circle2498"
         r="0.15"
         cy="5.948"
         cx="8.270"
         style="fill:black;stroke:none" />
      <circle
         id="circle2500"
         r="0.15"
         cy="7.428"
         cx="7.973"
         style="fill:black;stroke:none" />
      <circle
         id="circle2502"
         r="0.15"
         cy="8.072"
         cx="9.342"
         style="fill:black;stroke:none" />
      <circle
         id="circle2504"
         r="0.15"
         cy="9.315"
         cx="8.206"
         style="fill:black;stroke:none" />
      <circle
         id="circle2506"
         r="0.15"
         cy="9.475"
         cx="9.682"
         style="fill:black;stroke:none" />
      <circle
         id="circle2508"
         r="0.15"
         cy="6.186"
         cx="9.688"
         style="fill:black;stroke:none" />
      <circle
         id="circle2510"
         r="0.15"
         cy="6.296"
         cx="3.379"
         style="fill:black;stroke:none" />
      <circle
         id="circle2512"
         r="0.15"
         cy="8.204"
         cx="2.871"
         style="fill:black;stroke:none" />
      <circle
         id="circle2514"
         r="0.15"
         cy="8.719"
         cx="4.59"
         style="fill:black;stroke:none" />
      <circle
         id="circle2516"
         r="0.15"
         cy="9.671"
         cx="3.181"
         style="fill:black;stroke:none" />
      <circle
         id="circle2518"
         r="0.15"
         cy="7.315"
         cx="5.734"
         style="fill:black;stroke:none" />
      <circle
         id="circle2520"
         r="0.15"
         cy="6.513"
         cx="6.707"
         style="fill:black;stroke:none" />
      <circle
         id="circle2522"
         r="0.15"
         cy="9.670"
         cx="5.730"
         style="fill:black;stroke:none" />
      <circle
         id="circle2524"
         r="0.15"
         cy="8.373"
         cx="6.535"
         style="fill:black;stroke:none" />
      <circle
         id="circle2526"
         r="0.15"
         cy="7.154"
         cx="4.37"
         style="fill:black;stroke:none" />
      <circle
         id="circle2528"
         r="0.15"
         cy="7.25"
         cx="0.622"
         style="fill:black;stroke:none" />
      <circle
         id="circle2530"
         r="0.15"
         cy="5.679"
         cx="0.831"
         style="fill:black;stroke:none" />
      <circle
         id="circle2532"
         r="0.15"
         cy="8.519"
         cx="1.257"
         style="fill:black;stroke:none" />
      <circle
         id="circle2534"
         r="0.15"
         cy="6.877"
         cx="1.989"
         style="fill:black;stroke:none" />
      <circle
         id="circle2536"
         r="0.15"
         cy="3.181"
         cx="0.374"
         style="fill:black;stroke:none" />
      <circle
         id="circle2538"
         r="0.15"
         cy="1.664"
         cx="1.166"
         style="fill:black;stroke:none" />
      <circle
         id="circle2540"
         r="0.15"
         cy="0.093"
         cx="1.151"
         style="fill:black;stroke:none" />
      <circle
         id="circle2542"
         r="0.15"
         cy="10.093"
         cx="1.151"
         style="fill:black;stroke:none" />
      <circle
         id="circle2544"
         r="0.15"
         cy="4.451"
         cx="1.302"
         style="fill:black;stroke:none" />
      <circle
         id="circle2546"
         r="0.15"
         cy="3.763"
         cx="3.047"
         style="fill:black;stroke:none" />
    </pattern>
    <clipPath
       id="clipEmfPath1"
       clipPathUnits="userSpaceOnUse">
      <path
         id="path833"
         d="M 0,0 H 264.09071 V 373.01291 H 0 Z" />
    </clipPath>
    <pattern
       y="0"
       x="0"
       height="6"
       width="6"
       patternUnits="userSpaceOnUse"
       id="EMFhbasepattern" />
  </defs>
  <sodipodi:namedview
     id="base"
     pagecolor="#ffffff"
     bordercolor="#666666"
     borderopacity="1.0"
     inkscape:pageopacity="0.0"
     inkscape:pageshadow="2"
     inkscape:zoom="0.175"
     inkscape:cx="584.03066"
     inkscape:cy="1251.3163"
     inkscape:document-units="mm"
     inkscape:current-layer="layer1"
     inkscape:document-rotation="0"
     showgrid="false"
     inkscape:window-width="1920"
     inkscape:window-height="1000"
     inkscape:window-x="-11"
     inkscape:window-y="35"
     inkscape:window-maximized="1" />
  <metadata
     id="metadata5">
    <rdf:RDF>
      <cc:Work
         rdf:about="">
        <dc:format>image/svg+xml</dc:format>
        <dc:type
           rdf:resource="http://purl.org/dc/dcmitype/StillImage" />
        <dc:title />
      </cc:Work>
    </rdf:RDF>
  </metadata>
  <g
     inkscape:label="Layer 1"
     inkscape:groupmode="layer"
     id="layer1">
    <path
       style="fill:#d00000;fill-opacity:1;stroke:#000000;stroke-width:0.793833px;stroke-linecap:butt;stroke-linejoin:miter;stroke-opacity:1"
       d="m 162.10481,278.07649 1.10947,203.00055 112.4259,-0.86938 0.36982,-202.13117 z"
       id="path903" />
    <path
       style="fill:#302e65;fill-opacity:1;stroke:#000000;stroke-width:0.224896px;stroke-linecap:butt;stroke-linejoin:miter;stroke-opacity:1"
       d="m 145.0295,292.79703 c 0,0 -55.886052,25.89839 -54.977336,65.88193 0.908716,39.98351 0.454356,22.71789 0.454356,22.71789 l 28.98956,-0.68153 c 0,0 -1.03428,-12.26484 0.1559,-21.40523 1.19017,-9.14038 13.36736,-32.5303 28.10366,-34.02645 16.99193,-1.72517 -2.72614,-32.48661 -2.72614,-32.48661 z"
       id="path990"
       sodipodi:nodetypes="cscczsc" />
    <text
       id="text874"
       y="60.379772"
       x="26.895372"
       style="font-style:normal;font-weight:normal;font-size:27.5656px;line-height:1.25;font-family:sans-serif;fill:#000000;fill-opacity:1;stroke:none;stroke-width:0.861423"
       xml:space="preserve"><tspan
         id="tspan884"
         style="font-style:normal;font-variant:normal;font-weight:normal;font-stretch:normal;font-size:27.5656px;font-family:Cabin;-inkscape-font-specification:Cabin;stroke-width:0.861423"
         y="60.379772"
         x="26.895372"
         sodipodi:role="line" /></text>
    <g
       id="g1031"
       transform="matrix(0.85,0,0,0.85,30.304063,19.84135)">
      <g
         id="g1048">
        <path
           sodipodi:nodetypes="czscc"
           id="path1010"
           d="m 331.85012,266.55639 c 0,0 75.75145,4.06506 75.88713,-1.58278 0.13568,-5.64784 0.18804,-4.84441 -0.0182,-10.25526 -0.29438,-7.72315 -76.03756,-8.83039 -76.03756,-8.83039 z"
           style="fill:#bcbcbc;fill-opacity:1;stroke:#000000;stroke-width:0.264583px;stroke-linecap:butt;stroke-linejoin:miter;stroke-opacity:1" />
        <path
           style="fill:#bcbcbc;fill-opacity:1;stroke:none;stroke-width:0.264583px;stroke-linecap:butt;stroke-linejoin:miter;stroke-opacity:1"
           d="m 332.61903,239.63689 -58.96427,-2.64583 -1.32292,32.69495 59.34226,3.59076 z"
           id="path1014" />
        <path
           id="path1024"
           d="m 331.68148,245.88796 -58.66567,-3.47451"
           style="fill:none;stroke:#dddddd;stroke-width:1.32292;stroke-linecap:butt;stroke-linejoin:miter;stroke-miterlimit:4;stroke-dasharray:none;stroke-opacity:1" />
        <path
           style="fill:none;stroke:#dddddd;stroke-width:1.32292;stroke-linecap:butt;stroke-linejoin:miter;stroke-miterlimit:4;stroke-dasharray:none;stroke-opacity:1"
           d="m 331.85012,266.55639 -58.66567,-3.47451"
           id="path1026" />
        <path
           style="fill:none;stroke:#7a7a7a;stroke-width:9.26042;stroke-linecap:round;stroke-linejoin:miter;stroke-miterlimit:4;stroke-dasharray:none;stroke-opacity:1"
           d="m 330.84543,293.33638 2.64583,-69.54762"
           id="path1012" />
      </g>
      <g
         id="g1037" />
    </g>
    <path
       sodipodi:nodetypes="cscczsc"
       id="path994"
       d="m 288.32203,330.42146 c 0,0 59.53423,-15.80043 65.58239,-55.33433 6.04815,-39.53386 3.49747,-22.45165 3.49747,-22.45165 l -28.66749,-4.3628 c 0,0 -1.11118,12.2581 -3.87053,21.05296 -2.75929,8.79485 -18.81309,29.71488 -33.58533,28.62936 -17.03334,-1.25166 -2.95651,32.46646 -2.95651,32.46646 z"
       style="fill:#302e65;fill-opacity:1;stroke:#000000;stroke-width:0.224896px;stroke-linecap:butt;stroke-linejoin:miter;stroke-opacity:1" />
    <path
       sodipodi:nodetypes="csscsccc"
       id="path3234"
       d="m 134.57927,281.89242 c 0,0 32.30036,63.52746 24.57628,98.9674 -7.72409,35.43994 -3.98546,72.66465 -6.85632,110.49173 -1.34491,17.7208 42.70967,-9.54153 42.70967,-9.54153 0,0 1.81744,-20.44611 -4.99794,-57.24912 -6.81537,-36.80301 2.2718,-95.86959 2.2718,-95.86959 l -5.4523,-54.97733 c 0,0 -32.25943,-14.53945 -52.25119,8.17844 z"
       style="fill:#fafafb;fill-opacity:1;stroke:#000000;stroke-width:1.79917;stroke-linecap:butt;stroke-linejoin:miter;stroke-miterlimit:4;stroke-dasharray:none;stroke-opacity:1" />
    <path
       style="fill:url(#pattern3459);fill-opacity:1;stroke:#000000;stroke-width:1.79917;stroke-linecap:butt;stroke-linejoin:miter;stroke-miterlimit:4;stroke-dasharray:none;stroke-opacity:1"
       d="m 134.57927,281.89242 c 0,0 32.30036,63.52746 24.57628,98.9674 -7.72409,35.43994 -3.98546,72.66465 -6.85632,110.49173 -1.34491,17.7208 42.70967,-9.54153 42.70967,-9.54153 0,0 1.81744,-20.44611 -4.99794,-57.24912 -6.81537,-36.80301 2.2718,-95.86959 2.2718,-95.86959 l -5.4523,-54.97733 c 0,0 -32.25943,-14.53945 -52.25119,8.17844 z"
       id="path998"
       sodipodi:nodetypes="csscsccc" />
    <path
       sodipodi:nodetypes="csscsccc"
       id="path1008"
       d="m 308.13746,278.67962 c 0,0 -32.30036,63.52747 -24.57628,98.96741 7.72409,35.43993 3.98546,72.66465 6.85631,110.49172 1.34492,17.7208 -42.70967,-9.54152 -42.70967,-9.54152 0,0 -1.81743,-20.44611 4.99795,-57.24913 6.81537,-36.80301 -2.2718,-95.86958 -2.2718,-95.86958 l 5.4523,-54.97734 c 0,0 32.25943,-14.53945 52.25119,8.17844 z"
       style="fill:#fafafb;fill-opacity:1;stroke:#000000;stroke-width:1.79917;stroke-linecap:butt;stroke-linejoin:miter;stroke-miterlimit:4;stroke-dasharray:none;stroke-opacity:1" />
    <path
       style="fill:url(#pattern3461);fill-opacity:1;stroke:#000000;stroke-width:1.79917;stroke-linecap:butt;stroke-linejoin:miter;stroke-miterlimit:4;stroke-dasharray:none;stroke-opacity:1"
       d="m 308.13746,278.67962 c 0,0 -32.30036,63.52747 -24.57628,98.96741 7.72409,35.43993 3.98546,72.66465 6.85631,110.49172 1.34492,17.7208 -42.70967,-9.54152 -42.70967,-9.54152 0,0 -1.81743,-20.44611 4.99795,-57.24913 6.81537,-36.80301 -2.2718,-95.86958 -2.2718,-95.86958 l 5.4523,-54.97734 c 0,0 32.25943,-14.53945 52.25119,8.17844 z"
       id="path3236"
       sodipodi:nodetypes="csscsccc" />
    <g
       id="g986"
       transform="matrix(0.85,0,0,0.85,30.531242,18.364686)">
      <circle
         style="fill:#f8e89b;fill-opacity:1;stroke:#303030;stroke-width:4.26015;stroke-linecap:round;stroke-miterlimit:4;stroke-dasharray:none;stroke-opacity:1;paint-order:stroke fill markers"
         id="path883-1"
         cx="223.35309"
         cy="261.58655"
         r="66.343704" />
      <ellipse
         ry="15.978811"
         rx="13.952684"
         cy="240.85179"
         cx="198.77075"
         id="path900"
         style="fill:#000000;fill-opacity:1;stroke:#f8e798;stroke-width:5.54367;stroke-linecap:round;stroke-miterlimit:4;stroke-dasharray:none;stroke-opacity:1;paint-order:stroke fill markers" />
      <ellipse
         style="fill:#000000;fill-opacity:1;stroke:#f8e798;stroke-width:5.58847;stroke-linecap:round;stroke-miterlimit:4;stroke-dasharray:none;stroke-opacity:1;paint-order:stroke fill markers"
         id="path900-2"
         cx="248.58803"
         cy="240.76167"
         rx="13.930296"
         ry="16.264074" />
      <path
         sodipodi:nodetypes="cssc"
         id="path873"
         d="m 194.62257,274.20937 c 0,0 12.93103,16.49568 22.44951,25.08451 2.84373,2.56598 6.83925,3.30412 9.84485,0.61531 5.0722,-4.53761 23.96589,-23.31324 23.96589,-27.3127"
         style="fill:none;stroke:#000000;stroke-width:3.44568;stroke-linecap:butt;stroke-linejoin:miter;stroke-miterlimit:4;stroke-dasharray:none;stroke-opacity:1" />
    </g>
    <g
       id="g1152"
       transform="matrix(0.85,0,0,0.85,30.531242,25.432841)">
      <g
         id="g3457"
         transform="matrix(0.98094342,0,0,1,2.8740007,-5.9067913)">
        <g
           id="g3435">
          <rect
             y="184.72356"
             x="146.03526"
             height="47.259052"
             width="159.29263"
             id="rect876"
             style="fill:#e1b035;fill-opacity:1;stroke:none;stroke-width:1.03189;paint-order:stroke fill markers" />
          <path
             sodipodi:nodetypes="cccccccccc"
             id="path880"
             d="m 146.03525,184.72356 -8.24951,-45.40924 38.47298,43.94239 24.43089,-49.21986 25.54256,49.52792 26.50419,-48.93824 21.70908,48.82934 38.8097,-44.35937 -7.92726,45.62706 z"
             style="fill:#e1b035;fill-opacity:1;stroke:none;stroke-width:0.262431px;stroke-linecap:butt;stroke-linejoin:miter;stroke-opacity:1" />
        </g>
        <rect
           y="222.92979"
           x="146.03526"
           height="9.0528193"
           width="159.38446"
           id="rect893"
           style="fill:#343434;fill-opacity:1;stroke:none;stroke-width:1.12488;stroke-opacity:1;paint-order:stroke fill markers" />
        <rect
           y="218.4034"
           x="146.03526"
           height="9.0528193"
           width="159.38446"
           id="rect895"
           style="fill:#de1515;fill-opacity:1;stroke:none;stroke-width:1.12488;stroke-opacity:1;paint-order:stroke fill markers" />
        <g
           transform="matrix(1,0,0,1.12905,-0.1755572,-28.276299)"
           id="g1101">
          <path
             sodipodi:nodetypes="cccccc"
             id="path897"
             d="M 153.17907,214.46856 149,208.73957 l 5.14347,-6.91669 4.70145,7.05643 -4.05853,5.93858 z"
             style="fill:#343434;fill-opacity:1;stroke:none;stroke-width:0.296717px;stroke-linecap:butt;stroke-linejoin:miter;stroke-opacity:1" />
          <path
             style="fill:#343434;fill-opacity:1;stroke:none;stroke-width:0.296717px;stroke-linecap:butt;stroke-linejoin:miter;stroke-opacity:1"
             d="m 165.20688,214.46856 -4.17908,-5.72899 5.14348,-6.91669 4.70145,7.05643 -4.05853,5.93858 z"
             id="path918"
             sodipodi:nodetypes="cccccc" />
          <path
             sodipodi:nodetypes="cccccc"
             id="path920"
             d="m 177.23469,214.46856 -4.17908,-5.72899 5.14348,-6.91669 4.70145,7.05643 -4.05853,5.93858 z"
             style="fill:#343434;fill-opacity:1;stroke:none;stroke-width:0.296717px;stroke-linecap:butt;stroke-linejoin:miter;stroke-opacity:1" />
          <path
             style="fill:#343434;fill-opacity:1;stroke:none;stroke-width:0.296717px;stroke-linecap:butt;stroke-linejoin:miter;stroke-opacity:1"
             d="m 189.26249,214.46856 -4.17907,-5.72899 5.14347,-6.91669 4.70146,7.05643 -4.05853,5.93858 z"
             id="path922"
             sodipodi:nodetypes="cccccc" />
          <path
             sodipodi:nodetypes="cccccc"
             id="path924"
             d="m 201.2903,214.46856 -4.17907,-5.72899 5.14347,-6.91669 4.70146,7.05643 -4.05853,5.93858 z"
             style="fill:#343434;fill-opacity:1;stroke:none;stroke-width:0.296717px;stroke-linecap:butt;stroke-linejoin:miter;stroke-opacity:1" />
          <path
             style="fill:#343434;fill-opacity:1;stroke:none;stroke-width:0.296717px;stroke-linecap:butt;stroke-linejoin:miter;stroke-opacity:1"
             d="m 213.31811,214.46856 -4.17907,-5.72899 5.14347,-6.91669 4.70145,7.05643 -4.05853,5.93858 z"
             id="path926"
             sodipodi:nodetypes="cccccc" />
          <path
             sodipodi:nodetypes="cccccc"
             id="path928"
             d="m 225.34592,214.46856 -4.17908,-5.72899 5.14348,-6.91669 4.70145,7.05643 -4.05853,5.93858 z"
             style="fill:#343434;fill-opacity:1;stroke:none;stroke-width:0.296717px;stroke-linecap:butt;stroke-linejoin:miter;stroke-opacity:1" />
          <path
             style="fill:#343434;fill-opacity:1;stroke:none;stroke-width:0.296717px;stroke-linecap:butt;stroke-linejoin:miter;stroke-opacity:1"
             d="m 249.40153,214.46856 -4.17907,-5.72899 5.14347,-6.91669 4.70146,7.05643 -4.05853,5.93858 z"
             id="path930"
             sodipodi:nodetypes="cccccc" />
          <path
             sodipodi:nodetypes="cccccc"
             id="path932"
             d="m 237.37373,214.46856 -4.17908,-5.72899 5.14348,-6.91669 4.70145,7.05643 -4.05853,5.93858 z"
             style="fill:#343434;fill-opacity:1;stroke:none;stroke-width:0.296717px;stroke-linecap:butt;stroke-linejoin:miter;stroke-opacity:1" />
          <path
             sodipodi:nodetypes="cccccc"
             id="path934"
             d="m 261.42934,214.46856 -4.17907,-5.72899 5.14347,-6.91669 4.70146,7.05643 -4.05853,5.93858 z"
             style="fill:#343434;fill-opacity:1;stroke:none;stroke-width:0.296717px;stroke-linecap:butt;stroke-linejoin:miter;stroke-opacity:1" />
          <path
             style="fill:#343434;fill-opacity:1;stroke:none;stroke-width:0.296717px;stroke-linecap:butt;stroke-linejoin:miter;stroke-opacity:1"
             d="m 273.45715,214.46856 -4.17907,-5.72899 5.14347,-6.91669 4.70145,7.05643 -4.05853,5.93858 z"
             id="path936"
             sodipodi:nodetypes="cccccc" />
          <path
             sodipodi:nodetypes="cccccc"
             id="path938"
             d="m 285.48496,214.46856 -4.17908,-5.72899 5.14348,-6.91669 4.70145,7.05643 -4.05853,5.93858 z"
             style="fill:#343434;fill-opacity:1;stroke:none;stroke-width:0.296717px;stroke-linecap:butt;stroke-linejoin:miter;stroke-opacity:1" />
          <path
             style="fill:#343434;fill-opacity:1;stroke:none;stroke-width:0.296717px;stroke-linecap:butt;stroke-linejoin:miter;stroke-opacity:1"
             d="m 297.51277,214.46856 -4.17908,-5.72899 5.14348,-6.91669 4.70145,7.05643 -4.05853,5.93858 z"
             id="path940"
             sodipodi:nodetypes="cccccc" />
        </g>
        <rect
           style="fill:#343434;fill-opacity:1;stroke:none;stroke-width:1.12488;stroke-opacity:1;paint-order:stroke fill markers"
           id="rect882"
           width="159.38446"
           height="9.0528479"
           x="146.03526"
           y="213.87695" />
      </g>
    </g>
    <path
       sodipodi:nodetypes="ccscsccc"
       id="path1086"
       d="m 357.40189,252.63548 12.657,29.24894 c 0,0 -11.37879,-13.69009 -21.25207,-5.95623 -2.66475,2.08733 -6.50909,14.97113 -6.50909,14.97113 0,0 -1.29828,-26.73293 -21.38936,-13.9197 -3.34174,2.13122 -4.75666,2.18359 -4.75666,2.18359 l 12.4552,-25.58148 z"
       style="fill:#f1c600;fill-opacity:1;stroke:#000000;stroke-width:0.199645px;stroke-linecap:butt;stroke-linejoin:miter;stroke-opacity:1" />
    <ellipse
       ry="20.900476"
       rx="20.446117"
       cy="175.1227"
       cx="377.68704"
       id="ellipse996"
       style="fill:#f8e89b;fill-opacity:1;stroke:#030303;stroke-width:3.37344;stroke-miterlimit:4;stroke-dasharray:none;stroke-opacity:1;paint-order:stroke fill markers"
       transform="rotate(10)" />
    <text
       xml:space="preserve"
       style="font-style:normal;font-weight:normal;font-size:56.4444px;line-height:1.25;font-family:sans-serif;fill:#000000;fill-opacity:1;stroke:none;stroke-width:0.264583;"
       x="23.465994"
       y="82.548691"
       id="text1076"><tspan
         sodipodi:role="line"
         id="tspan1074"
         x="23.465994"
         y="82.548691"
         style="font-style:normal;font-variant:normal;font-weight:normal;font-stretch:normal;font-size:56.4444px;font-family:TechnicLite;-inkscape-font-specification:TechnicLite;fill:#000000;fill-opacity:1;stroke-width:0.264583;">K</tspan></text>
    <path
       style="fill:#f1c600;fill-opacity:1;stroke:#000000;stroke-width:0.195111px;stroke-linecap:butt;stroke-linejoin:miter;stroke-opacity:1"
       d="M 93.65679,384.02328 78.538836,356.68221 c 0,0 12.414699,12.37313 21.356271,4.11617 2.413283,-2.22851 4.973383,-15.00409 4.973383,-15.00409 0,0 3.76584,25.78744 22.23392,11.81737 3.07179,-2.32363 5.99731,-5.04562 5.99731,-5.04562 l -13.60364,28.14928 z"
       id="path1084"
       sodipodi:nodetypes="ccscsccc" />
    <ellipse
       style="fill:#f8e89b;fill-opacity:1;stroke:#030303;stroke-width:3.37344;stroke-miterlimit:4;stroke-dasharray:none;stroke-opacity:1;paint-order:stroke fill markers"
       id="path992"
       cx="105.72752"
       cy="394.80042"
       rx="20.446117"
       ry="20.900476" />
    <text
       transform="scale(-1)"
       id="text969"
       y="-533.28662"
       x="-427.89764"
       style="font-style:normal;font-weight:normal;font-size:56.4444px;line-height:1.25;font-family:sans-serif;fill:#000000;fill-opacity:1;stroke:none;stroke-width:0.264583;"
       xml:space="preserve"><tspan
         style="font-style:normal;font-variant:normal;font-weight:normal;font-stretch:normal;font-size:56.4444px;font-family:TechnicLite;-inkscape-font-specification:TechnicLite;fill:#000000;fill-opacity:1;stroke-width:0.264583;"
         y="-533.28662"
         x="-427.89764"
         id="tspan967"
         sodipodi:role="line">K</tspan></text>
    <g
       id="layer1-5"
       inkscape:label="Layer 1"
       transform="translate(17.2517,95.855434)">
      <path
         sodipodi:nodetypes="czscccc"
         id="path835"
         d="m 26.580504,0.79165146 c 0,0 -16.102139,19.01900054 -22.4567111,27.20816454 -6.3545726,8.189164 1.7279492,24.047726 20.6302561,16.641949 0.926599,-0.363033 -0.520123,5.034132 -3.910355,7.746767 l 7.387671,-0.106363 -2.197413,-8.809433 C 48.074512,31.785515 45.871837,21.466847 26.580504,0.79165146 Z"
         style="fill:#000000;fill-opacity:1;stroke:#000000;stroke-width:0.311837px;stroke-linecap:butt;stroke-linejoin:miter;stroke-opacity:1" />
      <path
         style="fill:#000000;fill-opacity:1;stroke:#000000;stroke-width:0.311837px;stroke-linecap:butt;stroke-linejoin:miter;stroke-opacity:1"
         d="m 26.580504,0.79165146 c 0,0 16.102138,19.01900054 22.456711,27.20816454 6.354572,8.189164 -1.727948,24.047726 -20.630257,16.641949 -0.926599,-0.363033 0.520123,5.034132 3.910355,7.746767 l -7.387671,-0.106363 2.197413,-8.809433 C 5.0864956,31.785515 7.2891707,21.466847 26.580504,0.79165146 Z"
         id="path841"
         sodipodi:nodetypes="czscccc" />
      <rect
         y="40.479897"
         x="25.539888"
         height="6.3976779"
         width="2.0812299"
         id="rect843"
         style="fill:#000000;fill-opacity:1;stroke:#000000;stroke-width:0.935512;stroke-linecap:round;stroke-linejoin:round;paint-order:stroke fill markers" />
    </g>
    <g
       transform="matrix(1,0,0,-1,379.66918,515.1227)"
       inkscape:label="Layer 1"
       id="g1043">
      <path
         style="fill:#000000;fill-opacity:1;stroke:#000000;stroke-width:0.311837px;stroke-linecap:butt;stroke-linejoin:miter;stroke-opacity:1"
         d="m 26.580504,0.79165146 c 0,0 -16.102139,19.01900054 -22.4567111,27.20816454 -6.3545726,8.189164 1.7279492,24.047726 20.6302561,16.641949 0.926599,-0.363033 -0.520123,5.034132 -3.910355,7.746767 l 7.387671,-0.106363 -2.197413,-8.809433 C 48.074512,31.785515 45.871837,21.466847 26.580504,0.79165146 Z"
         id="path1037"
         sodipodi:nodetypes="czscccc" />
      <path
         sodipodi:nodetypes="czscccc"
         id="path1039"
         d="m 26.580504,0.79165146 c 0,0 16.102138,19.01900054 22.456711,27.20816454 6.354572,8.189164 -1.727948,24.047726 -20.630257,16.641949 -0.926599,-0.363033 0.520123,5.034132 3.910355,7.746767 l -7.387671,-0.106363 2.197413,-8.809433 C 5.0864956,31.785515 7.2891707,21.466847 26.580504,0.79165146 Z"
         style="fill:#000000;fill-opacity:1;stroke:#000000;stroke-width:0.311837px;stroke-linecap:butt;stroke-linejoin:miter;stroke-opacity:1" />
      <rect
         style="fill:#000000;fill-opacity:1;stroke:#000000;stroke-width:0.935512;stroke-linecap:round;stroke-linejoin:round;paint-order:stroke fill markers"
         id="rect1041"
         width="2.0812299"
         height="6.3976779"
         x="25.539888"
         y="40.479897" />
    </g>
    <g
       transform="matrix(2,0,0,2,66.099267,11.428894)"
       inkscape:label="Layer 1"
       id="g1051">
      <path
         style="fill:#000000;fill-opacity:1;stroke:#000000;stroke-width:0.311837px;stroke-linecap:butt;stroke-linejoin:miter;stroke-opacity:1"
         d="m 26.580504,0.79165146 c 0,0 -16.102139,19.01900054 -22.4567111,27.20816454 -6.3545726,8.189164 1.7279492,24.047726 20.6302561,16.641949 0.926599,-0.363033 -0.520123,5.034132 -3.910355,7.746767 l 7.387671,-0.106363 -2.197413,-8.809433 C 48.074512,31.785515 45.871837,21.466847 26.580504,0.79165146 Z"
         id="path1045"
         sodipodi:nodetypes="czscccc" />
      <path
         sodipodi:nodetypes="czscccc"
         id="path1047"
         d="m 26.580504,0.79165146 c 0,0 16.102138,19.01900054 22.456711,27.20816454 6.354572,8.189164 -1.727948,24.047726 -20.630257,16.641949 -0.926599,-0.363033 0.520123,5.034132 3.910355,7.746767 l -7.387671,-0.106363 2.197413,-8.809433 C 5.0864956,31.785515 7.2891707,21.466847 26.580504,0.79165146 Z"
         style="fill:#000000;fill-opacity:1;stroke:#000000;stroke-width:0.311837px;stroke-linecap:butt;stroke-linejoin:miter;stroke-opacity:1" />
      <rect
         style="fill:#000000;fill-opacity:1;stroke:#000000;stroke-width:0.935512;stroke-linecap:round;stroke-linejoin:round;paint-order:stroke fill markers"
         id="rect1049"
         width="2.0812299"
         height="6.3976779"
         x="25.539888"
         y="40.479897" />
    </g>
    <g
       id="g1059"
       inkscape:label="Layer 1"
       transform="matrix(1.9010085,0,0,-1.8252754,284.96808,613.58424)">
      <path
         sodipodi:nodetypes="czscccc"
         id="path1053"
         d="m 26.580504,0.79165146 c 0,0 -16.102139,19.01900054 -22.4567111,27.20816454 -6.3545726,8.189164 1.7279492,24.047726 20.6302561,16.641949 0.926599,-0.363033 -0.520123,5.034132 -3.910355,7.746767 l 7.387671,-0.106363 -2.197413,-8.809433 C 48.074512,31.785515 45.871837,21.466847 26.580504,0.79165146 Z"
         style="fill:#000000;fill-opacity:1;stroke:#000000;stroke-width:0.311837px;stroke-linecap:butt;stroke-linejoin:miter;stroke-opacity:1" />
      <path
         style="fill:#000000;fill-opacity:1;stroke:#000000;stroke-width:0.311837px;stroke-linecap:butt;stroke-linejoin:miter;stroke-opacity:1"
         d="m 26.580504,0.79165146 c 0,0 16.102138,19.01900054 22.456711,27.20816454 6.354572,8.189164 -1.727948,24.047726 -20.630257,16.641949 -0.926599,-0.363033 0.520123,5.034132 3.910355,7.746767 l -7.387671,-0.106363 2.197413,-8.809433 C 5.0864956,31.785515 7.2891707,21.466847 26.580504,0.79165146 Z"
         id="path1055"
         sodipodi:nodetypes="czscccc" />
      <rect
         y="40.479897"
         x="25.539888"
         height="6.3976779"
         width="2.0812299"
         id="rect1057"
         style="fill:#000000;fill-opacity:1;stroke:#000000;stroke-width:0.935512;stroke-linecap:round;stroke-linejoin:round;paint-order:stroke fill markers" />
    </g>
  </g>
</svg>
