<?xml version="1.0" encoding="UTF-8" standalone="no"?>
<svg
   xmlns:dc="http://purl.org/dc/elements/1.1/"
   xmlns:cc="http://creativecommons.org/ns#"
   xmlns:rdf="http://www.w3.org/1999/02/22-rdf-syntax-ns#"
   xmlns:svg="http://www.w3.org/2000/svg"
   xmlns="http://www.w3.org/2000/svg"
   xmlns:sodipodi="http://sodipodi.sourceforge.net/DTD/sodipodi-0.dtd"
   xmlns:inkscape="http://www.inkscape.org/namespaces/inkscape"
   sodipodi:docname="ess.svg"
   inkscape:version="1.0 (4035a4fb49, 2020-05-01)"
   id="svg8"
   version="1.1"
   viewBox="0 0 443 624"
   height="624mm"
   width="443mm">
  <defs
     id="defs2">
    <clipPath
       clipPathUnits="userSpaceOnUse"
       id="clipEmfPath1">
      <path
         d="M 0,0 H 264.09071 V 373.01291 H 0 Z"
         id="path833" />
    </clipPath>
    <pattern
       id="EMFhbasepattern"
       patternUnits="userSpaceOnUse"
       width="6"
       height="6"
       x="0"
       y="0" />
  </defs>
  <sodipodi:namedview
     inkscape:window-maximized="1"
     inkscape:window-y="35"
     inkscape:window-x="-11"
     inkscape:window-height="1000"
     inkscape:window-width="1920"
     showgrid="false"
     inkscape:document-rotation="0"
     inkscape:current-layer="layer1"
     inkscape:document-units="mm"
     inkscape:cy="912.87432"
     inkscape:cx="189.65828"
     inkscape:zoom="0.24748737"
     inkscape:pageshadow="2"
     inkscape:pageopacity="0.0"
     borderopacity="1.0"
     bordercolor="#666666"
     pagecolor="#ffffff"
     id="base">
    <inkscape:grid
       type="xygrid"
       id="grid1906" />
  </sodipodi:namedview>
  <metadata
     id="metadata5">
    <rdf:RDF>
      <cc:Work
         rdf:about="">
        <dc:format>image/svg+xml</dc:format>
        <dc:type
           rdf:resource="http://purl.org/dc/dcmitype/StillImage" />
        <dc:title />
      </cc:Work>
    </rdf:RDF>
  </metadata>
  <g
     id="layer1"
     inkscape:groupmode="layer"
     inkscape:label="Layer 1">
    <text
       xml:space="preserve"
       style="font-style:normal;font-weight:normal;font-size:27.5656px;line-height:1.25;font-family:sans-serif;fill:#000000;fill-opacity:1;stroke:none;stroke-width:0.861423"
       x="26.895372"
       y="60.379772"
       id="text874"><tspan
         sodipodi:role="line"
         x="26.895372"
         y="60.379772"
         style="font-style:normal;font-variant:normal;font-weight:normal;font-stretch:normal;font-size:27.5656px;font-family:Cabin;-inkscape-font-specification:Cabin;stroke-width:0.861423"
         id="tspan884" /></text>
    <text
       id="text1076"
       y="82.548691"
       x="23.465994"
       style="font-style:normal;font-weight:normal;font-size:56.4444px;line-height:1.25;font-family:sans-serif;fill:#000000;fill-opacity:1;stroke:none;stroke-width:0.264583"
       xml:space="preserve"><tspan
         style="font-style:normal;font-variant:normal;font-weight:normal;font-stretch:normal;font-size:56.4444px;font-family:TechnicLite;-inkscape-font-specification:TechnicLite;fill:#000000;fill-opacity:1;stroke-width:0.264583"
         y="82.548691"
         x="23.465994"
         id="tspan1074"
         sodipodi:role="line">A</tspan></text>
    <text
       xml:space="preserve"
       style="font-style:normal;font-weight:normal;font-size:56.4444px;line-height:1.25;font-family:sans-serif;fill:#000000;fill-opacity:1;stroke:none;stroke-width:0.264583"
       x="-416.69791"
       y="-532.62524"
       id="text969"
       transform="scale(-1)"><tspan
         sodipodi:role="line"
         id="tspan967"
         x="-416.69791"
         y="-532.62524"
         style="font-style:normal;font-variant:normal;font-weight:normal;font-stretch:normal;font-size:56.4444px;font-family:TechnicLite;-inkscape-font-specification:TechnicLite;fill:#000000;fill-opacity:1;stroke-width:0.264583">A</tspan></text>
    <g
       transform="translate(17.2517,95.855434)"
       inkscape:label="Layer 1"
       id="layer1-5">
      <path
         style="fill:#000000;fill-opacity:1;stroke:#000000;stroke-width:0.311837px;stroke-linecap:butt;stroke-linejoin:miter;stroke-opacity:1"
         d="m 26.580504,0.79165146 c 0,0 -16.102139,19.01900054 -22.4567111,27.20816454 -6.3545726,8.189164 1.7279492,24.047726 20.6302561,16.641949 0.926599,-0.363033 -0.520123,5.034132 -3.910355,7.746767 l 7.387671,-0.106363 -2.197413,-8.809433 C 48.074512,31.785515 45.871837,21.466847 26.580504,0.79165146 Z"
         id="path835"
         sodipodi:nodetypes="czscccc" />
      <path
         sodipodi:nodetypes="czscccc"
         id="path841"
         d="m 26.580504,0.79165146 c 0,0 16.102138,19.01900054 22.456711,27.20816454 6.354572,8.189164 -1.727948,24.047726 -20.630257,16.641949 -0.926599,-0.363033 0.520123,5.034132 3.910355,7.746767 l -7.387671,-0.106363 2.197413,-8.809433 C 5.0864956,31.785515 7.2891707,21.466847 26.580504,0.79165146 Z"
         style="fill:#000000;fill-opacity:1;stroke:#000000;stroke-width:0.311837px;stroke-linecap:butt;stroke-linejoin:miter;stroke-opacity:1" />
      <rect
         style="fill:#000000;fill-opacity:1;stroke:#000000;stroke-width:0.935512;stroke-linecap:round;stroke-linejoin:round;paint-order:stroke fill markers"
         id="rect843"
         width="2.0812299"
         height="6.3976779"
         x="25.539888"
         y="40.479897" />
    </g>
    <g
       id="g1043"
       inkscape:label="Layer 1"
       transform="matrix(1,0,0,-1,370.2945,514.08332)">
      <path
         sodipodi:nodetypes="czscccc"
         id="path1037"
         d="m 26.580504,0.79165146 c 0,0 -16.102139,19.01900054 -22.4567111,27.20816454 -6.3545726,8.189164 1.7279492,24.047726 20.6302561,16.641949 0.926599,-0.363033 -0.520123,5.034132 -3.910355,7.746767 l 7.387671,-0.106363 -2.197413,-8.809433 C 48.074512,31.785515 45.871837,21.466847 26.580504,0.79165146 Z"
         style="fill:#000000;fill-opacity:1;stroke:#000000;stroke-width:0.311837px;stroke-linecap:butt;stroke-linejoin:miter;stroke-opacity:1" />
      <path
         style="fill:#000000;fill-opacity:1;stroke:#000000;stroke-width:0.311837px;stroke-linecap:butt;stroke-linejoin:miter;stroke-opacity:1"
         d="m 26.580504,0.79165146 c 0,0 16.102138,19.01900054 22.456711,27.20816454 6.354572,8.189164 -1.727948,24.047726 -20.630257,16.641949 -0.926599,-0.363033 0.520123,5.034132 3.910355,7.746767 l -7.387671,-0.106363 2.197413,-8.809433 C 5.0864956,31.785515 7.2891707,21.466847 26.580504,0.79165146 Z"
         id="path1039"
         sodipodi:nodetypes="czscccc" />
      <rect
         y="40.479897"
         x="25.539888"
         height="6.3976779"
         width="2.0812299"
         id="rect1041"
         style="fill:#000000;fill-opacity:1;stroke:#000000;stroke-width:0.935512;stroke-linecap:round;stroke-linejoin:round;paint-order:stroke fill markers" />
    </g>
    <g
       style="fill:none;stroke-width:1.94541;stroke-miterlimit:4;stroke-dasharray:none"
       id="g1051"
       inkscape:label="Layer 1"
       transform="matrix(4.8390539,0,0,4.892733,93.70961,171.5675)">
      <path
         sodipodi:nodetypes="czscccc"
         id="path1045"
         d="m 26.580504,0.79165146 c 0,0 -16.102139,19.01900054 -22.4567111,27.20816454 -6.3545726,8.189164 1.7279492,24.047726 20.6302561,16.641949 0.926599,-0.363033 -0.520123,5.034132 -3.910355,7.746767 l 7.387671,-0.106363 -2.197413,-8.809433 c 22.9795,-8.518924 19.837885,-22.005889 0.546552,-42.68108454 z"
         style="fill:none;fill-opacity:1;stroke:#000000;stroke-width:1.94541;stroke-linecap:butt;stroke-linejoin:miter;stroke-miterlimit:4;stroke-dasharray:none;stroke-opacity:1" />
      <path
         style="fill:none;fill-opacity:1;stroke:#000000;stroke-width:1.94541;stroke-linecap:butt;stroke-linejoin:miter;stroke-miterlimit:4;stroke-dasharray:none;stroke-opacity:1"
         d="m 26.580504,0.79165146 c 0,0 16.102138,19.01900054 22.456711,27.20816454 6.354572,8.189164 -1.727948,24.047726 -20.630257,16.641949 -0.926599,-0.363033 0.520123,5.034132 3.910355,7.746767 l -7.387671,-0.106363 2.197413,-8.809433 C 5.6388133,37.848981 7.2891707,21.466847 26.580504,0.79165146 Z"
         id="path1047"
         sodipodi:nodetypes="czscccc" />
      <rect
         y="40.479897"
         x="25.539888"
         height="6.3976779"
         width="2.0812299"
         id="rect1049"
         style="fill:none;fill-opacity:1;stroke:#000000;stroke-width:1.94541;stroke-linecap:round;stroke-linejoin:round;stroke-miterlimit:4;stroke-dasharray:none;paint-order:stroke fill markers" />
    </g>
    <path
       sodipodi:nodetypes="cccccc"
       id="path856"
       d="m 207.52594,363.88529 4.32282,7.5366 10.56336,6.18027 9.92858,-5.92643 4.28941,-6.46752 z"
       style="fill:#ffffff;fill-opacity:1;stroke:none;stroke-width:0.264583px;stroke-linecap:butt;stroke-linejoin:miter;stroke-opacity:1" />
    <path
       sodipodi:nodetypes="cscsc"
       id="path858"
       d="m 206.20302,423.41654 c 0,0 17.84277,-0.43437 32.45486,-0.43431 0.79375,0 -16.57986,-32.63861 -16.57986,-32.63861 0,0 -10.06356,18.14049 -16.67681,32.87247 -0.0953,0.21227 0.80181,0.20045 0.80181,0.20045 z"
       style="fill:#ffffff;fill-opacity:1;stroke:#000000;stroke-width:0.264583px;stroke-linecap:butt;stroke-linejoin:miter;stroke-opacity:1" />
    <path
       sodipodi:nodetypes="cc"
       id="path860"
       d="m 225.64834,383.04432 c 0,0 -87.02438,-61.42253 -2.6448,-208.82715"
       style="fill:none;stroke:#000000;stroke-width:9.466;stroke-linecap:butt;stroke-linejoin:miter;stroke-miterlimit:4;stroke-dasharray:none;stroke-opacity:1" />
    <path
       style="fill:none;stroke:#000000;stroke-width:9.466;stroke-linecap:butt;stroke-linejoin:miter;stroke-miterlimit:4;stroke-dasharray:none;stroke-opacity:1"
       d="m 219.68931,384.26799 c 0,0 87.02438,-61.42253 2.6448,-208.82715"
       id="path862"
       sodipodi:nodetypes="cc" />
    <path
       sodipodi:nodetypes="cc"
       id="path864"
       d="m 224.97889,384.26799 c 0,0 -139.538474,21.5341 -88.75727,-104.61712"
       style="fill:none;stroke:#000000;stroke-width:9.466;stroke-linecap:butt;stroke-linejoin:miter;stroke-miterlimit:4;stroke-dasharray:none;stroke-opacity:1" />
    <path
       id="path870"
       d="m 222.25,222.25 c 0,0 -34.47777,55.59207 0,121.60762 0,0 37.15046,-54.52297 0,-121.60762 z"
       style="fill:#000000;fill-opacity:1;stroke:#000000;stroke-width:0.265;stroke-linecap:butt;stroke-linejoin:miter;stroke-miterlimit:4;stroke-dasharray:none;stroke-opacity:1" />
    <path
       style="fill:none;stroke:#000000;stroke-width:9.466;stroke-linecap:butt;stroke-linejoin:miter;stroke-miterlimit:4;stroke-dasharray:none;stroke-opacity:1"
       d="m 219.68931,384.26799 c 0,0 137.03184,13.71171 92.6651,-100.14511"
       id="path872"
       sodipodi:nodetypes="cc" />
    <text
       id="text876"
       y="479.89786"
       x="222.42661"
       style="font-style:normal;font-weight:normal;font-size:35.2778px;line-height:1.25;font-family:sans-serif;fill:#000000;fill-opacity:1;stroke:none;stroke-width:0.264583"
       xml:space="preserve"><tspan
         style="font-weight:bold;font-size:35.2778px;text-align:center;text-anchor:middle;stroke-width:0.264583"
         y="479.89786"
         x="222.42661"
         id="tspan874"
         sodipodi:role="line">KNÅKER</tspan><tspan
         id="tspan878"
         style="font-weight:bold;font-size:35.2778px;text-align:center;text-anchor:middle;stroke-width:0.264583"
         y="523.99506"
         x="222.42661"
         sodipodi:role="line">KORTLEK</tspan></text>
  </g>
</svg>
