<?xml version="1.0" encoding="UTF-8" standalone="no"?>
<svg
   xmlns:dc="http://purl.org/dc/elements/1.1/"
   xmlns:cc="http://creativecommons.org/ns#"
   xmlns:rdf="http://www.w3.org/1999/02/22-rdf-syntax-ns#"
   xmlns:svg="http://www.w3.org/2000/svg"
   xmlns="http://www.w3.org/2000/svg"
   xmlns:sodipodi="http://sodipodi.sourceforge.net/DTD/sodipodi-0.dtd"
   xmlns:inkscape="http://www.inkscape.org/namespaces/inkscape"
   inkscape:version="1.0 (4035a4fb49, 2020-05-01)"
   inkscape:export-ydpi="96"
   inkscape:export-xdpi="96"
   inkscape:export-filename="C:\Projects\Godot\knaker-online\imgs\card laying down.png"
   height="235"
   width="300"
   sodipodi:docname="card laying down.svg"
   id="svg101"
   stroke-miterlimit="10"
   stroke-linecap="square"
   stroke="none"
   fill="none"
   viewBox="0 0 300 235"
   version="1.1">
  <metadata
     id="metadata107">
    <rdf:RDF>
      <cc:Work
         rdf:about="">
        <dc:format>image/svg+xml</dc:format>
        <dc:type
           rdf:resource="http://purl.org/dc/dcmitype/StillImage" />
        <dc:title></dc:title>
      </cc:Work>
    </rdf:RDF>
  </metadata>
  <defs
     id="defs105" />
  <sodipodi:namedview
     inkscape:current-layer="svg101"
     inkscape:window-maximized="1"
     inkscape:window-y="35"
     inkscape:window-x="-11"
     inkscape:cy="239.52773"
     inkscape:cx="526.03041"
     inkscape:zoom="1"
     showgrid="false"
     id="namedview103"
     inkscape:window-height="1000"
     inkscape:window-width="1920"
     inkscape:pageshadow="2"
     inkscape:pageopacity="0"
     guidetolerance="10"
     gridtolerance="10"
     objecttolerance="10"
     borderopacity="1"
     bordercolor="#666666"
     pagecolor="#ffffff" />
  <clipPath
     id="p.0">
    <path
       id="path2"
       clip-rule="nonzero"
       d="M 0,0 H 720 V 540 H 0 Z" />
  </clipPath>
  <g
     transform="matrix(0.47294463,0.30543945,-0.47054093,0.40106553,81.04889,-62.80855)"
     id="g99"
     clip-path="url(#p.0)">
    <path
       id="path5"
       fill-rule="evenodd"
       d="M 0,0 H 720 V 540 H 0 Z"
       fill-opacity="0"
       fill="#000000" />
    <path
       id="path7"
       fill-rule="evenodd"
       d="M 211.1798,13.073491 H 468.5971 V 376.09711 H 211.1798 Z"
       fill="#ffffff" />
    <path
       id="path9"
       fill-rule="evenodd"
       d="M 211.1798,13.073491 H 468.5971 V 376.09711 H 211.1798 Z"
       stroke-linecap="butt"
       stroke-linejoin="round"
       stroke-width="1"
       stroke="#000000" />
    <path
       id="path11"
       fill-rule="evenodd"
       d="m 301.41995,192.49869 h 74.83466 v 130.29922 h -74.83466 z"
       fill="#cc0000" />
    <path
       id="path13"
       fill-rule="evenodd"
       d="m 301.41995,192.49869 h 74.83466 v 130.29922 h -74.83466 z"
       stroke-linecap="butt"
       stroke-linejoin="round"
       stroke-width="1"
       stroke="#980000" />
    <path
       id="path15"
       fill-rule="evenodd"
       d="m 377.92242,177.21419 9.03937,33.18111 -34.36221,1.24409 z"
       fill="#38761d" />
    <path
       id="path17"
       fill-rule="evenodd"
       d="m 377.92242,177.21419 9.03937,33.18111 -34.36221,1.24409 z"
       stroke-linecap="butt"
       stroke-linejoin="round"
       stroke-width="1"
       stroke="#38761d" />
    <path
       id="path19"
       fill-rule="evenodd"
       d="M 360.20718,203.36263 338.83712,230.3705 317.46704,203.39412 Z"
       fill="#38761d" />
    <path
       id="path21"
       fill-rule="evenodd"
       d="M 360.20718,203.36263 338.83712,230.3705 317.46704,203.39412 Z"
       stroke-linecap="butt"
       stroke-linejoin="round"
       stroke-width="1"
       stroke="#38761d" />
    <path
       id="path23"
       fill-rule="evenodd"
       d="m 325.42764,214.2601 -34.39368,-0.99213 8.81888,-33.24409 z"
       fill="#38761d" />
    <path
       id="path25"
       fill-rule="evenodd"
       d="m 325.42764,214.2601 -34.39368,-0.99213 8.81888,-33.24409 z"
       stroke-linecap="butt"
       stroke-linejoin="round"
       stroke-width="1"
       stroke="#38761d" />
    <path
       id="path27"
       fill-rule="evenodd"
       d="M 296.78098,144.5933 267.99356,91.553932 335.67862,123.49094 Z"
       fill="#cc0000" />
    <path
       id="path29"
       fill-rule="evenodd"
       d="M 296.78098,144.5933 267.99356,91.553932 335.67862,123.49094 Z"
       stroke-linecap="butt"
       stroke-linejoin="round"
       stroke-width="1"
       stroke="#cc0000" />
    <path
       id="path31"
       fill-rule="evenodd"
       d="m 331.65488,120.43202 13.22833,-58.866142 18.14173,65.921262 z"
       fill="#cc0000" />
    <path
       id="path33"
       fill-rule="evenodd"
       d="m 331.65488,120.43202 13.22833,-58.866142 18.14173,65.921262 z"
       stroke-linecap="butt"
       stroke-linejoin="round"
       stroke-width="1"
       stroke="#cc0000" />
    <path
       id="path35"
       fill-rule="evenodd"
       d="m 360.00128,133.2008 49.03937,-35.1811 -23.24408,71.11811 z"
       fill="#cc0000" />
    <path
       id="path37"
       fill-rule="evenodd"
       d="m 360.00128,133.2008 49.03937,-35.1811 -23.24408,71.11811 z"
       stroke-linecap="butt"
       stroke-linejoin="round"
       stroke-width="1"
       stroke="#cc0000" />
    <path
       id="path39"
       fill-rule="evenodd"
       d="m 292.6273,165.4252 v 0 c 0,-24.718 21.15897,-44.75591 47.25986,-44.75591 v 0 c 12.53408,0 24.55481,4.71534 33.41775,13.10871 8.86295,8.39335 13.84207,19.77719 13.84207,31.6472 v 0 c 0,24.718 -21.15893,44.7559 -47.25982,44.7559 v 0 c -26.10089,0 -47.25986,-20.0379 -47.25986,-44.7559 z"
       fill="#cc0000" />
    <path
       id="path41"
       fill-rule="evenodd"
       d="m 292.6273,165.4252 v 0 c 0,-24.718 21.15897,-44.75591 47.25986,-44.75591 v 0 c 12.53408,0 24.55481,4.71534 33.41775,13.10871 8.86295,8.39335 13.84207,19.77719 13.84207,31.6472 v 0 c 0,24.718 -21.15893,44.7559 -47.25982,44.7559 v 0 c -26.10089,0 -47.25986,-20.0379 -47.25986,-44.7559 z"
       stroke-linecap="butt"
       stroke-linejoin="round"
       stroke-width="1"
       stroke="#000000" />
    <path
       id="path43"
       fill-rule="evenodd"
       d="m 302.46982,165.4252 v 0 c 0,-19.63873 16.75232,-35.55907 37.41733,-35.55907 v 0 c 9.92367,0 19.44092,3.7464 26.45804,10.41501 7.01712,6.66863 10.95929,15.71321 10.95929,25.14406 v 0 c 0,19.63872 -16.75232,35.55905 -37.41733,35.55905 v 0 c -20.66501,0 -37.41733,-15.92033 -37.41733,-35.55905 z"
       fill="#ffe599" />
    <path
       id="path45"
       fill-rule="evenodd"
       d="m 302.46982,165.4252 v 0 c 0,-19.63873 16.75232,-35.55907 37.41733,-35.55907 v 0 c 9.92367,0 19.44092,3.7464 26.45804,10.41501 7.01712,6.66863 10.95929,15.71321 10.95929,25.14406 v 0 c 0,19.63872 -16.75232,35.55905 -37.41733,35.55905 v 0 c -20.66501,0 -37.41733,-15.92033 -37.41733,-35.55905 z"
       stroke-linecap="butt"
       stroke-linejoin="round"
       stroke-width="1"
       stroke="#000000" />
    <path
       id="path47"
       fill-rule="evenodd"
       d="m 318.77167,152.3517 v 0 c 0,-5.27931 3.78616,-9.55905 8.45666,-9.55905 v 0 c 2.24286,0 4.39386,1.00711 5.9798,2.79979 1.58594,1.79266 2.4769,4.22404 2.4769,6.75926 v 0 c 0,5.27933 -3.78619,9.55907 -8.4567,9.55907 v 0 c -4.6705,0 -8.45666,-4.27974 -8.45666,-9.55907 z"
       fill="#000000" />
    <path
       id="path49"
       fill-rule="evenodd"
       d="m 318.77167,152.3517 v 0 c 0,-5.27931 3.78616,-9.55905 8.45666,-9.55905 v 0 c 2.24286,0 4.39386,1.00711 5.9798,2.79979 1.58594,1.79266 2.4769,4.22404 2.4769,6.75926 v 0 c 0,5.27933 -3.78619,9.55907 -8.4567,9.55907 v 0 c -4.6705,0 -8.45666,-4.27974 -8.45666,-9.55907 z"
       stroke-linecap="butt"
       stroke-linejoin="round"
       stroke-width="1"
       stroke="#000000" />
    <path
       id="path51"
       fill-rule="evenodd"
       d="m 345.4987,152.3517 v 0 c 0,-5.27931 3.78619,-9.55905 8.4567,-9.55905 v 0 c 2.24286,0 4.39386,1.00711 5.97979,2.79979 1.58594,1.79266 2.4769,4.22404 2.4769,6.75926 v 0 c 0,5.27933 -3.78619,9.55907 -8.45669,9.55907 v 0 c -4.67051,0 -8.4567,-4.27974 -8.4567,-9.55907 z"
       fill="#000000" />
    <path
       id="path53"
       fill-rule="evenodd"
       d="m 345.4987,152.3517 v 0 c 0,-5.27931 3.78619,-9.55905 8.4567,-9.55905 v 0 c 2.24286,0 4.39386,1.00711 5.97979,2.79979 1.58594,1.79266 2.4769,4.22404 2.4769,6.75926 v 0 c 0,5.27933 -3.78619,9.55907 -8.45669,9.55907 v 0 c -4.67051,0 -8.4567,-4.27974 -8.4567,-9.55907 z"
       stroke-linecap="butt"
       stroke-linejoin="round"
       stroke-width="1"
       stroke="#000000" />
    <path
       id="path55"
       fill-rule="evenodd"
       d="m 323.2953,169.13911 c 2.68152,2.68153 10.55859,15.92169 16.08923,16.08923 5.53061,0.16754 14.24539,-12.56999 17.09448,-15.08398"
       fill-opacity="0"
       fill="#000000" />
    <path
       id="path57"
       fill-rule="evenodd"
       d="m 323.2953,169.13911 c 2.68152,2.68153 10.55859,15.92169 16.08923,16.08923 5.53061,0.16754 14.24539,-12.56999 17.09448,-15.08398"
       stroke-linecap="butt"
       stroke-linejoin="round"
       stroke-width="1"
       stroke="#000000" />
    <path
       id="path59"
       fill-rule="evenodd"
       d="m 259.44357,94.52756 v 0 c 0,-4.453064 3.78619,-8.062988 8.4567,-8.062988 v 0 c 2.24286,0 4.39383,0.849487 5.97976,2.361595 1.58594,1.5121 2.47693,3.562958 2.47693,5.701393 v 0 c 0,4.453072 -3.78619,8.063 -8.45669,8.063 v 0 c -4.67051,0 -8.4567,-3.609928 -8.4567,-8.063 z"
       fill="#6aa84f" />
    <path
       id="path61"
       fill-rule="evenodd"
       d="m 259.44357,94.52756 v 0 c 0,-4.453064 3.78619,-8.062988 8.4567,-8.062988 v 0 c 2.24286,0 4.39383,0.849487 5.97976,2.361595 1.58594,1.5121 2.47693,3.562958 2.47693,5.701393 v 0 c 0,4.453072 -3.78619,8.063 -8.45669,8.063 v 0 c -4.67051,0 -8.4567,-3.609928 -8.4567,-8.063 z"
       stroke-linecap="butt"
       stroke-linejoin="round"
       stroke-width="1"
       stroke="#000000" />
    <path
       id="path63"
       fill-rule="evenodd"
       d="m 335.68503,62.38845 v 0 c 0,-4.453068 3.78619,-8.062992 8.4567,-8.062992 v 0 c 2.24286,0 4.39386,0.849491 5.97979,2.361595 1.58594,1.512104 2.4769,3.562958 2.4769,5.701397 v 0 c 0,4.453072 -3.78619,8.062996 -8.45669,8.062996 v 0 c -4.67051,0 -8.4567,-3.609924 -8.4567,-8.062996 z"
       fill="#ffff00" />
    <path
       id="path65"
       fill-rule="evenodd"
       d="m 335.68503,62.38845 v 0 c 0,-4.453068 3.78619,-8.062992 8.4567,-8.062992 v 0 c 2.24286,0 4.39386,0.849491 5.97979,2.361595 1.58594,1.512104 2.4769,3.562958 2.4769,5.701397 v 0 c 0,4.453072 -3.78619,8.062996 -8.45669,8.062996 v 0 c -4.67051,0 -8.4567,-3.609924 -8.4567,-8.062996 z"
       stroke-linecap="butt"
       stroke-linejoin="round"
       stroke-width="1"
       stroke="#000000" />
    <path
       id="path67"
       fill-rule="evenodd"
       d="m 397.94226,99.50656 v 0 c 0,-4.453064 3.78619,-8.062988 8.4567,-8.062988 v 0 c 2.24285,0 4.39383,0.849487 5.97976,2.361595 1.58594,1.5121 2.47693,3.562958 2.47693,5.701393 v 0 c 0,4.45307 -3.78619,8.063 -8.45669,8.063 v 0 c -4.67051,0 -8.4567,-3.60993 -8.4567,-8.063 z"
       fill="#6fa8dc" />
    <path
       id="path69"
       fill-rule="evenodd"
       d="m 397.94226,99.50656 v 0 c 0,-4.453064 3.78619,-8.062988 8.4567,-8.062988 v 0 c 2.24285,0 4.39383,0.849487 5.97976,2.361595 1.58594,1.5121 2.47693,3.562958 2.47693,5.701393 v 0 c 0,4.45307 -3.78619,8.063 -8.45669,8.063 v 0 c -4.67051,0 -8.4567,-3.60993 -8.4567,-8.063 z"
       stroke-linecap="butt"
       stroke-linejoin="round"
       stroke-width="1"
       stroke="#000000" />
    <path
       id="path71"
       fill-rule="evenodd"
       d="m 220.2231,29.16273 h 33.19685 v 139.9685 H 220.2231 Z"
       fill-opacity="0"
       fill="#000000" />
    <path
       id="path73"
       fill-rule="nonzero"
       d="M 230.39497,53.52273 V 42.069605 h 1.51562 v 5.671875 l 5.6875,-5.671875 h 2.0625 l -4.8125,4.640625 5.01563,6.8125 h -2 l -4.07813,-5.796875 -1.875,1.828125 v 3.96875 z"
       fill="#000000" />
    <path
       id="path75"
       fill-rule="nonzero"
       d="M 230.44185,72.52273 V 61.069609 h 1.5625 l 6.01562,8.984371 v -8.984371 h 1.45313 V 72.52273 h -1.5625 l -6.01563,-8.999996 v 8.999996 z"
       fill="#000000" />
    <path
       id="path77"
       fill-rule="nonzero"
       d="m 229.19185,91.52273 4.40625,-11.453125 h 1.64062 l 4.6875,11.453125 h -1.73437 l -1.32813,-3.46875 h -4.79687 l -1.25,3.46875 z m 3.3125,-4.703125 h 3.89062 l -1.20312,-3.171875 q -0.54688,-1.453125 -0.8125,-2.375 -0.21875,1.09375 -0.60938,2.1875 z m 0.98437,-7.75 q 0,-0.578125 0.42188,-0.984375 0.42187,-0.421875 0.98437,-0.421875 0.57813,0 0.98438,0.421875 0.42187,0.421875 0.42187,1.015625 0,0.59375 -0.42187,1.015625 -0.40625,0.40625 -0.96875,0.40625 -0.59375,0 -1.01563,-0.40625 -0.40625,-0.421875 -0.40625,-1.046875 z m 0.59375,0 q 0,0.375 0.25,0.625 0.25,0.25 0.57813,0.25 0.34375,0 0.57812,-0.25 0.25,-0.25 0.25,-0.609375 0,-0.34375 -0.25,-0.59375 -0.23437,-0.25 -0.57812,-0.25 -0.32813,0 -0.57813,0.25 -0.25,0.234375 -0.25,0.578125 z"
       fill="#000000" />
    <path
       id="path79"
       fill-rule="nonzero"
       d="M 230.39497,110.52273 V 99.069605 h 1.51562 v 5.671875 l 5.6875,-5.671875 h 2.0625 l -4.8125,4.640625 5.01563,6.8125 h -2 l -4.07813,-5.79688 -1.875,1.82813 v 3.96875 z"
       fill="#000000" />
    <path
       id="path81"
       fill-rule="nonzero"
       d="m 230.48872,129.52274 v -11.45313 h 8.28125 v 1.34375 h -6.76563 v 3.51562 h 6.34375 v 1.34375 h -6.34375 v 3.89063 h 7.03125 v 1.35938 z"
       fill="#000000" />
    <path
       id="path83"
       fill-rule="nonzero"
       d="m 230.48872,148.52274 v -11.45313 h 5.07812 q 1.53125,0 2.32813,0.3125 0.79687,0.29688 1.26562,1.07813 0.48438,0.78125 0.48438,1.73437 0,1.21875 -0.79688,2.0625 -0.78125,0.82813 -2.4375,1.04688 0.60938,0.29687 0.92188,0.57812 0.65625,0.60938 1.25,1.51563 l 2,3.125 h -1.90625 l -1.51563,-2.39063 q -0.67187,-1.03125 -1.10937,-1.57812 -0.42188,-0.54688 -0.76563,-0.76563 -0.32812,-0.21875 -0.6875,-0.29687 -0.25,-0.0625 -0.84375,-0.0625 h -1.75 v 5.09375 z m 1.51562,-6.40625 h 3.25 q 1.04688,0 1.625,-0.20313 0.59375,-0.21875 0.89063,-0.6875 0.3125,-0.48437 0.3125,-1.03125 0,-0.8125 -0.59375,-1.32812 -0.59375,-0.53125 -1.85938,-0.53125 h -3.625 z"
       fill="#000000" />
    <path
       id="path85"
       fill-rule="evenodd"
       d="m 430.30185,228.1811 h 33.19684 v 139.96849 h -33.19684 z"
       fill-opacity="0"
       fill="#000000" />
    <path
       id="path87"
       fill-rule="nonzero"
       d="m 440.47372,252.5411 v -11.45313 h 1.51563 v 5.67188 l 5.6875,-5.67188 h 2.0625 l -4.8125,4.64063 5.01562,6.8125 h -2 l -4.07812,-5.79688 -1.875,1.82813 v 3.96875 z"
       fill="#000000" />
    <path
       id="path89"
       fill-rule="nonzero"
       d="m 440.5206,271.5411 v -11.45313 h 1.5625 l 6.01562,8.98438 v -8.98438 h 1.45313 v 11.45313 h -1.5625 l -6.01563,-9 v 9 z"
       fill="#000000" />
    <path
       id="path91"
       fill-rule="nonzero"
       d="m 439.2706,290.5411 4.40625,-11.45313 h 1.64062 l 4.6875,11.45313 h -1.73437 l -1.32813,-3.46875 h -4.79687 l -1.25,3.46875 z m 3.3125,-4.70313 h 3.89062 l -1.20312,-3.17187 q -0.54688,-1.45313 -0.8125,-2.375 -0.21875,1.09375 -0.60938,2.1875 z m 0.98437,-7.75 q 0,-0.57812 0.42188,-0.98437 0.42187,-0.42188 0.98437,-0.42188 0.57813,0 0.98438,0.42188 0.42187,0.42187 0.42187,1.01562 0,0.59375 -0.42187,1.01563 -0.40625,0.40625 -0.96875,0.40625 -0.59375,0 -1.01563,-0.40625 -0.40625,-0.42188 -0.40625,-1.04688 z m 0.59375,0 q 0,0.375 0.25,0.625 0.25,0.25 0.57813,0.25 0.34375,0 0.57812,-0.25 0.25,-0.25 0.25,-0.60937 0,-0.34375 -0.25,-0.59375 -0.23437,-0.25 -0.57812,-0.25 -0.32813,0 -0.57813,0.25 -0.25,0.23437 -0.25,0.57812 z"
       fill="#000000" />
    <path
       id="path93"
       fill-rule="nonzero"
       d="m 440.47372,309.5411 v -11.45313 h 1.51563 v 5.67188 l 5.6875,-5.67188 h 2.0625 l -4.8125,4.64063 5.01562,6.8125 h -2 l -4.07812,-5.79688 -1.875,1.82813 v 3.96875 z"
       fill="#000000" />
    <path
       id="path95"
       fill-rule="nonzero"
       d="m 440.56747,328.5411 v -11.45313 h 8.28125 v 1.34375 h -6.76562 v 3.51563 h 6.34375 v 1.34375 h -6.34375 v 3.89062 h 7.03125 v 1.35938 z"
       fill="#000000" />
    <path
       id="path97"
       fill-rule="nonzero"
       d="m 440.56747,347.5411 v -11.45313 h 5.07813 q 1.53125,0 2.32812,0.3125 0.79688,0.29688 1.26563,1.07813 0.48437,0.78125 0.48437,1.73437 0,1.21875 -0.79687,2.0625 -0.78125,0.82813 -2.4375,1.04688 0.60937,0.29687 0.92187,0.57812 0.65625,0.60938 1.25,1.51563 l 2,3.125 h -1.90625 l -1.51562,-2.39063 q -0.67188,-1.03125 -1.10938,-1.57812 -0.42187,-0.54688 -0.76562,-0.76563 -0.32813,-0.21875 -0.6875,-0.29687 -0.25,-0.0625 -0.84375,-0.0625 h -1.75 v 5.09375 z m 1.51563,-6.40625 h 3.25 q 1.04687,0 1.625,-0.20313 0.59375,-0.21875 0.89062,-0.6875 0.3125,-0.48437 0.3125,-1.03125 0,-0.8125 -0.59375,-1.32812 -0.59375,-0.53125 -1.85937,-0.53125 h -3.625 z"
       fill="#000000" />
  </g>
</svg>
