<?xml version="1.0" encoding="UTF-8" standalone="no"?>
<svg
   inkscape:export-ydpi="96"
   inkscape:export-xdpi="96"
   inkscape:export-filename="C:\Projects\Godot\escm-weather-monitor\imgs\splash.png"
   sodipodi:docname="cog.svg"
   id="svg8"
   version="1.1"
   viewBox="0 0 26.458333 26.458334"
   height="100"
   width="100"
   xmlns:inkscape="http://www.inkscape.org/namespaces/inkscape"
   xmlns:sodipodi="http://sodipodi.sourceforge.net/DTD/sodipodi-0.dtd"
   xmlns="http://www.w3.org/2000/svg"
   xmlns:svg="http://www.w3.org/2000/svg"
   xmlns:rdf="http://www.w3.org/1999/02/22-rdf-syntax-ns#"
   xmlns:cc="http://creativecommons.org/ns#"
   xmlns:dc="http://purl.org/dc/elements/1.1/">
  <defs
     id="defs2" />
  <sodipodi:namedview
     inkscape:window-maximized="0"
     inkscape:window-y="0"
     inkscape:window-x="38"
     inkscape:window-height="1024"
     inkscape:window-width="1661"
     units="px"
     showgrid="false"
     inkscape:document-rotation="0"
     inkscape:current-layer="layer1"
     inkscape:document-units="mm"
     inkscape:cy="24.25"
     inkscape:cx="19.75"
     inkscape:zoom="4"
     inkscape:pageshadow="2"
     inkscape:pageopacity="0.0"
     borderopacity="1.0"
     bordercolor="#666666"
     pagecolor="#ffffff"
     id="base"
     inkscape:pagecheckerboard="0" />
  <metadata
     id="metadata5">
    <rdf:RDF>
      <cc:Work
         rdf:about="">
        <dc:format>image/svg+xml</dc:format>
        <dc:type
           rdf:resource="http://purl.org/dc/dcmitype/StillImage" />
      </cc:Work>
    </rdf:RDF>
  </metadata>
  <g
     id="layer1"
     inkscape:groupmode="layer"
     inkscape:label="Layer 1">
    <circle
       style="fill:none;fill-opacity:1;stroke:#222222;stroke-width:5.14151;stroke-linecap:round;stroke-linejoin:round;stroke-miterlimit:4;stroke-dasharray:none;stroke-dashoffset:0;stroke-opacity:1;paint-order:markers fill stroke"
       id="path838"
       cx="13.030226"
       cy="13.190568"
       r="5.7023997" />
    <path
       style="fill:#222222;fill-opacity:1;stroke:none;stroke-width:1.81051;stroke-linecap:butt;stroke-linejoin:miter;stroke-miterlimit:4;stroke-dasharray:none;stroke-opacity:1"
       d="M 9.6815211,5.7977943 10.315266,1.5654659 c 0,0 0.09142,-0.76423296 0.881753,-0.73849725 0.54558,-0.0404107 3.785362,-0.0202114 3.785362,-0.0202114 0,0 0.811169,-0.1047728 0.847375,0.81069615 l 0.519938,4.3621959 z"
       id="path840"
       sodipodi:nodetypes="ccccccc" />
    <path
       sodipodi:nodetypes="ccccccc"
       id="path850"
       d="m 18.038849,6.5788705 3.982176,-1.5673267 c 0,0 0.707555,-0.3029426 1.080433,0.3943716 0.307784,0.4522809 1.910185,3.268115 1.910185,3.268115 0,0 0.496319,0.6501058 -0.278398,1.1391972 l -3.517801,2.6313774 z"
       style="fill:#222222;fill-opacity:1;stroke:none;stroke-width:1.81051;stroke-linecap:butt;stroke-linejoin:miter;stroke-miterlimit:4;stroke-dasharray:none;stroke-opacity:1" />
    <path
       style="fill:#222222;fill-opacity:1;stroke:none;stroke-width:1.81051;stroke-linecap:butt;stroke-linejoin:miter;stroke-miterlimit:4;stroke-dasharray:none;stroke-opacity:1"
       d="m 21.261129,13.841351 3.348431,2.665002 c 0,0 0.61614,0.461293 0.198679,1.132868 -0.237797,0.492692 -1.875178,3.288326 -1.875178,3.288326 0,0 -0.314847,0.754877 -1.125772,0.328496 l -4.037738,-1.730812 z"
       id="path852"
       sodipodi:nodetypes="ccccccc" />
    <path
       sodipodi:nodetypes="ccccccc"
       id="path856"
       d="m 16.486917,20.74783 -0.633744,4.232329 c 0,0 -0.09142,0.764232 -0.881751,0.738501 -0.545582,0.04041 -3.785364,0.02021 -3.785364,0.02021 0,0 -0.811166,0.104764 -0.847371,-0.810699 L 9.8187412,20.56597 Z"
       style="fill:#222222;fill-opacity:1;stroke:none;stroke-width:1.81051;stroke-linecap:butt;stroke-linejoin:miter;stroke-miterlimit:4;stroke-dasharray:none;stroke-opacity:1" />
    <path
       style="fill:#222222;fill-opacity:1;stroke:none;stroke-width:1.81051;stroke-linecap:butt;stroke-linejoin:miter;stroke-miterlimit:4;stroke-dasharray:none;stroke-opacity:1"
       d="m 8.5000254,19.744492 -3.982176,1.567328 c 0,0 -0.7075557,0.302942 -1.0804325,-0.394372 -0.3077965,-0.452276 -1.9101861,-3.268116 -1.9101861,-3.268116 0,0 -0.4963179,-0.650103 0.2784039,-1.139193 L 5.3234294,13.87876 Z"
       id="path858"
       sodipodi:nodetypes="ccccccc" />
    <path
       sodipodi:nodetypes="ccccccc"
       id="path860"
       d="M 4.907308,12.25975 1.5588759,9.5947478 c 0,0 -0.61613804,-0.4612918 -0.1986779,-1.1328663 C 1.5979817,7.9691814 3.2353752,5.173555 3.2353752,5.173555 c 0,0 0.3148485,-0.7548769 1.1257726,-0.3284963 L 8.3988881,6.575871 Z"
       style="fill:#222222;fill-opacity:1;stroke:none;stroke-width:1.81051;stroke-linecap:butt;stroke-linejoin:miter;stroke-miterlimit:4;stroke-dasharray:none;stroke-opacity:1" />
  </g>
</svg>
