<?xml version="1.0" encoding="UTF-8" standalone="no"?>
<svg
   xmlns:dc="http://purl.org/dc/elements/1.1/"
   xmlns:cc="http://creativecommons.org/ns#"
   xmlns:rdf="http://www.w3.org/1999/02/22-rdf-syntax-ns#"
   xmlns:svg="http://www.w3.org/2000/svg"
   xmlns="http://www.w3.org/2000/svg"
   xmlns:sodipodi="http://sodipodi.sourceforge.net/DTD/sodipodi-0.dtd"
   xmlns:inkscape="http://www.inkscape.org/namespaces/inkscape"
   height="450"
   width="450"
   inkscape:version="1.0 (4035a4fb49, 2020-05-01)"
   sodipodi:docname="deckofcards.svg"
   id="svg1039"
   stroke-miterlimit="10"
   stroke-linecap="square"
   stroke="none"
   fill="none"
   viewBox="0 0 450 450"
   version="1.1">
  <metadata
     id="metadata1045">
    <rdf:RDF>
      <cc:Work
         rdf:about="">
        <dc:format>image/svg+xml</dc:format>
        <dc:type
           rdf:resource="http://purl.org/dc/dcmitype/StillImage" />
        <dc:title />
      </cc:Work>
    </rdf:RDF>
  </metadata>
  <defs
     id="defs1043" />
  <sodipodi:namedview
     inkscape:current-layer="svg1039"
     inkscape:window-maximized="0"
     inkscape:window-y="50"
     inkscape:window-x="23"
     inkscape:cy="215.11945"
     inkscape:cx="322.86497"
     inkscape:zoom="1.4142136"
     showgrid="false"
     id="namedview1041"
     inkscape:window-height="1004"
     inkscape:window-width="1616"
     inkscape:pageshadow="2"
     inkscape:pageopacity="0"
     guidetolerance="10"
     gridtolerance="10"
     objecttolerance="10"
     borderopacity="1"
     bordercolor="#666666"
     pagecolor="#ffffff"
     inkscape:document-rotation="0" />
  <clipPath
     id="p.0">
    <path
       id="path940"
       clip-rule="nonzero"
       d="M 0,0 H 720 V 540 H 0 Z" />
  </clipPath>
  <g
     transform="rotate(-15,384.21137,830.17528)"
     id="g1037"
     clip-path="url(#p.0)">
    <path
       id="path943"
       fill-rule="evenodd"
       d="M 0,0 H 720 V 540 H 0 Z"
       fill-opacity="0"
       fill="#000000" />
    <path
       id="path945"
       fill-rule="evenodd"
       d="M 211.1798,13.073491 H 468.5971 V 376.09711 H 211.1798 Z"
       fill="#ffffff" />
    <path
       id="path947"
       fill-rule="evenodd"
       d="M 211.1798,13.073491 H 468.5971 V 376.09711 H 211.1798 Z"
       stroke-linecap="butt"
       stroke-linejoin="round"
       stroke-width="1"
       stroke="#000000" />
    <path
       id="path949"
       fill-rule="evenodd"
       d="m 301.41995,192.49869 h 74.83466 v 130.29922 h -74.83466 z"
       fill="#cc0000" />
    <path
       id="path951"
       fill-rule="evenodd"
       d="m 301.41995,192.49869 h 74.83466 v 130.29922 h -74.83466 z"
       stroke-linecap="butt"
       stroke-linejoin="round"
       stroke-width="1"
       stroke="#980000" />
    <path
       id="path953"
       fill-rule="evenodd"
       d="m 377.92242,177.21419 9.03937,33.18111 -34.36221,1.24409 z"
       fill="#38761d" />
    <path
       id="path955"
       fill-rule="evenodd"
       d="m 377.92242,177.21419 9.03937,33.18111 -34.36221,1.24409 z"
       stroke-linecap="butt"
       stroke-linejoin="round"
       stroke-width="1"
       stroke="#38761d" />
    <path
       id="path957"
       fill-rule="evenodd"
       d="M 360.20718,203.36263 338.83712,230.3705 317.46704,203.39412 Z"
       fill="#38761d" />
    <path
       id="path959"
       fill-rule="evenodd"
       d="M 360.20718,203.36263 338.83712,230.3705 317.46704,203.39412 Z"
       stroke-linecap="butt"
       stroke-linejoin="round"
       stroke-width="1"
       stroke="#38761d" />
    <path
       id="path961"
       fill-rule="evenodd"
       d="m 325.42764,214.2601 -34.39368,-0.99213 8.81888,-33.24409 z"
       fill="#38761d" />
    <path
       id="path963"
       fill-rule="evenodd"
       d="m 325.42764,214.2601 -34.39368,-0.99213 8.81888,-33.24409 z"
       stroke-linecap="butt"
       stroke-linejoin="round"
       stroke-width="1"
       stroke="#38761d" />
    <path
       id="path965"
       fill-rule="evenodd"
       d="M 296.78098,144.5933 267.99356,91.553932 335.67862,123.49094 Z"
       fill="#cc0000" />
    <path
       id="path967"
       fill-rule="evenodd"
       d="M 296.78098,144.5933 267.99356,91.553932 335.67862,123.49094 Z"
       stroke-linecap="butt"
       stroke-linejoin="round"
       stroke-width="1"
       stroke="#cc0000" />
    <path
       id="path969"
       fill-rule="evenodd"
       d="m 331.65488,120.43202 13.22833,-58.866142 18.14173,65.921262 z"
       fill="#cc0000" />
    <path
       id="path971"
       fill-rule="evenodd"
       d="m 331.65488,120.43202 13.22833,-58.866142 18.14173,65.921262 z"
       stroke-linecap="butt"
       stroke-linejoin="round"
       stroke-width="1"
       stroke="#cc0000" />
    <path
       id="path973"
       fill-rule="evenodd"
       d="m 360.00128,133.2008 49.03937,-35.1811 -23.24408,71.11811 z"
       fill="#cc0000" />
    <path
       id="path975"
       fill-rule="evenodd"
       d="m 360.00128,133.2008 49.03937,-35.1811 -23.24408,71.11811 z"
       stroke-linecap="butt"
       stroke-linejoin="round"
       stroke-width="1"
       stroke="#cc0000" />
    <path
       id="path977"
       fill-rule="evenodd"
       d="m 292.6273,165.4252 v 0 c 0,-24.718 21.15897,-44.75591 47.25986,-44.75591 v 0 c 12.53408,0 24.55481,4.71534 33.41775,13.10871 8.86295,8.39335 13.84207,19.77719 13.84207,31.6472 v 0 c 0,24.718 -21.15893,44.7559 -47.25982,44.7559 v 0 c -26.10089,0 -47.25986,-20.0379 -47.25986,-44.7559 z"
       fill="#cc0000" />
    <path
       id="path979"
       fill-rule="evenodd"
       d="m 292.6273,165.4252 v 0 c 0,-24.718 21.15897,-44.75591 47.25986,-44.75591 v 0 c 12.53408,0 24.55481,4.71534 33.41775,13.10871 8.86295,8.39335 13.84207,19.77719 13.84207,31.6472 v 0 c 0,24.718 -21.15893,44.7559 -47.25982,44.7559 v 0 c -26.10089,0 -47.25986,-20.0379 -47.25986,-44.7559 z"
       stroke-linecap="butt"
       stroke-linejoin="round"
       stroke-width="1"
       stroke="#000000" />
    <path
       id="path981"
       fill-rule="evenodd"
       d="m 302.46982,165.4252 v 0 c 0,-19.63873 16.75232,-35.55907 37.41733,-35.55907 v 0 c 9.92367,0 19.44092,3.7464 26.45804,10.41501 7.01712,6.66863 10.95929,15.71321 10.95929,25.14406 v 0 c 0,19.63872 -16.75232,35.55905 -37.41733,35.55905 v 0 c -20.66501,0 -37.41733,-15.92033 -37.41733,-35.55905 z"
       fill="#ffe599" />
    <path
       id="path983"
       fill-rule="evenodd"
       d="m 302.46982,165.4252 v 0 c 0,-19.63873 16.75232,-35.55907 37.41733,-35.55907 v 0 c 9.92367,0 19.44092,3.7464 26.45804,10.41501 7.01712,6.66863 10.95929,15.71321 10.95929,25.14406 v 0 c 0,19.63872 -16.75232,35.55905 -37.41733,35.55905 v 0 c -20.66501,0 -37.41733,-15.92033 -37.41733,-35.55905 z"
       stroke-linecap="butt"
       stroke-linejoin="round"
       stroke-width="1"
       stroke="#000000" />
    <path
       id="path985"
       fill-rule="evenodd"
       d="m 318.77167,152.3517 v 0 c 0,-5.27931 3.78616,-9.55905 8.45666,-9.55905 v 0 c 2.24286,0 4.39386,1.00711 5.9798,2.79979 1.58594,1.79266 2.4769,4.22404 2.4769,6.75926 v 0 c 0,5.27933 -3.78619,9.55907 -8.4567,9.55907 v 0 c -4.6705,0 -8.45666,-4.27974 -8.45666,-9.55907 z"
       fill="#000000" />
    <path
       id="path987"
       fill-rule="evenodd"
       d="m 318.77167,152.3517 v 0 c 0,-5.27931 3.78616,-9.55905 8.45666,-9.55905 v 0 c 2.24286,0 4.39386,1.00711 5.9798,2.79979 1.58594,1.79266 2.4769,4.22404 2.4769,6.75926 v 0 c 0,5.27933 -3.78619,9.55907 -8.4567,9.55907 v 0 c -4.6705,0 -8.45666,-4.27974 -8.45666,-9.55907 z"
       stroke-linecap="butt"
       stroke-linejoin="round"
       stroke-width="1"
       stroke="#000000" />
    <path
       id="path989"
       fill-rule="evenodd"
       d="m 345.4987,152.3517 v 0 c 0,-5.27931 3.78619,-9.55905 8.4567,-9.55905 v 0 c 2.24286,0 4.39386,1.00711 5.97979,2.79979 1.58594,1.79266 2.4769,4.22404 2.4769,6.75926 v 0 c 0,5.27933 -3.78619,9.55907 -8.45669,9.55907 v 0 c -4.67051,0 -8.4567,-4.27974 -8.4567,-9.55907 z"
       fill="#000000" />
    <path
       id="path991"
       fill-rule="evenodd"
       d="m 345.4987,152.3517 v 0 c 0,-5.27931 3.78619,-9.55905 8.4567,-9.55905 v 0 c 2.24286,0 4.39386,1.00711 5.97979,2.79979 1.58594,1.79266 2.4769,4.22404 2.4769,6.75926 v 0 c 0,5.27933 -3.78619,9.55907 -8.45669,9.55907 v 0 c -4.67051,0 -8.4567,-4.27974 -8.4567,-9.55907 z"
       stroke-linecap="butt"
       stroke-linejoin="round"
       stroke-width="1"
       stroke="#000000" />
    <path
       id="path993"
       fill-rule="evenodd"
       d="m 323.2953,169.13911 c 2.68152,2.68153 10.55859,15.92169 16.08923,16.08923 5.53061,0.16754 14.24539,-12.56999 17.09448,-15.08398"
       fill-opacity="0"
       fill="#000000" />
    <path
       id="path995"
       fill-rule="evenodd"
       d="m 323.2953,169.13911 c 2.68152,2.68153 10.55859,15.92169 16.08923,16.08923 5.53061,0.16754 14.24539,-12.56999 17.09448,-15.08398"
       stroke-linecap="butt"
       stroke-linejoin="round"
       stroke-width="1"
       stroke="#000000" />
    <path
       id="path997"
       fill-rule="evenodd"
       d="m 259.44357,94.52756 v 0 c 0,-4.453064 3.78619,-8.062988 8.4567,-8.062988 v 0 c 2.24286,0 4.39383,0.849487 5.97976,2.361595 1.58594,1.5121 2.47693,3.562958 2.47693,5.701393 v 0 c 0,4.453072 -3.78619,8.063 -8.45669,8.063 v 0 c -4.67051,0 -8.4567,-3.609928 -8.4567,-8.063 z"
       fill="#6aa84f" />
    <path
       id="path999"
       fill-rule="evenodd"
       d="m 259.44357,94.52756 v 0 c 0,-4.453064 3.78619,-8.062988 8.4567,-8.062988 v 0 c 2.24286,0 4.39383,0.849487 5.97976,2.361595 1.58594,1.5121 2.47693,3.562958 2.47693,5.701393 v 0 c 0,4.453072 -3.78619,8.063 -8.45669,8.063 v 0 c -4.67051,0 -8.4567,-3.609928 -8.4567,-8.063 z"
       stroke-linecap="butt"
       stroke-linejoin="round"
       stroke-width="1"
       stroke="#000000" />
    <path
       id="path1001"
       fill-rule="evenodd"
       d="m 335.68503,62.38845 v 0 c 0,-4.453068 3.78619,-8.062992 8.4567,-8.062992 v 0 c 2.24286,0 4.39386,0.849491 5.97979,2.361595 1.58594,1.512104 2.4769,3.562958 2.4769,5.701397 v 0 c 0,4.453072 -3.78619,8.062996 -8.45669,8.062996 v 0 c -4.67051,0 -8.4567,-3.609924 -8.4567,-8.062996 z"
       fill="#ffff00" />
    <path
       id="path1003"
       fill-rule="evenodd"
       d="m 335.68503,62.38845 v 0 c 0,-4.453068 3.78619,-8.062992 8.4567,-8.062992 v 0 c 2.24286,0 4.39386,0.849491 5.97979,2.361595 1.58594,1.512104 2.4769,3.562958 2.4769,5.701397 v 0 c 0,4.453072 -3.78619,8.062996 -8.45669,8.062996 v 0 c -4.67051,0 -8.4567,-3.609924 -8.4567,-8.062996 z"
       stroke-linecap="butt"
       stroke-linejoin="round"
       stroke-width="1"
       stroke="#000000" />
    <path
       id="path1005"
       fill-rule="evenodd"
       d="m 397.94226,99.50656 v 0 c 0,-4.453064 3.78619,-8.062988 8.4567,-8.062988 v 0 c 2.24285,0 4.39383,0.849487 5.97976,2.361595 1.58594,1.5121 2.47693,3.562958 2.47693,5.701393 v 0 c 0,4.45307 -3.78619,8.063 -8.45669,8.063 v 0 c -4.67051,0 -8.4567,-3.60993 -8.4567,-8.063 z"
       fill="#6fa8dc" />
    <path
       id="path1007"
       fill-rule="evenodd"
       d="m 397.94226,99.50656 v 0 c 0,-4.453064 3.78619,-8.062988 8.4567,-8.062988 v 0 c 2.24285,0 4.39383,0.849487 5.97976,2.361595 1.58594,1.5121 2.47693,3.562958 2.47693,5.701393 v 0 c 0,4.45307 -3.78619,8.063 -8.45669,8.063 v 0 c -4.67051,0 -8.4567,-3.60993 -8.4567,-8.063 z"
       stroke-linecap="butt"
       stroke-linejoin="round"
       stroke-width="1"
       stroke="#000000" />
    <path
       id="path1009"
       fill-rule="evenodd"
       d="m 220.2231,29.16273 h 33.19685 v 139.9685 H 220.2231 Z"
       fill-opacity="0"
       fill="#000000" />
    <path
       id="path1011"
       fill-rule="nonzero"
       d="M 230.39497,53.52273 V 42.069605 h 1.51562 v 5.671875 l 5.6875,-5.671875 h 2.0625 l -4.8125,4.640625 5.01563,6.8125 h -2 l -4.07813,-5.796875 -1.875,1.828125 v 3.96875 z"
       fill="#000000" />
    <path
       id="path1013"
       fill-rule="nonzero"
       d="M 230.44185,72.52273 V 61.069609 h 1.5625 l 6.01562,8.984371 v -8.984371 h 1.45313 V 72.52273 h -1.5625 l -6.01563,-8.999996 v 8.999996 z"
       fill="#000000" />
    <path
       id="path1015"
       fill-rule="nonzero"
       d="m 229.19185,91.52273 4.40625,-11.453125 h 1.64062 l 4.6875,11.453125 h -1.73437 l -1.32813,-3.46875 h -4.79687 l -1.25,3.46875 z m 3.3125,-4.703125 h 3.89062 l -1.20312,-3.171875 q -0.54688,-1.453125 -0.8125,-2.375 -0.21875,1.09375 -0.60938,2.1875 z m 0.98437,-7.75 q 0,-0.578125 0.42188,-0.984375 0.42187,-0.421875 0.98437,-0.421875 0.57813,0 0.98438,0.421875 0.42187,0.421875 0.42187,1.015625 0,0.59375 -0.42187,1.015625 -0.40625,0.40625 -0.96875,0.40625 -0.59375,0 -1.01563,-0.40625 -0.40625,-0.421875 -0.40625,-1.046875 z m 0.59375,0 q 0,0.375 0.25,0.625 0.25,0.25 0.57813,0.25 0.34375,0 0.57812,-0.25 0.25,-0.25 0.25,-0.609375 0,-0.34375 -0.25,-0.59375 -0.23437,-0.25 -0.57812,-0.25 -0.32813,0 -0.57813,0.25 -0.25,0.234375 -0.25,0.578125 z"
       fill="#000000" />
    <path
       id="path1017"
       fill-rule="nonzero"
       d="M 230.39497,110.52273 V 99.069605 h 1.51562 v 5.671875 l 5.6875,-5.671875 h 2.0625 l -4.8125,4.640625 5.01563,6.8125 h -2 l -4.07813,-5.79688 -1.875,1.82813 v 3.96875 z"
       fill="#000000" />
    <path
       id="path1019"
       fill-rule="nonzero"
       d="m 230.48872,129.52274 v -11.45313 h 8.28125 v 1.34375 h -6.76563 v 3.51562 h 6.34375 v 1.34375 h -6.34375 v 3.89063 h 7.03125 v 1.35938 z"
       fill="#000000" />
    <path
       id="path1021"
       fill-rule="nonzero"
       d="m 230.48872,148.52274 v -11.45313 h 5.07812 q 1.53125,0 2.32813,0.3125 0.79687,0.29688 1.26562,1.07813 0.48438,0.78125 0.48438,1.73437 0,1.21875 -0.79688,2.0625 -0.78125,0.82813 -2.4375,1.04688 0.60938,0.29687 0.92188,0.57812 0.65625,0.60938 1.25,1.51563 l 2,3.125 h -1.90625 l -1.51563,-2.39063 q -0.67187,-1.03125 -1.10937,-1.57812 -0.42188,-0.54688 -0.76563,-0.76563 -0.32812,-0.21875 -0.6875,-0.29687 -0.25,-0.0625 -0.84375,-0.0625 h -1.75 v 5.09375 z m 1.51562,-6.40625 h 3.25 q 1.04688,0 1.625,-0.20313 0.59375,-0.21875 0.89063,-0.6875 0.3125,-0.48437 0.3125,-1.03125 0,-0.8125 -0.59375,-1.32812 -0.59375,-0.53125 -1.85938,-0.53125 h -3.625 z"
       fill="#000000" />
    <path
       id="path1023"
       fill-rule="evenodd"
       d="m 430.30185,228.1811 h 33.19684 v 139.96849 h -33.19684 z"
       fill-opacity="0"
       fill="#000000" />
    <path
       id="path1025"
       fill-rule="nonzero"
       d="m 440.47372,252.5411 v -11.45313 h 1.51563 v 5.67188 l 5.6875,-5.67188 h 2.0625 l -4.8125,4.64063 5.01562,6.8125 h -2 l -4.07812,-5.79688 -1.875,1.82813 v 3.96875 z"
       fill="#000000" />
    <path
       id="path1027"
       fill-rule="nonzero"
       d="m 440.5206,271.5411 v -11.45313 h 1.5625 l 6.01562,8.98438 v -8.98438 h 1.45313 v 11.45313 h -1.5625 l -6.01563,-9 v 9 z"
       fill="#000000" />
    <path
       id="path1029"
       fill-rule="nonzero"
       d="m 439.2706,290.5411 4.40625,-11.45313 h 1.64062 l 4.6875,11.45313 h -1.73437 l -1.32813,-3.46875 h -4.79687 l -1.25,3.46875 z m 3.3125,-4.70313 h 3.89062 l -1.20312,-3.17187 q -0.54688,-1.45313 -0.8125,-2.375 -0.21875,1.09375 -0.60938,2.1875 z m 0.98437,-7.75 q 0,-0.57812 0.42188,-0.98437 0.42187,-0.42188 0.98437,-0.42188 0.57813,0 0.98438,0.42188 0.42187,0.42187 0.42187,1.01562 0,0.59375 -0.42187,1.01563 -0.40625,0.40625 -0.96875,0.40625 -0.59375,0 -1.01563,-0.40625 -0.40625,-0.42188 -0.40625,-1.04688 z m 0.59375,0 q 0,0.375 0.25,0.625 0.25,0.25 0.57813,0.25 0.34375,0 0.57812,-0.25 0.25,-0.25 0.25,-0.60937 0,-0.34375 -0.25,-0.59375 -0.23437,-0.25 -0.57812,-0.25 -0.32813,0 -0.57813,0.25 -0.25,0.23437 -0.25,0.57812 z"
       fill="#000000" />
    <path
       id="path1031"
       fill-rule="nonzero"
       d="m 440.47372,309.5411 v -11.45313 h 1.51563 v 5.67188 l 5.6875,-5.67188 h 2.0625 l -4.8125,4.64063 5.01562,6.8125 h -2 l -4.07812,-5.79688 -1.875,1.82813 v 3.96875 z"
       fill="#000000" />
    <path
       id="path1033"
       fill-rule="nonzero"
       d="m 440.56747,328.5411 v -11.45313 h 8.28125 v 1.34375 h -6.76562 v 3.51563 h 6.34375 v 1.34375 h -6.34375 v 3.89062 h 7.03125 v 1.35938 z"
       fill="#000000" />
    <path
       id="path1035"
       fill-rule="nonzero"
       d="m 440.56747,347.5411 v -11.45313 h 5.07813 q 1.53125,0 2.32812,0.3125 0.79688,0.29688 1.26563,1.07813 0.48437,0.78125 0.48437,1.73437 0,1.21875 -0.79687,2.0625 -0.78125,0.82813 -2.4375,1.04688 0.60937,0.29687 0.92187,0.57812 0.65625,0.60938 1.25,1.51563 l 2,3.125 h -1.90625 l -1.51562,-2.39063 q -0.67188,-1.03125 -1.10938,-1.57812 -0.42187,-0.54688 -0.76562,-0.76563 -0.32813,-0.21875 -0.6875,-0.29687 -0.25,-0.0625 -0.84375,-0.0625 h -1.75 v 5.09375 z m 1.51563,-6.40625 h 3.25 q 1.04687,0 1.625,-0.20313 0.59375,-0.21875 0.89062,-0.6875 0.3125,-0.48437 0.3125,-1.03125 0,-0.8125 -0.59375,-1.32812 -0.59375,-0.53125 -1.85937,-0.53125 h -3.625 z"
       fill="#000000" />
  </g>
  <rect
     transform="rotate(-15)"
     style="fill:none;stroke:#000000;stroke-width:3.988;stroke-linecap:butt;stroke-linejoin:miter;stroke-miterlimit:3.2;stroke-dasharray:none;stroke-opacity:1;paint-order:stroke fill markers"
     id="rect980"
     width="257.4173"
     height="363.02362"
     x="-16.777058"
     y="84.227173" />
  <g
     clip-path="url(#p.0)"
     id="g1141"
     transform="translate(-110.10279,29.51087)">
    <path
       fill="#000000"
       fill-opacity="0"
       d="M 0,0 H 720 V 540 H 0 Z"
       fill-rule="evenodd"
       id="path1047" />
    <path
       fill="#ffffff"
       d="M 211.1798,13.073491 H 468.5971 V 376.09711 H 211.1798 Z"
       fill-rule="evenodd"
       id="path1049" />
    <path
       stroke="#000000"
       stroke-width="1"
       stroke-linejoin="round"
       stroke-linecap="butt"
       d="M 211.1798,13.073491 H 468.5971 V 376.09711 H 211.1798 Z"
       fill-rule="evenodd"
       id="path1051" />
    <path
       fill="#cc0000"
       d="m 301.41995,192.49869 h 74.83466 v 130.29922 h -74.83466 z"
       fill-rule="evenodd"
       id="path1053" />
    <path
       stroke="#980000"
       stroke-width="1"
       stroke-linejoin="round"
       stroke-linecap="butt"
       d="m 301.41995,192.49869 h 74.83466 v 130.29922 h -74.83466 z"
       fill-rule="evenodd"
       id="path1055" />
    <path
       fill="#38761d"
       d="m 377.92242,177.21419 9.03937,33.18111 -34.36221,1.24409 z"
       fill-rule="evenodd"
       id="path1057" />
    <path
       stroke="#38761d"
       stroke-width="1"
       stroke-linejoin="round"
       stroke-linecap="butt"
       d="m 377.92242,177.21419 9.03937,33.18111 -34.36221,1.24409 z"
       fill-rule="evenodd"
       id="path1059" />
    <path
       fill="#38761d"
       d="M 360.20718,203.36263 338.83712,230.3705 317.46704,203.39412 Z"
       fill-rule="evenodd"
       id="path1061" />
    <path
       stroke="#38761d"
       stroke-width="1"
       stroke-linejoin="round"
       stroke-linecap="butt"
       d="M 360.20718,203.36263 338.83712,230.3705 317.46704,203.39412 Z"
       fill-rule="evenodd"
       id="path1063" />
    <path
       fill="#38761d"
       d="m 325.42764,214.2601 -34.39368,-0.99213 8.81888,-33.24409 z"
       fill-rule="evenodd"
       id="path1065" />
    <path
       stroke="#38761d"
       stroke-width="1"
       stroke-linejoin="round"
       stroke-linecap="butt"
       d="m 325.42764,214.2601 -34.39368,-0.99213 8.81888,-33.24409 z"
       fill-rule="evenodd"
       id="path1067" />
    <path
       fill="#cc0000"
       d="M 296.78098,144.5933 267.99356,91.553932 335.67862,123.49094 Z"
       fill-rule="evenodd"
       id="path1069" />
    <path
       stroke="#cc0000"
       stroke-width="1"
       stroke-linejoin="round"
       stroke-linecap="butt"
       d="M 296.78098,144.5933 267.99356,91.553932 335.67862,123.49094 Z"
       fill-rule="evenodd"
       id="path1071" />
    <path
       fill="#cc0000"
       d="m 331.65488,120.43202 13.22833,-58.866142 18.14173,65.921262 z"
       fill-rule="evenodd"
       id="path1073" />
    <path
       stroke="#cc0000"
       stroke-width="1"
       stroke-linejoin="round"
       stroke-linecap="butt"
       d="m 331.65488,120.43202 13.22833,-58.866142 18.14173,65.921262 z"
       fill-rule="evenodd"
       id="path1075" />
    <path
       fill="#cc0000"
       d="m 360.00128,133.2008 49.03937,-35.1811 -23.24408,71.11811 z"
       fill-rule="evenodd"
       id="path1077" />
    <path
       stroke="#cc0000"
       stroke-width="1"
       stroke-linejoin="round"
       stroke-linecap="butt"
       d="m 360.00128,133.2008 49.03937,-35.1811 -23.24408,71.11811 z"
       fill-rule="evenodd"
       id="path1079" />
    <path
       fill="#cc0000"
       d="m 292.6273,165.4252 v 0 c 0,-24.718 21.15897,-44.75591 47.25986,-44.75591 v 0 c 12.53408,0 24.55481,4.71534 33.41775,13.10871 8.86295,8.39335 13.84207,19.77719 13.84207,31.6472 v 0 c 0,24.718 -21.15893,44.7559 -47.25982,44.7559 v 0 c -26.10089,0 -47.25986,-20.0379 -47.25986,-44.7559 z"
       fill-rule="evenodd"
       id="path1081" />
    <path
       stroke="#000000"
       stroke-width="1"
       stroke-linejoin="round"
       stroke-linecap="butt"
       d="m 292.6273,165.4252 v 0 c 0,-24.718 21.15897,-44.75591 47.25986,-44.75591 v 0 c 12.53408,0 24.55481,4.71534 33.41775,13.10871 8.86295,8.39335 13.84207,19.77719 13.84207,31.6472 v 0 c 0,24.718 -21.15893,44.7559 -47.25982,44.7559 v 0 c -26.10089,0 -47.25986,-20.0379 -47.25986,-44.7559 z"
       fill-rule="evenodd"
       id="path1083" />
    <path
       fill="#ffe599"
       d="m 302.46982,165.4252 v 0 c 0,-19.63873 16.75232,-35.55907 37.41733,-35.55907 v 0 c 9.92367,0 19.44092,3.7464 26.45804,10.41501 7.01712,6.66863 10.95929,15.71321 10.95929,25.14406 v 0 c 0,19.63872 -16.75232,35.55905 -37.41733,35.55905 v 0 c -20.66501,0 -37.41733,-15.92033 -37.41733,-35.55905 z"
       fill-rule="evenodd"
       id="path1085" />
    <path
       stroke="#000000"
       stroke-width="1"
       stroke-linejoin="round"
       stroke-linecap="butt"
       d="m 302.46982,165.4252 v 0 c 0,-19.63873 16.75232,-35.55907 37.41733,-35.55907 v 0 c 9.92367,0 19.44092,3.7464 26.45804,10.41501 7.01712,6.66863 10.95929,15.71321 10.95929,25.14406 v 0 c 0,19.63872 -16.75232,35.55905 -37.41733,35.55905 v 0 c -20.66501,0 -37.41733,-15.92033 -37.41733,-35.55905 z"
       fill-rule="evenodd"
       id="path1087" />
    <path
       fill="#000000"
       d="m 318.77167,152.3517 v 0 c 0,-5.27931 3.78616,-9.55905 8.45666,-9.55905 v 0 c 2.24286,0 4.39386,1.00711 5.9798,2.79979 1.58594,1.79266 2.4769,4.22404 2.4769,6.75926 v 0 c 0,5.27933 -3.78619,9.55907 -8.4567,9.55907 v 0 c -4.6705,0 -8.45666,-4.27974 -8.45666,-9.55907 z"
       fill-rule="evenodd"
       id="path1089" />
    <path
       stroke="#000000"
       stroke-width="1"
       stroke-linejoin="round"
       stroke-linecap="butt"
       d="m 318.77167,152.3517 v 0 c 0,-5.27931 3.78616,-9.55905 8.45666,-9.55905 v 0 c 2.24286,0 4.39386,1.00711 5.9798,2.79979 1.58594,1.79266 2.4769,4.22404 2.4769,6.75926 v 0 c 0,5.27933 -3.78619,9.55907 -8.4567,9.55907 v 0 c -4.6705,0 -8.45666,-4.27974 -8.45666,-9.55907 z"
       fill-rule="evenodd"
       id="path1091" />
    <path
       fill="#000000"
       d="m 345.4987,152.3517 v 0 c 0,-5.27931 3.78619,-9.55905 8.4567,-9.55905 v 0 c 2.24286,0 4.39386,1.00711 5.97979,2.79979 1.58594,1.79266 2.4769,4.22404 2.4769,6.75926 v 0 c 0,5.27933 -3.78619,9.55907 -8.45669,9.55907 v 0 c -4.67051,0 -8.4567,-4.27974 -8.4567,-9.55907 z"
       fill-rule="evenodd"
       id="path1093" />
    <path
       stroke="#000000"
       stroke-width="1"
       stroke-linejoin="round"
       stroke-linecap="butt"
       d="m 345.4987,152.3517 v 0 c 0,-5.27931 3.78619,-9.55905 8.4567,-9.55905 v 0 c 2.24286,0 4.39386,1.00711 5.97979,2.79979 1.58594,1.79266 2.4769,4.22404 2.4769,6.75926 v 0 c 0,5.27933 -3.78619,9.55907 -8.45669,9.55907 v 0 c -4.67051,0 -8.4567,-4.27974 -8.4567,-9.55907 z"
       fill-rule="evenodd"
       id="path1095" />
    <path
       fill="#000000"
       fill-opacity="0"
       d="m 323.2953,169.13911 c 2.68152,2.68153 10.55859,15.92169 16.08923,16.08923 5.53061,0.16754 14.24539,-12.56999 17.09448,-15.08398"
       fill-rule="evenodd"
       id="path1097" />
    <path
       stroke="#000000"
       stroke-width="1"
       stroke-linejoin="round"
       stroke-linecap="butt"
       d="m 323.2953,169.13911 c 2.68152,2.68153 10.55859,15.92169 16.08923,16.08923 5.53061,0.16754 14.24539,-12.56999 17.09448,-15.08398"
       fill-rule="evenodd"
       id="path1099" />
    <path
       fill="#6aa84f"
       d="m 259.44357,94.52756 v 0 c 0,-4.453064 3.78619,-8.062988 8.4567,-8.062988 v 0 c 2.24286,0 4.39383,0.849487 5.97976,2.361595 1.58594,1.5121 2.47693,3.562958 2.47693,5.701393 v 0 c 0,4.453072 -3.78619,8.063 -8.45669,8.063 v 0 c -4.67051,0 -8.4567,-3.609928 -8.4567,-8.063 z"
       fill-rule="evenodd"
       id="path1101" />
    <path
       stroke="#000000"
       stroke-width="1"
       stroke-linejoin="round"
       stroke-linecap="butt"
       d="m 259.44357,94.52756 v 0 c 0,-4.453064 3.78619,-8.062988 8.4567,-8.062988 v 0 c 2.24286,0 4.39383,0.849487 5.97976,2.361595 1.58594,1.5121 2.47693,3.562958 2.47693,5.701393 v 0 c 0,4.453072 -3.78619,8.063 -8.45669,8.063 v 0 c -4.67051,0 -8.4567,-3.609928 -8.4567,-8.063 z"
       fill-rule="evenodd"
       id="path1103" />
    <path
       fill="#ffff00"
       d="m 335.68503,62.38845 v 0 c 0,-4.453068 3.78619,-8.062992 8.4567,-8.062992 v 0 c 2.24286,0 4.39386,0.849491 5.97979,2.361595 1.58594,1.512104 2.4769,3.562958 2.4769,5.701397 v 0 c 0,4.453072 -3.78619,8.062996 -8.45669,8.062996 v 0 c -4.67051,0 -8.4567,-3.609924 -8.4567,-8.062996 z"
       fill-rule="evenodd"
       id="path1105" />
    <path
       stroke="#000000"
       stroke-width="1"
       stroke-linejoin="round"
       stroke-linecap="butt"
       d="m 335.68503,62.38845 v 0 c 0,-4.453068 3.78619,-8.062992 8.4567,-8.062992 v 0 c 2.24286,0 4.39386,0.849491 5.97979,2.361595 1.58594,1.512104 2.4769,3.562958 2.4769,5.701397 v 0 c 0,4.453072 -3.78619,8.062996 -8.45669,8.062996 v 0 c -4.67051,0 -8.4567,-3.609924 -8.4567,-8.062996 z"
       fill-rule="evenodd"
       id="path1107" />
    <path
       fill="#6fa8dc"
       d="m 397.94226,99.50656 v 0 c 0,-4.453064 3.78619,-8.062988 8.4567,-8.062988 v 0 c 2.24285,0 4.39383,0.849487 5.97976,2.361595 1.58594,1.5121 2.47693,3.562958 2.47693,5.701393 v 0 c 0,4.45307 -3.78619,8.063 -8.45669,8.063 v 0 c -4.67051,0 -8.4567,-3.60993 -8.4567,-8.063 z"
       fill-rule="evenodd"
       id="path1109" />
    <path
       stroke="#000000"
       stroke-width="1"
       stroke-linejoin="round"
       stroke-linecap="butt"
       d="m 397.94226,99.50656 v 0 c 0,-4.453064 3.78619,-8.062988 8.4567,-8.062988 v 0 c 2.24285,0 4.39383,0.849487 5.97976,2.361595 1.58594,1.5121 2.47693,3.562958 2.47693,5.701393 v 0 c 0,4.45307 -3.78619,8.063 -8.45669,8.063 v 0 c -4.67051,0 -8.4567,-3.60993 -8.4567,-8.063 z"
       fill-rule="evenodd"
       id="path1111" />
    <path
       fill="#000000"
       fill-opacity="0"
       d="m 220.2231,29.16273 h 33.19685 v 139.9685 H 220.2231 Z"
       fill-rule="evenodd"
       id="path1113" />
    <path
       fill="#000000"
       d="M 230.39497,53.52273 V 42.069605 h 1.51562 v 5.671875 l 5.6875,-5.671875 h 2.0625 l -4.8125,4.640625 5.01563,6.8125 h -2 l -4.07813,-5.796875 -1.875,1.828125 v 3.96875 z"
       fill-rule="nonzero"
       id="path1115" />
    <path
       fill="#000000"
       d="M 230.44185,72.52273 V 61.069609 h 1.5625 l 6.01562,8.984371 v -8.984371 h 1.45313 V 72.52273 h -1.5625 l -6.01563,-8.999996 v 8.999996 z"
       fill-rule="nonzero"
       id="path1117" />
    <path
       fill="#000000"
       d="m 229.19185,91.52273 4.40625,-11.453125 h 1.64062 l 4.6875,11.453125 h -1.73437 l -1.32813,-3.46875 h -4.79687 l -1.25,3.46875 z m 3.3125,-4.703125 h 3.89062 l -1.20312,-3.171875 q -0.54688,-1.453125 -0.8125,-2.375 -0.21875,1.09375 -0.60938,2.1875 z m 0.98437,-7.75 q 0,-0.578125 0.42188,-0.984375 0.42187,-0.421875 0.98437,-0.421875 0.57813,0 0.98438,0.421875 0.42187,0.421875 0.42187,1.015625 0,0.59375 -0.42187,1.015625 -0.40625,0.40625 -0.96875,0.40625 -0.59375,0 -1.01563,-0.40625 -0.40625,-0.421875 -0.40625,-1.046875 z m 0.59375,0 q 0,0.375 0.25,0.625 0.25,0.25 0.57813,0.25 0.34375,0 0.57812,-0.25 0.25,-0.25 0.25,-0.609375 0,-0.34375 -0.25,-0.59375 -0.23437,-0.25 -0.57812,-0.25 -0.32813,0 -0.57813,0.25 -0.25,0.234375 -0.25,0.578125 z"
       fill-rule="nonzero"
       id="path1119" />
    <path
       fill="#000000"
       d="M 230.39497,110.52273 V 99.069605 h 1.51562 v 5.671875 l 5.6875,-5.671875 h 2.0625 l -4.8125,4.640625 5.01563,6.8125 h -2 l -4.07813,-5.79688 -1.875,1.82813 v 3.96875 z"
       fill-rule="nonzero"
       id="path1121" />
    <path
       fill="#000000"
       d="m 230.48872,129.52274 v -11.45313 h 8.28125 v 1.34375 h -6.76563 v 3.51562 h 6.34375 v 1.34375 h -6.34375 v 3.89063 h 7.03125 v 1.35938 z"
       fill-rule="nonzero"
       id="path1123" />
    <path
       fill="#000000"
       d="m 230.48872,148.52274 v -11.45313 h 5.07812 q 1.53125,0 2.32813,0.3125 0.79687,0.29688 1.26562,1.07813 0.48438,0.78125 0.48438,1.73437 0,1.21875 -0.79688,2.0625 -0.78125,0.82813 -2.4375,1.04688 0.60938,0.29687 0.92188,0.57812 0.65625,0.60938 1.25,1.51563 l 2,3.125 h -1.90625 l -1.51563,-2.39063 q -0.67187,-1.03125 -1.10937,-1.57812 -0.42188,-0.54688 -0.76563,-0.76563 -0.32812,-0.21875 -0.6875,-0.29687 -0.25,-0.0625 -0.84375,-0.0625 h -1.75 v 5.09375 z m 1.51562,-6.40625 h 3.25 q 1.04688,0 1.625,-0.20313 0.59375,-0.21875 0.89063,-0.6875 0.3125,-0.48437 0.3125,-1.03125 0,-0.8125 -0.59375,-1.32812 -0.59375,-0.53125 -1.85938,-0.53125 h -3.625 z"
       fill-rule="nonzero"
       id="path1125" />
    <path
       fill="#000000"
       fill-opacity="0"
       d="m 430.30185,228.1811 h 33.19684 v 139.96849 h -33.19684 z"
       fill-rule="evenodd"
       id="path1127" />
    <path
       fill="#000000"
       d="m 440.47372,252.5411 v -11.45313 h 1.51563 v 5.67188 l 5.6875,-5.67188 h 2.0625 l -4.8125,4.64063 5.01562,6.8125 h -2 l -4.07812,-5.79688 -1.875,1.82813 v 3.96875 z"
       fill-rule="nonzero"
       id="path1129" />
    <path
       fill="#000000"
       d="m 440.5206,271.5411 v -11.45313 h 1.5625 l 6.01562,8.98438 v -8.98438 h 1.45313 v 11.45313 h -1.5625 l -6.01563,-9 v 9 z"
       fill-rule="nonzero"
       id="path1131" />
    <path
       fill="#000000"
       d="m 439.2706,290.5411 4.40625,-11.45313 h 1.64062 l 4.6875,11.45313 h -1.73437 l -1.32813,-3.46875 h -4.79687 l -1.25,3.46875 z m 3.3125,-4.70313 h 3.89062 l -1.20312,-3.17187 q -0.54688,-1.45313 -0.8125,-2.375 -0.21875,1.09375 -0.60938,2.1875 z m 0.98437,-7.75 q 0,-0.57812 0.42188,-0.98437 0.42187,-0.42188 0.98437,-0.42188 0.57813,0 0.98438,0.42188 0.42187,0.42187 0.42187,1.01562 0,0.59375 -0.42187,1.01563 -0.40625,0.40625 -0.96875,0.40625 -0.59375,0 -1.01563,-0.40625 -0.40625,-0.42188 -0.40625,-1.04688 z m 0.59375,0 q 0,0.375 0.25,0.625 0.25,0.25 0.57813,0.25 0.34375,0 0.57812,-0.25 0.25,-0.25 0.25,-0.60937 0,-0.34375 -0.25,-0.59375 -0.23437,-0.25 -0.57812,-0.25 -0.32813,0 -0.57813,0.25 -0.25,0.23437 -0.25,0.57812 z"
       fill-rule="nonzero"
       id="path1133" />
    <path
       fill="#000000"
       d="m 440.47372,309.5411 v -11.45313 h 1.51563 v 5.67188 l 5.6875,-5.67188 h 2.0625 l -4.8125,4.64063 5.01562,6.8125 h -2 l -4.07812,-5.79688 -1.875,1.82813 v 3.96875 z"
       fill-rule="nonzero"
       id="path1135" />
    <path
       fill="#000000"
       d="m 440.56747,328.5411 v -11.45313 h 8.28125 v 1.34375 h -6.76562 v 3.51563 h 6.34375 v 1.34375 h -6.34375 v 3.89062 h 7.03125 v 1.35938 z"
       fill-rule="nonzero"
       id="path1137" />
    <path
       fill="#000000"
       d="m 440.56747,347.5411 v -11.45313 h 5.07813 q 1.53125,0 2.32812,0.3125 0.79688,0.29688 1.26563,1.07813 0.48437,0.78125 0.48437,1.73437 0,1.21875 -0.79687,2.0625 -0.78125,0.82813 -2.4375,1.04688 0.60937,0.29687 0.92187,0.57812 0.65625,0.60938 1.25,1.51563 l 2,3.125 h -1.90625 l -1.51562,-2.39063 q -0.67188,-1.03125 -1.10938,-1.57812 -0.42187,-0.54688 -0.76562,-0.76563 -0.32813,-0.21875 -0.6875,-0.29687 -0.25,-0.0625 -0.84375,-0.0625 h -1.75 v 5.09375 z m 1.51563,-6.40625 h 3.25 q 1.04687,0 1.625,-0.20313 0.59375,-0.21875 0.89062,-0.6875 0.3125,-0.48437 0.3125,-1.03125 0,-0.8125 -0.59375,-1.32812 -0.59375,-0.53125 -1.85937,-0.53125 h -3.625 z"
       fill-rule="nonzero"
       id="path1139" />
  </g>
  <rect
     y="42.584362"
     x="101.07701"
     height="363.02362"
     width="257.4173"
     id="rect976"
     style="fill:none;stroke-width:3.988;stroke-linecap:butt;stroke-linejoin:miter;stroke-miterlimit:3.20000005;paint-order:stroke fill markers;stroke:#000000;stroke-opacity:1;stroke-dasharray:none" />
  <g
     transform="rotate(15,152.71761,-24.961086)"
     id="g1237"
     clip-path="url(#p.0)">
    <path
       id="path1143"
       fill-rule="evenodd"
       d="M 0,0 H 720 V 540 H 0 Z"
       fill-opacity="0"
       fill="#000000" />
    <path
       id="path1145"
       fill-rule="evenodd"
       d="M 211.1798,13.073491 H 468.5971 V 376.09711 H 211.1798 Z"
       fill="#ffffff" />
    <path
       id="path1147"
       fill-rule="evenodd"
       d="M 211.1798,13.073491 H 468.5971 V 376.09711 H 211.1798 Z"
       stroke-linecap="butt"
       stroke-linejoin="round"
       stroke-width="1"
       stroke="#000000" />
    <path
       id="path1149"
       fill-rule="evenodd"
       d="m 301.41995,192.49869 h 74.83466 v 130.29922 h -74.83466 z"
       fill="#cc0000" />
    <path
       id="path1151"
       fill-rule="evenodd"
       d="m 301.41995,192.49869 h 74.83466 v 130.29922 h -74.83466 z"
       stroke-linecap="butt"
       stroke-linejoin="round"
       stroke-width="1"
       stroke="#980000" />
    <path
       id="path1153"
       fill-rule="evenodd"
       d="m 377.92242,177.21419 9.03937,33.18111 -34.36221,1.24409 z"
       fill="#38761d" />
    <path
       id="path1155"
       fill-rule="evenodd"
       d="m 377.92242,177.21419 9.03937,33.18111 -34.36221,1.24409 z"
       stroke-linecap="butt"
       stroke-linejoin="round"
       stroke-width="1"
       stroke="#38761d" />
    <path
       id="path1157"
       fill-rule="evenodd"
       d="M 360.20718,203.36263 338.83712,230.3705 317.46704,203.39412 Z"
       fill="#38761d" />
    <path
       id="path1159"
       fill-rule="evenodd"
       d="M 360.20718,203.36263 338.83712,230.3705 317.46704,203.39412 Z"
       stroke-linecap="butt"
       stroke-linejoin="round"
       stroke-width="1"
       stroke="#38761d" />
    <path
       id="path1161"
       fill-rule="evenodd"
       d="m 325.42764,214.2601 -34.39368,-0.99213 8.81888,-33.24409 z"
       fill="#38761d" />
    <path
       id="path1163"
       fill-rule="evenodd"
       d="m 325.42764,214.2601 -34.39368,-0.99213 8.81888,-33.24409 z"
       stroke-linecap="butt"
       stroke-linejoin="round"
       stroke-width="1"
       stroke="#38761d" />
    <path
       id="path1165"
       fill-rule="evenodd"
       d="M 296.78098,144.5933 267.99356,91.553932 335.67862,123.49094 Z"
       fill="#cc0000" />
    <path
       id="path1167"
       fill-rule="evenodd"
       d="M 296.78098,144.5933 267.99356,91.553932 335.67862,123.49094 Z"
       stroke-linecap="butt"
       stroke-linejoin="round"
       stroke-width="1"
       stroke="#cc0000" />
    <path
       id="path1169"
       fill-rule="evenodd"
       d="m 331.65488,120.43202 13.22833,-58.866142 18.14173,65.921262 z"
       fill="#cc0000" />
    <path
       id="path1171"
       fill-rule="evenodd"
       d="m 331.65488,120.43202 13.22833,-58.866142 18.14173,65.921262 z"
       stroke-linecap="butt"
       stroke-linejoin="round"
       stroke-width="1"
       stroke="#cc0000" />
    <path
       id="path1173"
       fill-rule="evenodd"
       d="m 360.00128,133.2008 49.03937,-35.1811 -23.24408,71.11811 z"
       fill="#cc0000" />
    <path
       id="path1175"
       fill-rule="evenodd"
       d="m 360.00128,133.2008 49.03937,-35.1811 -23.24408,71.11811 z"
       stroke-linecap="butt"
       stroke-linejoin="round"
       stroke-width="1"
       stroke="#cc0000" />
    <path
       id="path1177"
       fill-rule="evenodd"
       d="m 292.6273,165.4252 v 0 c 0,-24.718 21.15897,-44.75591 47.25986,-44.75591 v 0 c 12.53408,0 24.55481,4.71534 33.41775,13.10871 8.86295,8.39335 13.84207,19.77719 13.84207,31.6472 v 0 c 0,24.718 -21.15893,44.7559 -47.25982,44.7559 v 0 c -26.10089,0 -47.25986,-20.0379 -47.25986,-44.7559 z"
       fill="#cc0000" />
    <path
       id="path1179"
       fill-rule="evenodd"
       d="m 292.6273,165.4252 v 0 c 0,-24.718 21.15897,-44.75591 47.25986,-44.75591 v 0 c 12.53408,0 24.55481,4.71534 33.41775,13.10871 8.86295,8.39335 13.84207,19.77719 13.84207,31.6472 v 0 c 0,24.718 -21.15893,44.7559 -47.25982,44.7559 v 0 c -26.10089,0 -47.25986,-20.0379 -47.25986,-44.7559 z"
       stroke-linecap="butt"
       stroke-linejoin="round"
       stroke-width="1"
       stroke="#000000" />
    <path
       id="path1181"
       fill-rule="evenodd"
       d="m 302.46982,165.4252 v 0 c 0,-19.63873 16.75232,-35.55907 37.41733,-35.55907 v 0 c 9.92367,0 19.44092,3.7464 26.45804,10.41501 7.01712,6.66863 10.95929,15.71321 10.95929,25.14406 v 0 c 0,19.63872 -16.75232,35.55905 -37.41733,35.55905 v 0 c -20.66501,0 -37.41733,-15.92033 -37.41733,-35.55905 z"
       fill="#ffe599" />
    <path
       id="path1183"
       fill-rule="evenodd"
       d="m 302.46982,165.4252 v 0 c 0,-19.63873 16.75232,-35.55907 37.41733,-35.55907 v 0 c 9.92367,0 19.44092,3.7464 26.45804,10.41501 7.01712,6.66863 10.95929,15.71321 10.95929,25.14406 v 0 c 0,19.63872 -16.75232,35.55905 -37.41733,35.55905 v 0 c -20.66501,0 -37.41733,-15.92033 -37.41733,-35.55905 z"
       stroke-linecap="butt"
       stroke-linejoin="round"
       stroke-width="1"
       stroke="#000000" />
    <path
       id="path1185"
       fill-rule="evenodd"
       d="m 318.77167,152.3517 v 0 c 0,-5.27931 3.78616,-9.55905 8.45666,-9.55905 v 0 c 2.24286,0 4.39386,1.00711 5.9798,2.79979 1.58594,1.79266 2.4769,4.22404 2.4769,6.75926 v 0 c 0,5.27933 -3.78619,9.55907 -8.4567,9.55907 v 0 c -4.6705,0 -8.45666,-4.27974 -8.45666,-9.55907 z"
       fill="#000000" />
    <path
       id="path1187"
       fill-rule="evenodd"
       d="m 318.77167,152.3517 v 0 c 0,-5.27931 3.78616,-9.55905 8.45666,-9.55905 v 0 c 2.24286,0 4.39386,1.00711 5.9798,2.79979 1.58594,1.79266 2.4769,4.22404 2.4769,6.75926 v 0 c 0,5.27933 -3.78619,9.55907 -8.4567,9.55907 v 0 c -4.6705,0 -8.45666,-4.27974 -8.45666,-9.55907 z"
       stroke-linecap="butt"
       stroke-linejoin="round"
       stroke-width="1"
       stroke="#000000" />
    <path
       id="path1189"
       fill-rule="evenodd"
       d="m 345.4987,152.3517 v 0 c 0,-5.27931 3.78619,-9.55905 8.4567,-9.55905 v 0 c 2.24286,0 4.39386,1.00711 5.97979,2.79979 1.58594,1.79266 2.4769,4.22404 2.4769,6.75926 v 0 c 0,5.27933 -3.78619,9.55907 -8.45669,9.55907 v 0 c -4.67051,0 -8.4567,-4.27974 -8.4567,-9.55907 z"
       fill="#000000" />
    <path
       id="path1191"
       fill-rule="evenodd"
       d="m 345.4987,152.3517 v 0 c 0,-5.27931 3.78619,-9.55905 8.4567,-9.55905 v 0 c 2.24286,0 4.39386,1.00711 5.97979,2.79979 1.58594,1.79266 2.4769,4.22404 2.4769,6.75926 v 0 c 0,5.27933 -3.78619,9.55907 -8.45669,9.55907 v 0 c -4.67051,0 -8.4567,-4.27974 -8.4567,-9.55907 z"
       stroke-linecap="butt"
       stroke-linejoin="round"
       stroke-width="1"
       stroke="#000000" />
    <path
       id="path1193"
       fill-rule="evenodd"
       d="m 323.2953,169.13911 c 2.68152,2.68153 10.55859,15.92169 16.08923,16.08923 5.53061,0.16754 14.24539,-12.56999 17.09448,-15.08398"
       fill-opacity="0"
       fill="#000000" />
    <path
       id="path1195"
       fill-rule="evenodd"
       d="m 323.2953,169.13911 c 2.68152,2.68153 10.55859,15.92169 16.08923,16.08923 5.53061,0.16754 14.24539,-12.56999 17.09448,-15.08398"
       stroke-linecap="butt"
       stroke-linejoin="round"
       stroke-width="1"
       stroke="#000000" />
    <path
       id="path1197"
       fill-rule="evenodd"
       d="m 259.44357,94.52756 v 0 c 0,-4.453064 3.78619,-8.062988 8.4567,-8.062988 v 0 c 2.24286,0 4.39383,0.849487 5.97976,2.361595 1.58594,1.5121 2.47693,3.562958 2.47693,5.701393 v 0 c 0,4.453072 -3.78619,8.063 -8.45669,8.063 v 0 c -4.67051,0 -8.4567,-3.609928 -8.4567,-8.063 z"
       fill="#6aa84f" />
    <path
       id="path1199"
       fill-rule="evenodd"
       d="m 259.44357,94.52756 v 0 c 0,-4.453064 3.78619,-8.062988 8.4567,-8.062988 v 0 c 2.24286,0 4.39383,0.849487 5.97976,2.361595 1.58594,1.5121 2.47693,3.562958 2.47693,5.701393 v 0 c 0,4.453072 -3.78619,8.063 -8.45669,8.063 v 0 c -4.67051,0 -8.4567,-3.609928 -8.4567,-8.063 z"
       stroke-linecap="butt"
       stroke-linejoin="round"
       stroke-width="1"
       stroke="#000000" />
    <path
       id="path1201"
       fill-rule="evenodd"
       d="m 335.68503,62.38845 v 0 c 0,-4.453068 3.78619,-8.062992 8.4567,-8.062992 v 0 c 2.24286,0 4.39386,0.849491 5.97979,2.361595 1.58594,1.512104 2.4769,3.562958 2.4769,5.701397 v 0 c 0,4.453072 -3.78619,8.062996 -8.45669,8.062996 v 0 c -4.67051,0 -8.4567,-3.609924 -8.4567,-8.062996 z"
       fill="#ffff00" />
    <path
       id="path1203"
       fill-rule="evenodd"
       d="m 335.68503,62.38845 v 0 c 0,-4.453068 3.78619,-8.062992 8.4567,-8.062992 v 0 c 2.24286,0 4.39386,0.849491 5.97979,2.361595 1.58594,1.512104 2.4769,3.562958 2.4769,5.701397 v 0 c 0,4.453072 -3.78619,8.062996 -8.45669,8.062996 v 0 c -4.67051,0 -8.4567,-3.609924 -8.4567,-8.062996 z"
       stroke-linecap="butt"
       stroke-linejoin="round"
       stroke-width="1"
       stroke="#000000" />
    <path
       id="path1205"
       fill-rule="evenodd"
       d="m 397.94226,99.50656 v 0 c 0,-4.453064 3.78619,-8.062988 8.4567,-8.062988 v 0 c 2.24285,0 4.39383,0.849487 5.97976,2.361595 1.58594,1.5121 2.47693,3.562958 2.47693,5.701393 v 0 c 0,4.45307 -3.78619,8.063 -8.45669,8.063 v 0 c -4.67051,0 -8.4567,-3.60993 -8.4567,-8.063 z"
       fill="#6fa8dc" />
    <path
       id="path1207"
       fill-rule="evenodd"
       d="m 397.94226,99.50656 v 0 c 0,-4.453064 3.78619,-8.062988 8.4567,-8.062988 v 0 c 2.24285,0 4.39383,0.849487 5.97976,2.361595 1.58594,1.5121 2.47693,3.562958 2.47693,5.701393 v 0 c 0,4.45307 -3.78619,8.063 -8.45669,8.063 v 0 c -4.67051,0 -8.4567,-3.60993 -8.4567,-8.063 z"
       stroke-linecap="butt"
       stroke-linejoin="round"
       stroke-width="1"
       stroke="#000000" />
    <path
       id="path1209"
       fill-rule="evenodd"
       d="m 220.2231,29.16273 h 33.19685 v 139.9685 H 220.2231 Z"
       fill-opacity="0"
       fill="#000000" />
    <path
       id="path1211"
       fill-rule="nonzero"
       d="M 230.39497,53.52273 V 42.069605 h 1.51562 v 5.671875 l 5.6875,-5.671875 h 2.0625 l -4.8125,4.640625 5.01563,6.8125 h -2 l -4.07813,-5.796875 -1.875,1.828125 v 3.96875 z"
       fill="#000000" />
    <path
       id="path1213"
       fill-rule="nonzero"
       d="M 230.44185,72.52273 V 61.069609 h 1.5625 l 6.01562,8.984371 v -8.984371 h 1.45313 V 72.52273 h -1.5625 l -6.01563,-8.999996 v 8.999996 z"
       fill="#000000" />
    <path
       id="path1215"
       fill-rule="nonzero"
       d="m 229.19185,91.52273 4.40625,-11.453125 h 1.64062 l 4.6875,11.453125 h -1.73437 l -1.32813,-3.46875 h -4.79687 l -1.25,3.46875 z m 3.3125,-4.703125 h 3.89062 l -1.20312,-3.171875 q -0.54688,-1.453125 -0.8125,-2.375 -0.21875,1.09375 -0.60938,2.1875 z m 0.98437,-7.75 q 0,-0.578125 0.42188,-0.984375 0.42187,-0.421875 0.98437,-0.421875 0.57813,0 0.98438,0.421875 0.42187,0.421875 0.42187,1.015625 0,0.59375 -0.42187,1.015625 -0.40625,0.40625 -0.96875,0.40625 -0.59375,0 -1.01563,-0.40625 -0.40625,-0.421875 -0.40625,-1.046875 z m 0.59375,0 q 0,0.375 0.25,0.625 0.25,0.25 0.57813,0.25 0.34375,0 0.57812,-0.25 0.25,-0.25 0.25,-0.609375 0,-0.34375 -0.25,-0.59375 -0.23437,-0.25 -0.57812,-0.25 -0.32813,0 -0.57813,0.25 -0.25,0.234375 -0.25,0.578125 z"
       fill="#000000" />
    <path
       id="path1217"
       fill-rule="nonzero"
       d="M 230.39497,110.52273 V 99.069605 h 1.51562 v 5.671875 l 5.6875,-5.671875 h 2.0625 l -4.8125,4.640625 5.01563,6.8125 h -2 l -4.07813,-5.79688 -1.875,1.82813 v 3.96875 z"
       fill="#000000" />
    <path
       id="path1219"
       fill-rule="nonzero"
       d="m 230.48872,129.52274 v -11.45313 h 8.28125 v 1.34375 h -6.76563 v 3.51562 h 6.34375 v 1.34375 h -6.34375 v 3.89063 h 7.03125 v 1.35938 z"
       fill="#000000" />
    <path
       id="path1221"
       fill-rule="nonzero"
       d="m 230.48872,148.52274 v -11.45313 h 5.07812 q 1.53125,0 2.32813,0.3125 0.79687,0.29688 1.26562,1.07813 0.48438,0.78125 0.48438,1.73437 0,1.21875 -0.79688,2.0625 -0.78125,0.82813 -2.4375,1.04688 0.60938,0.29687 0.92188,0.57812 0.65625,0.60938 1.25,1.51563 l 2,3.125 h -1.90625 l -1.51563,-2.39063 q -0.67187,-1.03125 -1.10937,-1.57812 -0.42188,-0.54688 -0.76563,-0.76563 -0.32812,-0.21875 -0.6875,-0.29687 -0.25,-0.0625 -0.84375,-0.0625 h -1.75 v 5.09375 z m 1.51562,-6.40625 h 3.25 q 1.04688,0 1.625,-0.20313 0.59375,-0.21875 0.89063,-0.6875 0.3125,-0.48437 0.3125,-1.03125 0,-0.8125 -0.59375,-1.32812 -0.59375,-0.53125 -1.85938,-0.53125 h -3.625 z"
       fill="#000000" />
    <path
       id="path1223"
       fill-rule="evenodd"
       d="m 430.30185,228.1811 h 33.19684 v 139.96849 h -33.19684 z"
       fill-opacity="0"
       fill="#000000" />
    <path
       id="path1225"
       fill-rule="nonzero"
       d="m 440.47372,252.5411 v -11.45313 h 1.51563 v 5.67188 l 5.6875,-5.67188 h 2.0625 l -4.8125,4.64063 5.01562,6.8125 h -2 l -4.07812,-5.79688 -1.875,1.82813 v 3.96875 z"
       fill="#000000" />
    <path
       id="path1227"
       fill-rule="nonzero"
       d="m 440.5206,271.5411 v -11.45313 h 1.5625 l 6.01562,8.98438 v -8.98438 h 1.45313 v 11.45313 h -1.5625 l -6.01563,-9 v 9 z"
       fill="#000000" />
    <path
       id="path1229"
       fill-rule="nonzero"
       d="m 439.2706,290.5411 4.40625,-11.45313 h 1.64062 l 4.6875,11.45313 h -1.73437 l -1.32813,-3.46875 h -4.79687 l -1.25,3.46875 z m 3.3125,-4.70313 h 3.89062 l -1.20312,-3.17187 q -0.54688,-1.45313 -0.8125,-2.375 -0.21875,1.09375 -0.60938,2.1875 z m 0.98437,-7.75 q 0,-0.57812 0.42188,-0.98437 0.42187,-0.42188 0.98437,-0.42188 0.57813,0 0.98438,0.42188 0.42187,0.42187 0.42187,1.01562 0,0.59375 -0.42187,1.01563 -0.40625,0.40625 -0.96875,0.40625 -0.59375,0 -1.01563,-0.40625 -0.40625,-0.42188 -0.40625,-1.04688 z m 0.59375,0 q 0,0.375 0.25,0.625 0.25,0.25 0.57813,0.25 0.34375,0 0.57812,-0.25 0.25,-0.25 0.25,-0.60937 0,-0.34375 -0.25,-0.59375 -0.23437,-0.25 -0.57812,-0.25 -0.32813,0 -0.57813,0.25 -0.25,0.23437 -0.25,0.57812 z"
       fill="#000000" />
    <path
       id="path1231"
       fill-rule="nonzero"
       d="m 440.47372,309.5411 v -11.45313 h 1.51563 v 5.67188 l 5.6875,-5.67188 h 2.0625 l -4.8125,4.64063 5.01562,6.8125 h -2 l -4.07812,-5.79688 -1.875,1.82813 v 3.96875 z"
       fill="#000000" />
    <path
       id="path1233"
       fill-rule="nonzero"
       d="m 440.56747,328.5411 v -11.45313 h 8.28125 v 1.34375 h -6.76562 v 3.51563 h 6.34375 v 1.34375 h -6.34375 v 3.89062 h 7.03125 v 1.35938 z"
       fill="#000000" />
    <path
       id="path1235"
       fill-rule="nonzero"
       d="m 440.56747,347.5411 v -11.45313 h 5.07813 q 1.53125,0 2.32812,0.3125 0.79688,0.29688 1.26563,1.07813 0.48437,0.78125 0.48437,1.73437 0,1.21875 -0.79687,2.0625 -0.78125,0.82813 -2.4375,1.04688 0.60937,0.29687 0.92187,0.57812 0.65625,0.60938 1.25,1.51563 l 2,3.125 h -1.90625 l -1.51562,-2.39063 q -0.67188,-1.03125 -1.10938,-1.57812 -0.42187,-0.54688 -0.76562,-0.76563 -0.32813,-0.21875 -0.6875,-0.29687 -0.25,-0.0625 -0.84375,-0.0625 h -1.75 v 5.09375 z m 1.51563,-6.40625 h 3.25 q 1.04687,0 1.625,-0.20313 0.59375,-0.21875 0.89062,-0.6875 0.3125,-0.48437 0.3125,-1.03125 0,-0.8125 -0.59375,-1.32812 -0.59375,-0.53125 -1.85937,-0.53125 h -3.625 z"
       fill="#000000" />
  </g>
  <rect
     style="fill:#ffffff;fill-opacity:1;stroke:#000000;stroke-width:83.6464;stroke-linecap:round;stroke-linejoin:round;stroke-miterlimit:0;stroke-opacity:0;paint-order:stroke fill markers"
     id="rect975"
     width="177.69186"
     height="287.89792"
     x="227.80655"
     y="3.0321832"
     transform="matrix(0.95897888,0.28347753,-0.23602012,0.97174817,0,0)" />
  <rect
     transform="rotate(15)"
     style="fill:none;stroke:#000000;stroke-width:3.988;stroke-linecap:butt;stroke-linejoin:miter;stroke-miterlimit:3.2;stroke-dasharray:none;stroke-opacity:1;paint-order:stroke fill markers"
     id="rect978"
     width="257.4173"
     height="363.02362"
     x="199.51569"
     y="-25.602207" />
</svg>
