<?xml version="1.0" encoding="UTF-8" standalone="no"?>
<svg
   xmlns:dc="http://purl.org/dc/elements/1.1/"
   xmlns:cc="http://creativecommons.org/ns#"
   xmlns:rdf="http://www.w3.org/1999/02/22-rdf-syntax-ns#"
   xmlns:svg="http://www.w3.org/2000/svg"
   xmlns="http://www.w3.org/2000/svg"
   xmlns:sodipodi="http://sodipodi.sourceforge.net/DTD/sodipodi-0.dtd"
   xmlns:inkscape="http://www.inkscape.org/namespaces/inkscape"
   inkscape:export-ydpi="96"
   inkscape:export-xdpi="96"
   inkscape:export-filename="C:\Projects\Godot\knaker-online\imgs\info.png"
   sodipodi:docname="info.svg"
   inkscape:version="1.0 (4035a4fb49, 2020-05-01)"
   id="svg8"
   version="1.1"
   viewBox="0 0 6.3499998 6.3500002"
   height="24"
   width="24">
  <defs
     id="defs2" />
  <sodipodi:namedview
     inkscape:window-maximized="0"
     inkscape:window-y="46"
     inkscape:window-x="76"
     inkscape:window-height="1024"
     inkscape:window-width="1661"
     units="px"
     showgrid="false"
     inkscape:document-rotation="0"
     inkscape:current-layer="layer1"
     inkscape:document-units="mm"
     inkscape:cy="11.658035"
     inkscape:cx="17.346472"
     inkscape:zoom="15.839192"
     inkscape:pageshadow="2"
     inkscape:pageopacity="0.0"
     borderopacity="1.0"
     bordercolor="#666666"
     pagecolor="#ffffff"
     id="base" />
  <metadata
     id="metadata5">
    <rdf:RDF>
      <cc:Work
         rdf:about="">
        <dc:format>image/svg+xml</dc:format>
        <dc:type
           rdf:resource="http://purl.org/dc/dcmitype/StillImage" />
        <dc:title></dc:title>
      </cc:Work>
    </rdf:RDF>
  </metadata>
  <g
     id="layer1"
     inkscape:groupmode="layer"
     inkscape:label="Layer 1">
    <ellipse
       ry="2.9145477"
       rx="2.9125211"
       cy="3.1853786"
       cx="3.183352"
       id="path833"
       style="fill:none;fill-opacity:1;stroke:#fafafa;stroke-width:0.48559;stroke-linecap:round;stroke-linejoin:round;stroke-miterlimit:4;stroke-dasharray:none;stroke-opacity:1;paint-order:markers fill stroke" />
    <g
       style="font-size:5.29975px;line-height:1.25;font-family:Amerika;-inkscape-font-specification:Amerika;stroke-width:0.132494"
       id="text837"
       transform="scale(1.0630436,0.94069519)"
       aria-label="i">
      <path
         id="path839"
         style="fill:#fafafa;fill-opacity:1;stroke-width:0.132494"
         d="m 3.2268222,3.7638081 q 0,-0.2437885 0.0053,-0.402781 0.0106,-0.1642923 0.052998,-0.2596878 0.047698,-0.1006952 0.1430932,-0.1430932 0.1006953,-0.042398 0.275587,-0.042398 V 2.6773593 H 2.1350737 v 0.2384888 h 0.052998 q 0.1589925,0 0.2437885,0.042398 0.084796,0.042398 0.127194,0.1430932 0.042398,0.095396 0.047698,0.2596878 0.0106,0.1589925 0.0106,0.402781 v 0.4769774 q 0,0.2437885 -0.0106,0.4080808 -0.0053,0.1589925 -0.052998,0.2596877 -0.042398,0.095396 -0.1430932,0.1377935 -0.095396,0.042398 -0.2702873,0.042398 v 0.2384888 h 1.568726 V 5.0887455 h -0.052998 q -0.1589925,0 -0.2437885,-0.042398 Q 3.3275174,5.0039495 3.2851194,4.908554 3.2427214,4.8078588 3.2321219,4.6488663 3.2268222,4.484574 3.2268222,4.2407855 Z M 2.5166557,1.7552029 q 0,0.1642922 0.1112947,0.2808867 0.1165945,0.1165945 0.2808868,0.1165945 0.1642922,0 0.2808867,-0.1165945 0.1165945,-0.1165945 0.1165945,-0.2808867 0,-0.1642923 -0.1165945,-0.2808868 -0.1165945,-0.1165945 -0.2808867,-0.1165945 -0.1642923,0 -0.2808868,0.1165945 -0.1112947,0.1165945 -0.1112947,0.2808868 z" />
    </g>
  </g>
</svg>
