<svg version="1.1" viewBox="0.0 0.0 720.0 540.0" fill="none" stroke="none" stroke-linecap="square" stroke-miterlimit="10" xmlns:xlink="http://www.w3.org/1999/xlink" xmlns="http://www.w3.org/2000/svg"><clipPath id="p.0"><path d="m0 0l720.0 0l0 540.0l-720.0 0l0 -540.0z" clip-rule="nonzero"/></clipPath><g clip-path="url(#p.0)"><path fill="#000000" fill-opacity="0.0" d="m0 0l720.0 0l0 540.0l-720.0 0z" fill-rule="evenodd"/><path fill="#ffffff" d="m211.1798 13.073491l257.4173 0l0 363.02362l-257.4173 0z" fill-rule="evenodd"/><path stroke="#000000" stroke-width="1.0" stroke-linejoin="round" stroke-linecap="butt" d="m211.1798 13.073491l257.4173 0l0 363.02362l-257.4173 0z" fill-rule="evenodd"/><path fill="#cc0000" d="m301.41995 192.49869l74.834656 0l0 130.29922l-74.834656 0z" fill-rule="evenodd"/><path stroke="#980000" stroke-width="1.0" stroke-linejoin="round" stroke-linecap="butt" d="m301.41995 192.49869l74.834656 0l0 130.29922l-74.834656 0z" fill-rule="evenodd"/><path fill="#38761d" d="m377.92242 177.21419l9.039368 33.181107l-34.362213 1.2440948z" fill-rule="evenodd"/><path stroke="#38761d" stroke-width="1.0" stroke-linejoin="round" stroke-linecap="butt" d="m377.92242 177.21419l9.039368 33.181107l-34.362213 1.2440948z" fill-rule="evenodd"/><path fill="#38761d" d="m360.20718 203.36263l-21.370056 27.007874l-21.370087 -26.97638z" fill-rule="evenodd"/><path stroke="#38761d" stroke-width="1.0" stroke-linejoin="round" stroke-linecap="butt" d="m360.20718 203.36263l-21.370056 27.007874l-21.370087 -26.97638z" fill-rule="evenodd"/><path fill="#38761d" d="m325.42764 214.2601l-34.393677 -0.99212646l8.818878 -33.244095z" fill-rule="evenodd"/><path stroke="#38761d" stroke-width="1.0" stroke-linejoin="round" stroke-linecap="butt" d="m325.42764 214.2601l-34.393677 -0.99212646l8.818878 -33.244095z" fill-rule="evenodd"/><path fill="#cc0000" d="m296.78098 144.5933l-28.787415 -53.039368l67.68506 31.937012z" fill-rule="evenodd"/><path stroke="#cc0000" stroke-width="1.0" stroke-linejoin="round" stroke-linecap="butt" d="m296.78098 144.5933l-28.787415 -53.039368l67.68506 31.937012z" fill-rule="evenodd"/><path fill="#cc0000" d="m331.65488 120.43202l13.2283325 -58.866142l18.141724 65.92126z" fill-rule="evenodd"/><path stroke="#cc0000" stroke-width="1.0" stroke-linejoin="round" stroke-linecap="butt" d="m331.65488 120.43202l13.2283325 -58.866142l18.141724 65.92126z" fill-rule="evenodd"/><path fill="#cc0000" d="m360.00128 133.2008l49.039368 -35.1811l-23.24408 71.11811z" fill-rule="evenodd"/><path stroke="#cc0000" stroke-width="1.0" stroke-linejoin="round" stroke-linecap="butt" d="m360.00128 133.2008l49.039368 -35.1811l-23.24408 71.11811z" fill-rule="evenodd"/><path fill="#cc0000" d="m292.6273 165.4252l0 0c0 -24.718002 21.158966 -44.755913 47.259857 -44.755913l0 0c12.534088 0 24.55481 4.7153473 33.417755 13.108711c8.862946 8.393356 13.842072 19.777191 13.842072 31.647202l0 0c0 24.718002 -21.158936 44.755905 -47.259827 44.755905l0 0c-26.100891 0 -47.259857 -20.037903 -47.259857 -44.755905z" fill-rule="evenodd"/><path stroke="#000000" stroke-width="1.0" stroke-linejoin="round" stroke-linecap="butt" d="m292.6273 165.4252l0 0c0 -24.718002 21.158966 -44.755913 47.259857 -44.755913l0 0c12.534088 0 24.55481 4.7153473 33.417755 13.108711c8.862946 8.393356 13.842072 19.777191 13.842072 31.647202l0 0c0 24.718002 -21.158936 44.755905 -47.259827 44.755905l0 0c-26.100891 0 -47.259857 -20.037903 -47.259857 -44.755905z" fill-rule="evenodd"/><path fill="#ffe599" d="m302.46982 165.4252l0 0c0 -19.638733 16.75232 -35.559067 37.417328 -35.559067l0 0c9.923676 0 19.440918 3.746399 26.458038 10.415009c7.0171204 6.668625 10.95929 15.713211 10.95929 25.144058l0 0c0 19.638718 -16.75232 35.55905 -37.417328 35.55905l0 0c-20.665009 0 -37.417328 -15.920334 -37.417328 -35.55905z" fill-rule="evenodd"/><path stroke="#000000" stroke-width="1.0" stroke-linejoin="round" stroke-linecap="butt" d="m302.46982 165.4252l0 0c0 -19.638733 16.75232 -35.559067 37.417328 -35.559067l0 0c9.923676 0 19.440918 3.746399 26.458038 10.415009c7.0171204 6.668625 10.95929 15.713211 10.95929 25.144058l0 0c0 19.638718 -16.75232 35.55905 -37.417328 35.55905l0 0c-20.665009 0 -37.417328 -15.920334 -37.417328 -35.55905z" fill-rule="evenodd"/><path fill="#000000" d="m318.77167 152.3517l0 0c0 -5.279312 3.7861633 -9.5590515 8.456665 -9.5590515l0 0c2.242859 0 4.39386 1.0071106 5.9797974 2.7997894c1.5859375 1.7926636 2.4768982 4.224045 2.4768982 6.759262l0 0c0 5.2793274 -3.7861938 9.559067 -8.456696 9.559067l0 0c-4.6705017 0 -8.456665 -4.2797394 -8.456665 -9.559067z" fill-rule="evenodd"/><path stroke="#000000" stroke-width="1.0" stroke-linejoin="round" stroke-linecap="butt" d="m318.77167 152.3517l0 0c0 -5.279312 3.7861633 -9.5590515 8.456665 -9.5590515l0 0c2.242859 0 4.39386 1.0071106 5.9797974 2.7997894c1.5859375 1.7926636 2.4768982 4.224045 2.4768982 6.759262l0 0c0 5.2793274 -3.7861938 9.559067 -8.456696 9.559067l0 0c-4.6705017 0 -8.456665 -4.2797394 -8.456665 -9.559067z" fill-rule="evenodd"/><path fill="#000000" d="m345.4987 152.3517l0 0c0 -5.279312 3.7861938 -9.5590515 8.456696 -9.5590515l0 0c2.242859 0 4.39386 1.0071106 5.9797974 2.7997894c1.5859375 1.7926636 2.4768982 4.224045 2.4768982 6.759262l0 0c0 5.2793274 -3.7861938 9.559067 -8.456696 9.559067l0 0c-4.6705017 0 -8.456696 -4.2797394 -8.456696 -9.559067z" fill-rule="evenodd"/><path stroke="#000000" stroke-width="1.0" stroke-linejoin="round" stroke-linecap="butt" d="m345.4987 152.3517l0 0c0 -5.279312 3.7861938 -9.5590515 8.456696 -9.5590515l0 0c2.242859 0 4.39386 1.0071106 5.9797974 2.7997894c1.5859375 1.7926636 2.4768982 4.224045 2.4768982 6.759262l0 0c0 5.2793274 -3.7861938 9.559067 -8.456696 9.559067l0 0c-4.6705017 0 -8.456696 -4.2797394 -8.456696 -9.559067z" fill-rule="evenodd"/><path fill="#000000" fill-opacity="0.0" d="m323.2953 169.13911c2.6815186 2.6815338 10.558594 15.921692 16.089233 16.089233c5.530609 0.1675415 14.245392 -12.569992 17.094482 -15.083984" fill-rule="evenodd"/><path stroke="#000000" stroke-width="1.0" stroke-linejoin="round" stroke-linecap="butt" d="m323.2953 169.13911c2.6815186 2.6815338 10.558594 15.921692 16.089233 16.089233c5.530609 0.1675415 14.245392 -12.569992 17.094482 -15.083984" fill-rule="evenodd"/><path fill="#6aa84f" d="m259.44357 94.52756l0 0c0 -4.453064 3.7861938 -8.062988 8.456696 -8.062988l0 0c2.242859 0 4.3938293 0.8494873 5.979767 2.3615952c1.5859375 1.5121002 2.4769287 3.5629578 2.4769287 5.701393l0 0c0 4.4530716 -3.7861938 8.062996 -8.456696 8.062996l0 0c-4.6705017 0 -8.456696 -3.6099243 -8.456696 -8.062996z" fill-rule="evenodd"/><path stroke="#000000" stroke-width="1.0" stroke-linejoin="round" stroke-linecap="butt" d="m259.44357 94.52756l0 0c0 -4.453064 3.7861938 -8.062988 8.456696 -8.062988l0 0c2.242859 0 4.3938293 0.8494873 5.979767 2.3615952c1.5859375 1.5121002 2.4769287 3.5629578 2.4769287 5.701393l0 0c0 4.4530716 -3.7861938 8.062996 -8.456696 8.062996l0 0c-4.6705017 0 -8.456696 -3.6099243 -8.456696 -8.062996z" fill-rule="evenodd"/><path fill="#ffff00" d="m335.68503 62.38845l0 0c0 -4.453068 3.7861938 -8.062992 8.456696 -8.062992l0 0c2.242859 0 4.39386 0.8494911 5.9797974 2.3615952c1.5859375 1.512104 2.4768982 3.5629578 2.4768982 5.701397l0 0c0 4.4530716 -3.7861938 8.062996 -8.456696 8.062996l0 0c-4.6705017 0 -8.456696 -3.6099243 -8.456696 -8.062996z" fill-rule="evenodd"/><path stroke="#000000" stroke-width="1.0" stroke-linejoin="round" stroke-linecap="butt" d="m335.68503 62.38845l0 0c0 -4.453068 3.7861938 -8.062992 8.456696 -8.062992l0 0c2.242859 0 4.39386 0.8494911 5.9797974 2.3615952c1.5859375 1.512104 2.4768982 3.5629578 2.4768982 5.701397l0 0c0 4.4530716 -3.7861938 8.062996 -8.456696 8.062996l0 0c-4.6705017 0 -8.456696 -3.6099243 -8.456696 -8.062996z" fill-rule="evenodd"/><path fill="#6fa8dc" d="m397.94226 99.50656l0 0c0 -4.453064 3.7861938 -8.062988 8.456696 -8.062988l0 0c2.242859 0 4.3938293 0.8494873 5.979767 2.3615952c1.5859375 1.5121002 2.4769287 3.5629578 2.4769287 5.701393l0 0c0 4.4530716 -3.7861938 8.062996 -8.456696 8.062996l0 0c-4.6705017 0 -8.456696 -3.6099243 -8.456696 -8.062996z" fill-rule="evenodd"/><path stroke="#000000" stroke-width="1.0" stroke-linejoin="round" stroke-linecap="butt" d="m397.94226 99.50656l0 0c0 -4.453064 3.7861938 -8.062988 8.456696 -8.062988l0 0c2.242859 0 4.3938293 0.8494873 5.979767 2.3615952c1.5859375 1.5121002 2.4769287 3.5629578 2.4769287 5.701393l0 0c0 4.4530716 -3.7861938 8.062996 -8.456696 8.062996l0 0c-4.6705017 0 -8.456696 -3.6099243 -8.456696 -8.062996z" fill-rule="evenodd"/><path fill="#000000" fill-opacity="0.0" d="m220.2231 29.16273l33.196854 0l0 139.9685l-33.196854 0z" fill-rule="evenodd"/><path fill="#000000" d="m230.39497 53.52273l0 -11.453125l1.515625 0l0 5.671875l5.6875 -5.671875l2.0625 0l-4.8125 4.640625l5.015625 6.8125l-2.0 0l-4.078125 -5.796875l-1.875 1.828125l0 3.96875l-1.515625 0z" fill-rule="nonzero"/><path fill="#000000" d="m230.44185 72.52273l0 -11.453121l1.5625 0l6.015625 8.984371l0 -8.984371l1.453125 0l0 11.453121l-1.5625 0l-6.015625 -8.999996l0 8.999996l-1.453125 0z" fill-rule="nonzero"/><path fill="#000000" d="m229.19185 91.52273l4.40625 -11.453125l1.640625 0l4.6875 11.453125l-1.734375 0l-1.328125 -3.46875l-4.796875 0l-1.25 3.46875l-1.625 0zm3.3125 -4.703125l3.890625 0l-1.203125 -3.171875q-0.546875 -1.453125 -0.8125 -2.375q-0.21875 1.09375 -0.609375 2.1875l-1.265625 3.359375zm0.984375 -7.75q0 -0.578125 0.421875 -0.984375q0.421875 -0.421875 0.984375 -0.421875q0.578125 0 0.984375 0.421875q0.421875 0.421875 0.421875 1.015625q0 0.59375 -0.421875 1.015625q-0.40625 0.40625 -0.96875 0.40625q-0.59375 0 -1.015625 -0.40625q-0.40625 -0.421875 -0.40625 -1.046875zm0.59375 0q0 0.375 0.25 0.625q0.25 0.25 0.578125 0.25q0.34375 0 0.578125 -0.25q0.25 -0.25 0.25 -0.609375q0 -0.34375 -0.25 -0.59375q-0.234375 -0.25 -0.578125 -0.25q-0.328125 0 -0.578125 0.25q-0.25 0.234375 -0.25 0.578125z" fill-rule="nonzero"/><path fill="#000000" d="m230.39497 110.52273l0 -11.453125l1.515625 0l0 5.671875l5.6875 -5.671875l2.0625 0l-4.8125 4.640625l5.015625 6.8125l-2.0 0l-4.078125 -5.796875l-1.875 1.828125l0 3.96875l-1.515625 0z" fill-rule="nonzero"/><path fill="#000000" d="m230.48872 129.52274l0 -11.453133l8.28125 0l0 1.34375l-6.765625 0l0 3.515625l6.34375 0l0 1.34375l-6.34375 0l0 3.8906326l7.03125 0l0 1.359375l-8.546875 0z" fill-rule="nonzero"/><path fill="#000000" d="m230.48872 148.52274l0 -11.453125l5.078125 0q1.53125 0 2.328125 0.3125q0.796875 0.296875 1.265625 1.078125q0.484375 0.78125 0.484375 1.734375q0 1.21875 -0.796875 2.0625q-0.78125 0.828125 -2.4375 1.046875q0.609375 0.296875 0.921875 0.578125q0.65625 0.609375 1.25 1.515625l2.0 3.125l-1.90625 0l-1.515625 -2.390625q-0.671875 -1.03125 -1.109375 -1.578125q-0.421875 -0.546875 -0.765625 -0.765625q-0.328125 -0.21875 -0.6875 -0.296875q-0.25 -0.0625 -0.84375 -0.0625l-1.75 0l0 5.09375l-1.515625 0zm1.515625 -6.40625l3.25 0q1.046875 0 1.625 -0.203125q0.59375 -0.21875 0.890625 -0.6875q0.3125 -0.484375 0.3125 -1.03125q0 -0.8125 -0.59375 -1.328125q-0.59375 -0.53125 -1.859375 -0.53125l-3.625 0l0 3.78125z" fill-rule="nonzero"/><path fill="#000000" fill-opacity="0.0" d="m430.30185 228.1811l33.19684 0l0 139.96849l-33.19684 0z" fill-rule="evenodd"/><path fill="#000000" d="m440.47372 252.5411l0 -11.453125l1.515625 0l0 5.671875l5.6875 -5.671875l2.0625 0l-4.8125 4.640625l5.015625 6.8125l-2.0 0l-4.078125 -5.796875l-1.875 1.828125l0 3.96875l-1.515625 0z" fill-rule="nonzero"/><path fill="#000000" d="m440.5206 271.5411l0 -11.453125l1.5625 0l6.015625 8.984375l0 -8.984375l1.453125 0l0 11.453125l-1.5625 0l-6.015625 -9.0l0 9.0l-1.453125 0z" fill-rule="nonzero"/><path fill="#000000" d="m439.2706 290.5411l4.40625 -11.453125l1.640625 0l4.6875 11.453125l-1.734375 0l-1.328125 -3.46875l-4.796875 0l-1.25 3.46875l-1.625 0zm3.3125 -4.703125l3.890625 0l-1.203125 -3.171875q-0.546875 -1.453125 -0.8125 -2.375q-0.21875 1.09375 -0.609375 2.1875l-1.265625 3.359375zm0.984375 -7.75q0 -0.578125 0.421875 -0.984375q0.421875 -0.421875 0.984375 -0.421875q0.578125 0 0.984375 0.421875q0.421875 0.421875 0.421875 1.015625q0 0.59375 -0.421875 1.015625q-0.40625 0.40625 -0.96875 0.40625q-0.59375 0 -1.015625 -0.40625q-0.40625 -0.421875 -0.40625 -1.046875zm0.59375 0q0 0.375 0.25 0.625q0.25 0.25 0.578125 0.25q0.34375 0 0.578125 -0.25q0.25 -0.25 0.25 -0.609375q0 -0.34375 -0.25 -0.59375q-0.234375 -0.25 -0.578125 -0.25q-0.328125 0 -0.578125 0.25q-0.25 0.234375 -0.25 0.578125z" fill-rule="nonzero"/><path fill="#000000" d="m440.47372 309.5411l0 -11.453125l1.515625 0l0 5.671875l5.6875 -5.671875l2.0625 0l-4.8125 4.640625l5.015625 6.8125l-2.0 0l-4.078125 -5.796875l-1.875 1.828125l0 3.96875l-1.515625 0z" fill-rule="nonzero"/><path fill="#000000" d="m440.56747 328.5411l0 -11.453125l8.28125 0l0 1.34375l-6.765625 0l0 3.515625l6.34375 0l0 1.34375l-6.34375 0l0 3.890625l7.03125 0l0 1.359375l-8.546875 0z" fill-rule="nonzero"/><path fill="#000000" d="m440.56747 347.5411l0 -11.453125l5.078125 0q1.53125 0 2.328125 0.3125q0.796875 0.296875 1.265625 1.078125q0.484375 0.78125 0.484375 1.734375q0 1.21875 -0.796875 2.0625q-0.78125 0.828125 -2.4375 1.046875q0.609375 0.296875 0.921875 0.578125q0.65625 0.609375 1.25 1.515625l2.0 3.125l-1.90625 0l-1.515625 -2.390625q-0.671875 -1.03125 -1.109375 -1.578125q-0.421875 -0.546875 -0.765625 -0.765625q-0.328125 -0.21875 -0.6875 -0.296875q-0.25 -0.0625 -0.84375 -0.0625l-1.75 0l0 5.09375l-1.515625 0zm1.515625 -6.40625l3.25 0q1.046875 0 1.625 -0.203125q0.59375 -0.21875 0.890625 -0.6875q0.3125 -0.484375 0.3125 -1.03125q0 -0.8125 -0.59375 -1.328125q-0.59375 -0.53125 -1.859375 -0.53125l-3.625 0l0 3.78125z" fill-rule="nonzero"/></g></svg>