<?xml version="1.0" encoding="UTF-8" standalone="no"?>
<svg
   xmlns:dc="http://purl.org/dc/elements/1.1/"
   xmlns:cc="http://creativecommons.org/ns#"
   xmlns:rdf="http://www.w3.org/1999/02/22-rdf-syntax-ns#"
   xmlns:svg="http://www.w3.org/2000/svg"
   xmlns="http://www.w3.org/2000/svg"
   xmlns:sodipodi="http://sodipodi.sourceforge.net/DTD/sodipodi-0.dtd"
   xmlns:inkscape="http://www.inkscape.org/namespaces/inkscape"
   sodipodi:docname="10.svg"
   inkscape:version="1.0 (4035a4fb49, 2020-05-01)"
   id="svg8"
   version="1.1"
   viewBox="0 0 443 624"
   height="624mm"
   width="443mm">
  <defs
     id="defs2">
    <clipPath
       clipPathUnits="userSpaceOnUse"
       id="clipEmfPath1">
      <path
         d="M 0,0 H 264.09071 V 373.01291 H 0 Z"
         id="path833" />
    </clipPath>
    <pattern
       id="EMFhbasepattern"
       patternUnits="userSpaceOnUse"
       width="6"
       height="6"
       x="0"
       y="0" />
  </defs>
  <sodipodi:namedview
     inkscape:window-maximized="1"
     inkscape:window-y="35"
     inkscape:window-x="-11"
     inkscape:window-height="1000"
     inkscape:window-width="1920"
     showgrid="false"
     inkscape:document-rotation="0"
     inkscape:current-layer="layer1"
     inkscape:document-units="mm"
     inkscape:cy="1053.1238"
     inkscape:cx="1448.6065"
     inkscape:zoom="0.24748738"
     inkscape:pageshadow="2"
     inkscape:pageopacity="0.0"
     borderopacity="1.0"
     bordercolor="#666666"
     pagecolor="#ffffff"
     id="base" />
  <metadata
     id="metadata5">
    <rdf:RDF>
      <cc:Work
         rdf:about="">
        <dc:format>image/svg+xml</dc:format>
        <dc:type
           rdf:resource="http://purl.org/dc/dcmitype/StillImage" />
        <dc:title />
      </cc:Work>
    </rdf:RDF>
  </metadata>
  <g
     id="layer1"
     inkscape:groupmode="layer"
     inkscape:label="Layer 1">
    <text
       xml:space="preserve"
       style="font-style:normal;font-weight:normal;font-size:27.5656px;line-height:1.25;font-family:sans-serif;fill:#000000;fill-opacity:1;stroke:none;stroke-width:0.861423"
       x="26.895372"
       y="60.379772"
       id="text874"><tspan
         sodipodi:role="line"
         x="26.895372"
         y="60.379772"
         style="font-style:normal;font-variant:normal;font-weight:normal;font-stretch:normal;font-size:27.5656px;font-family:Cabin;-inkscape-font-specification:Cabin;stroke-width:0.861423"
         id="tspan884" /></text>
    <text
       id="text1076"
       y="82.548691"
       x="8.4989004"
       style="font-style:normal;font-weight:normal;font-size:56.4444px;line-height:1.25;font-family:sans-serif;fill:#bf2c26;fill-opacity:1;stroke:none;stroke-width:0.264583"
       xml:space="preserve"><tspan
         style="font-style:normal;font-variant:normal;font-weight:normal;font-stretch:normal;font-size:56.4444px;font-family:TechnicLite;-inkscape-font-specification:TechnicLite;fill:#bf2c26;fill-opacity:1;stroke-width:0.264583"
         y="82.548691"
         x="8.4989004"
         id="tspan1074"
         sodipodi:role="line">10</tspan></text>
    <g
       id="layer1-4"
       inkscape:label="Layer 1"
       transform="matrix(2.2142282,0,0,2.2699629,94.440302,94.637945)"
       style="fill:#bf2c26;fill-opacity:1;stroke-width:0.548697;stroke-miterlimit:4;stroke-dasharray:none">
      <path
         style="fill:#bf2c26;fill-opacity:1;stroke:none;stroke-width:0.548697;stroke-linecap:butt;stroke-linejoin:miter;stroke-miterlimit:4;stroke-dasharray:none;stroke-opacity:1"
         d="M 26.860588,44.099473 C 23.17669,33.73823 10.816157,31.905338 7.9929525,24.588796 3.4688555,12.027834 24.698589,3.5423745 27.127856,16.971615 c 4.225973,23.361621 0.959785,14.101824 -0.267268,27.127858 z"
         id="path832"
         sodipodi:nodetypes="ccsc" />
      <path
         sodipodi:nodetypes="ccsc"
         id="path834"
         d="M 26.860588,44.099473 C 30.544486,33.73823 42.905019,31.905338 45.728223,24.588796 50.25232,12.027834 29.022587,3.5423745 26.59332,16.971615 22.367347,40.333236 25.633535,31.073439 26.860588,44.099473 Z"
         style="fill:#bf2c26;fill-opacity:1;stroke:none;stroke-width:0.548697;stroke-linecap:butt;stroke-linejoin:miter;stroke-miterlimit:4;stroke-dasharray:none;stroke-opacity:1" />
    </g>
    <text
       xml:space="preserve"
       style="font-style:normal;font-weight:normal;font-size:56.4444px;line-height:1.25;font-family:sans-serif;fill:#bf2c26;fill-opacity:1;stroke:none;stroke-width:0.264583"
       x="-437.51932"
       y="-551.461"
       id="text969"
       transform="scale(-1)"><tspan
         sodipodi:role="line"
         id="tspan967"
         x="-437.51932"
         y="-551.461"
         style="font-style:normal;font-variant:normal;font-weight:normal;font-stretch:normal;font-size:56.4444px;font-family:TechnicLite;-inkscape-font-specification:TechnicLite;fill:#bf2c26;fill-opacity:1;stroke-width:0.264583">10</tspan></text>
    <g
       style="fill:#bf2c26;fill-opacity:1;stroke-width:0.548697;stroke-miterlimit:4;stroke-dasharray:none"
       transform="matrix(2.2142281,0,0,-2.2699629,244.15258,533.76224)"
       inkscape:label="Layer 1"
       id="layer1-4-4">
      <path
         sodipodi:nodetypes="ccsc"
         id="path832-7"
         d="M 26.860588,44.099473 C 23.17669,33.73823 10.816157,31.905338 7.9929525,24.588796 3.4688555,12.027834 24.698589,3.5423745 27.127856,16.971615 c 4.225973,23.361621 0.959785,14.101824 -0.267268,27.127858 z"
         style="fill:#bf2c26;fill-opacity:1;stroke:none;stroke-width:0.548697;stroke-linecap:butt;stroke-linejoin:miter;stroke-miterlimit:4;stroke-dasharray:none;stroke-opacity:1" />
      <path
         style="fill:#bf2c26;fill-opacity:1;stroke:none;stroke-width:0.548697;stroke-linecap:butt;stroke-linejoin:miter;stroke-miterlimit:4;stroke-dasharray:none;stroke-opacity:1"
         d="M 26.860588,44.099473 C 30.544486,33.73823 42.905019,31.905338 45.728223,24.588796 50.25232,12.027834 29.022587,3.5423745 26.59332,16.971615 22.367347,40.333236 25.633535,31.073439 26.860588,44.099473 Z"
         id="path834-8"
         sodipodi:nodetypes="ccsc" />
    </g>
    <g
       id="g1013"
       inkscape:label="Layer 1"
       transform="matrix(-1.3668075,0,0,1.4012117,79.046588,81.428706)"
       style="fill:#bf2c26;fill-opacity:1;stroke-width:0.548697;stroke-miterlimit:4;stroke-dasharray:none">
      <path
         style="fill:#bf2c26;fill-opacity:1;stroke:none;stroke-width:0.548697;stroke-linecap:butt;stroke-linejoin:miter;stroke-miterlimit:4;stroke-dasharray:none;stroke-opacity:1"
         d="M 26.860588,44.099473 C 23.17669,33.73823 10.816157,31.905338 7.9929525,24.588796 3.4688555,12.027834 24.698589,3.5423745 27.127856,16.971615 c 4.225973,23.361621 0.959785,14.101824 -0.267268,27.127858 z"
         id="path1009"
         sodipodi:nodetypes="ccsc" />
      <path
         sodipodi:nodetypes="ccsc"
         id="path1011"
         d="M 26.860588,44.099473 C 30.544486,33.73823 42.905019,31.905338 45.728223,24.588796 50.25232,12.027834 29.022587,3.5423745 26.59332,16.971615 22.367347,40.333236 25.633535,31.073439 26.860588,44.099473 Z"
         style="fill:#bf2c26;fill-opacity:1;stroke:none;stroke-width:0.548697;stroke-linecap:butt;stroke-linejoin:miter;stroke-miterlimit:4;stroke-dasharray:none;stroke-opacity:1" />
    </g>
    <g
       style="fill:#bf2c26;fill-opacity:1;stroke-width:0.548697;stroke-miterlimit:4;stroke-dasharray:none"
       transform="matrix(1.3668075,0,0,-1.4012117,365.4534,552.05938)"
       inkscape:label="Layer 1"
       id="g1032">
      <path
         sodipodi:nodetypes="ccsc"
         id="path1027"
         d="M 26.860588,44.099473 C 23.17669,33.73823 10.816157,31.905338 7.9929525,24.588796 3.4688555,12.027834 24.698589,3.5423745 27.127856,16.971615 c 4.225973,23.361621 0.959785,14.101824 -0.267268,27.127858 z"
         style="fill:#bf2c26;fill-opacity:1;stroke:none;stroke-width:0.548697;stroke-linecap:butt;stroke-linejoin:miter;stroke-miterlimit:4;stroke-dasharray:none;stroke-opacity:1" />
      <path
         style="fill:#bf2c26;fill-opacity:1;stroke:none;stroke-width:0.548697;stroke-linecap:butt;stroke-linejoin:miter;stroke-miterlimit:4;stroke-dasharray:none;stroke-opacity:1"
         d="M 26.860588,44.099473 C 30.544486,33.73823 42.905019,31.905338 45.728223,24.588796 50.25232,12.027834 29.022587,3.5423745 26.59332,16.971615 22.367347,40.333236 25.633535,31.073439 26.860588,44.099473 Z"
         id="path1029"
         sodipodi:nodetypes="ccsc" />
    </g>
    <g
       id="g869"
       inkscape:label="Layer 1"
       transform="matrix(2.2142281,0,0,-2.2699629,97.94065,531.85965)"
       style="fill:#bf2c26;fill-opacity:1;stroke-width:0.548697;stroke-miterlimit:4;stroke-dasharray:none">
      <path
         style="fill:#bf2c26;fill-opacity:1;stroke:none;stroke-width:0.548697;stroke-linecap:butt;stroke-linejoin:miter;stroke-miterlimit:4;stroke-dasharray:none;stroke-opacity:1"
         d="M 26.860588,44.099473 C 23.17669,33.73823 10.816157,31.905338 7.9929525,24.588796 3.4688555,12.027834 24.698589,3.5423745 27.127856,16.971615 c 4.225973,23.361621 0.959785,14.101824 -0.267268,27.127858 z"
         id="path865"
         sodipodi:nodetypes="ccsc" />
      <path
         sodipodi:nodetypes="ccsc"
         id="path867"
         d="M 26.860588,44.099473 C 30.544486,33.73823 42.905019,31.905338 45.728223,24.588796 50.25232,12.027834 29.022587,3.5423745 26.59332,16.971615 22.367347,40.333236 25.633535,31.073439 26.860588,44.099473 Z"
         style="fill:#bf2c26;fill-opacity:1;stroke:none;stroke-width:0.548697;stroke-linecap:butt;stroke-linejoin:miter;stroke-miterlimit:4;stroke-dasharray:none;stroke-opacity:1" />
    </g>
    <g
       style="fill:#bf2c26;fill-opacity:1;stroke-width:0.548697;stroke-miterlimit:4;stroke-dasharray:none"
       transform="matrix(2.2142281,0,0,2.2699629,238.07126,94.637945)"
       inkscape:label="Layer 1"
       id="g864">
      <path
         sodipodi:nodetypes="ccsc"
         id="path860"
         d="M 26.860588,44.099473 C 23.17669,33.73823 10.816157,31.905338 7.9929525,24.588796 3.4688555,12.027834 24.698589,3.5423745 27.127856,16.971615 c 4.225973,23.361621 0.959785,14.101824 -0.267268,27.127858 z"
         style="fill:#bf2c26;fill-opacity:1;stroke:none;stroke-width:0.548697;stroke-linecap:butt;stroke-linejoin:miter;stroke-miterlimit:4;stroke-dasharray:none;stroke-opacity:1" />
      <path
         style="fill:#bf2c26;fill-opacity:1;stroke:none;stroke-width:0.548697;stroke-linecap:butt;stroke-linejoin:miter;stroke-miterlimit:4;stroke-dasharray:none;stroke-opacity:1"
         d="M 26.860588,44.099473 C 30.544486,33.73823 42.905019,31.905338 45.728223,24.588796 50.25232,12.027834 29.022587,3.5423745 26.59332,16.971615 22.367347,40.333236 25.633535,31.073439 26.860588,44.099473 Z"
         id="path862"
         sodipodi:nodetypes="ccsc" />
    </g>
    <g
       id="g878"
       inkscape:label="Layer 1"
       transform="matrix(2.2142281,0,0,-2.2699629,242.64068,428.68486)"
       style="fill:#bf2c26;fill-opacity:1;stroke-width:0.548697;stroke-miterlimit:4;stroke-dasharray:none">
      <path
         style="fill:#bf2c26;fill-opacity:1;stroke:none;stroke-width:0.548697;stroke-linecap:butt;stroke-linejoin:miter;stroke-miterlimit:4;stroke-dasharray:none;stroke-opacity:1"
         d="M 26.860588,44.099473 C 23.17669,33.73823 10.816157,31.905338 7.9929525,24.588796 3.4688555,12.027834 24.698589,3.5423745 27.127856,16.971615 c 4.225973,23.361621 0.959785,14.101824 -0.267268,27.127858 z"
         id="path874"
         sodipodi:nodetypes="ccsc" />
      <path
         sodipodi:nodetypes="ccsc"
         id="path876"
         d="M 26.860588,44.099473 C 30.544486,33.73823 42.905019,31.905338 45.728223,24.588796 50.25232,12.027834 29.022587,3.5423745 26.59332,16.971615 22.367347,40.333236 25.633535,31.073439 26.860588,44.099473 Z"
         style="fill:#bf2c26;fill-opacity:1;stroke:none;stroke-width:0.548697;stroke-linecap:butt;stroke-linejoin:miter;stroke-miterlimit:4;stroke-dasharray:none;stroke-opacity:1" />
    </g>
    <g
       style="fill:#bf2c26;fill-opacity:1;stroke-width:0.548697;stroke-miterlimit:4;stroke-dasharray:none"
       transform="matrix(2.2142281,0,0,-2.2699629,96.428746,426.78227)"
       inkscape:label="Layer 1"
       id="g884">
      <path
         sodipodi:nodetypes="ccsc"
         id="path880"
         d="M 26.860588,44.099473 C 23.17669,33.73823 10.816157,31.905338 7.9929525,24.588796 3.4688555,12.027834 24.698589,3.5423745 27.127856,16.971615 c 4.225973,23.361621 0.959785,14.101824 -0.267268,27.127858 z"
         style="fill:#bf2c26;fill-opacity:1;stroke:none;stroke-width:0.548697;stroke-linecap:butt;stroke-linejoin:miter;stroke-miterlimit:4;stroke-dasharray:none;stroke-opacity:1" />
      <path
         style="fill:#bf2c26;fill-opacity:1;stroke:none;stroke-width:0.548697;stroke-linecap:butt;stroke-linejoin:miter;stroke-miterlimit:4;stroke-dasharray:none;stroke-opacity:1"
         d="M 26.860588,44.099473 C 30.544486,33.73823 42.905019,31.905338 45.728223,24.588796 50.25232,12.027834 29.022587,3.5423745 26.59332,16.971615 22.367347,40.333236 25.633535,31.073439 26.860588,44.099473 Z"
         id="path882"
         sodipodi:nodetypes="ccsc" />
    </g>
    <g
       style="fill:#bf2c26;fill-opacity:1;stroke-width:0.548697;stroke-miterlimit:4;stroke-dasharray:none"
       transform="matrix(2.2142282,0,0,2.2699629,97.464111,199.71533)"
       inkscape:label="Layer 1"
       id="g887">
      <path
         sodipodi:nodetypes="ccsc"
         id="path883"
         d="M 26.860588,44.099473 C 23.17669,33.73823 10.816157,31.905338 7.9929525,24.588796 3.4688555,12.027834 24.698589,3.5423745 27.127856,16.971615 c 4.225973,23.361621 0.959785,14.101824 -0.267268,27.127858 z"
         style="fill:#bf2c26;fill-opacity:1;stroke:none;stroke-width:0.548697;stroke-linecap:butt;stroke-linejoin:miter;stroke-miterlimit:4;stroke-dasharray:none;stroke-opacity:1" />
      <path
         style="fill:#bf2c26;fill-opacity:1;stroke:none;stroke-width:0.548697;stroke-linecap:butt;stroke-linejoin:miter;stroke-miterlimit:4;stroke-dasharray:none;stroke-opacity:1"
         d="M 26.860588,44.099473 C 30.544486,33.73823 42.905019,31.905338 45.728223,24.588796 50.25232,12.027834 29.022587,3.5423745 26.59332,16.971615 22.367347,40.333236 25.633535,31.073439 26.860588,44.099473 Z"
         id="path885"
         sodipodi:nodetypes="ccsc" />
    </g>
    <g
       id="g893"
       inkscape:label="Layer 1"
       transform="matrix(2.2142281,0,0,2.2699629,241.09507,199.71533)"
       style="fill:#bf2c26;fill-opacity:1;stroke-width:0.548697;stroke-miterlimit:4;stroke-dasharray:none">
      <path
         style="fill:#bf2c26;fill-opacity:1;stroke:none;stroke-width:0.548697;stroke-linecap:butt;stroke-linejoin:miter;stroke-miterlimit:4;stroke-dasharray:none;stroke-opacity:1"
         d="M 26.860588,44.099473 C 23.17669,33.73823 10.816157,31.905338 7.9929525,24.588796 3.4688555,12.027834 24.698589,3.5423745 27.127856,16.971615 c 4.225973,23.361621 0.959785,14.101824 -0.267268,27.127858 z"
         id="path889"
         sodipodi:nodetypes="ccsc" />
      <path
         sodipodi:nodetypes="ccsc"
         id="path891"
         d="M 26.860588,44.099473 C 30.544486,33.73823 42.905019,31.905338 45.728223,24.588796 50.25232,12.027834 29.022587,3.5423745 26.59332,16.971615 22.367347,40.333236 25.633535,31.073439 26.860588,44.099473 Z"
         style="fill:#bf2c26;fill-opacity:1;stroke:none;stroke-width:0.548697;stroke-linecap:butt;stroke-linejoin:miter;stroke-miterlimit:4;stroke-dasharray:none;stroke-opacity:1" />
    </g>
    <g
       style="fill:#bf2c26;fill-opacity:1;stroke-width:0.548697;stroke-miterlimit:4;stroke-dasharray:none"
       transform="matrix(2.2142282,0,0,2.2699629,170.03554,148.31055)"
       inkscape:label="Layer 1"
       id="g899">
      <path
         sodipodi:nodetypes="ccsc"
         id="path895"
         d="M 26.860588,44.099473 C 23.17669,33.73823 10.816157,31.905338 7.9929525,24.588796 3.4688555,12.027834 24.698589,3.5423745 27.127856,16.971615 c 4.225973,23.361621 0.959785,14.101824 -0.267268,27.127858 z"
         style="fill:#bf2c26;fill-opacity:1;stroke:none;stroke-width:0.548697;stroke-linecap:butt;stroke-linejoin:miter;stroke-miterlimit:4;stroke-dasharray:none;stroke-opacity:1" />
      <path
         style="fill:#bf2c26;fill-opacity:1;stroke:none;stroke-width:0.548697;stroke-linecap:butt;stroke-linejoin:miter;stroke-miterlimit:4;stroke-dasharray:none;stroke-opacity:1"
         d="M 26.860588,44.099473 C 30.544486,33.73823 42.905019,31.905338 45.728223,24.588796 50.25232,12.027834 29.022587,3.5423745 26.59332,16.971615 22.367347,40.333236 25.633535,31.073439 26.860588,44.099473 Z"
         id="path897"
         sodipodi:nodetypes="ccsc" />
    </g>
    <g
       id="g877"
       inkscape:label="Layer 1"
       transform="matrix(2.2142282,0,0,-2.2699629,172.30339,480.86749)"
       style="fill:#bf2c26;fill-opacity:1;stroke-width:0.548697;stroke-miterlimit:4;stroke-dasharray:none">
      <path
         style="fill:#bf2c26;fill-opacity:1;stroke:none;stroke-width:0.548697;stroke-linecap:butt;stroke-linejoin:miter;stroke-miterlimit:4;stroke-dasharray:none;stroke-opacity:1"
         d="M 26.860588,44.099473 C 23.17669,33.73823 10.816157,31.905338 7.9929525,24.588796 3.4688555,12.027834 24.698589,3.5423745 27.127856,16.971615 c 4.225973,23.361621 0.959785,14.101824 -0.267268,27.127858 z"
         id="path872"
         sodipodi:nodetypes="ccsc" />
      <path
         sodipodi:nodetypes="ccsc"
         id="path875"
         d="M 26.860588,44.099473 C 30.544486,33.73823 42.905019,31.905338 45.728223,24.588796 50.25232,12.027834 29.022587,3.5423745 26.59332,16.971615 22.367347,40.333236 25.633535,31.073439 26.860588,44.099473 Z"
         style="fill:#bf2c26;fill-opacity:1;stroke:none;stroke-width:0.548697;stroke-linecap:butt;stroke-linejoin:miter;stroke-miterlimit:4;stroke-dasharray:none;stroke-opacity:1" />
    </g>
  </g>
</svg>
