<?xml version="1.0" encoding="UTF-8" standalone="no"?>
<svg
   xmlns:dc="http://purl.org/dc/elements/1.1/"
   xmlns:cc="http://creativecommons.org/ns#"
   xmlns:rdf="http://www.w3.org/1999/02/22-rdf-syntax-ns#"
   xmlns:svg="http://www.w3.org/2000/svg"
   xmlns="http://www.w3.org/2000/svg"
   xmlns:sodipodi="http://sodipodi.sourceforge.net/DTD/sodipodi-0.dtd"
   xmlns:inkscape="http://www.inkscape.org/namespaces/inkscape"
   width="443mm"
   height="624mm"
   viewBox="0 0 443 624"
   version="1.1"
   id="svg8"
   inkscape:version="1.0 (4035a4fb49, 2020-05-01)"
   sodipodi:docname="7.svg">
  <defs
     id="defs2">
    <clipPath
       id="clipEmfPath1"
       clipPathUnits="userSpaceOnUse">
      <path
         id="path833"
         d="M 0,0 H 264.09071 V 373.01291 H 0 Z" />
    </clipPath>
    <pattern
       y="0"
       x="0"
       height="6"
       width="6"
       patternUnits="userSpaceOnUse"
       id="EMFhbasepattern" />
  </defs>
  <sodipodi:namedview
     id="base"
     pagecolor="#ffffff"
     bordercolor="#666666"
     borderopacity="1.0"
     inkscape:pageopacity="0.0"
     inkscape:pageshadow="2"
     inkscape:zoom="0.24748738"
     inkscape:cx="1071.7339"
     inkscape:cy="1023.8686"
     inkscape:document-units="mm"
     inkscape:current-layer="layer1"
     inkscape:document-rotation="0"
     showgrid="false"
     inkscape:window-width="1920"
     inkscape:window-height="1000"
     inkscape:window-x="-11"
     inkscape:window-y="35"
     inkscape:window-maximized="1" />
  <metadata
     id="metadata5">
    <rdf:RDF>
      <cc:Work
         rdf:about="">
        <dc:format>image/svg+xml</dc:format>
        <dc:type
           rdf:resource="http://purl.org/dc/dcmitype/StillImage" />
        <dc:title />
      </cc:Work>
    </rdf:RDF>
  </metadata>
  <g
     inkscape:label="Layer 1"
     inkscape:groupmode="layer"
     id="layer1">
    <text
       id="text874"
       y="60.379772"
       x="26.895372"
       style="font-style:normal;font-weight:normal;font-size:27.5656px;line-height:1.25;font-family:sans-serif;fill:#000000;fill-opacity:1;stroke:none;stroke-width:0.861423"
       xml:space="preserve"><tspan
         id="tspan884"
         style="font-style:normal;font-variant:normal;font-weight:normal;font-stretch:normal;font-size:27.5656px;font-family:Cabin;-inkscape-font-specification:Cabin;stroke-width:0.861423"
         y="60.379772"
         x="26.895372"
         sodipodi:role="line" /></text>
    <text
       xml:space="preserve"
       style="font-style:normal;font-weight:normal;font-size:56.4444px;line-height:1.25;font-family:sans-serif;fill:#bf2c26;fill-opacity:1;stroke:none;stroke-width:0.264583"
       x="23.465994"
       y="82.548691"
       id="text1076"><tspan
         sodipodi:role="line"
         id="tspan1074"
         x="23.465994"
         y="82.548691"
         style="font-style:normal;font-variant:normal;font-weight:normal;font-stretch:normal;font-size:56.4444px;font-family:TechnicLite;-inkscape-font-specification:TechnicLite;fill:#bf2c26;fill-opacity:1;stroke-width:0.264583">7</tspan></text>
    <g
       style="fill:#bf2c26;fill-opacity:1;stroke-width:0.548697;stroke-miterlimit:4;stroke-dasharray:none"
       transform="matrix(2.2142282,0,0,2.2699629,94.440302,94.637945)"
       inkscape:label="Layer 1"
       id="layer1-4">
      <path
         sodipodi:nodetypes="ccsc"
         id="path832"
         d="M 26.860588,44.099473 C 23.17669,33.73823 10.816157,31.905338 7.9929525,24.588796 3.4688555,12.027834 24.698589,3.5423745 27.127856,16.971615 c 4.225973,23.361621 0.959785,14.101824 -0.267268,27.127858 z"
         style="fill:#bf2c26;fill-opacity:1;stroke:none;stroke-width:0.548697;stroke-linecap:butt;stroke-linejoin:miter;stroke-miterlimit:4;stroke-dasharray:none;stroke-opacity:1" />
      <path
         style="fill:#bf2c26;fill-opacity:1;stroke:none;stroke-width:0.548697;stroke-linecap:butt;stroke-linejoin:miter;stroke-miterlimit:4;stroke-dasharray:none;stroke-opacity:1"
         d="M 26.860588,44.099473 C 30.544486,33.73823 42.905019,31.905338 45.728223,24.588796 50.25232,12.027834 29.022587,3.5423745 26.59332,16.971615 22.367347,40.333236 25.633535,31.073439 26.860588,44.099473 Z"
         id="path834"
         sodipodi:nodetypes="ccsc" />
    </g>
    <text
       transform="scale(-1)"
       id="text969"
       y="-549.32281"
       x="-423.62131"
       style="font-style:normal;font-weight:normal;font-size:56.4444px;line-height:1.25;font-family:sans-serif;fill:#bf2c26;fill-opacity:1;stroke:none;stroke-width:0.264583"
       xml:space="preserve"><tspan
         style="font-style:normal;font-variant:normal;font-weight:normal;font-stretch:normal;font-size:56.4444px;font-family:TechnicLite;-inkscape-font-specification:TechnicLite;fill:#bf2c26;fill-opacity:1;stroke-width:0.264583"
         y="-549.32281"
         x="-423.62131"
         id="tspan967"
         sodipodi:role="line">7</tspan></text>
    <g
       id="layer1-4-4"
       inkscape:label="Layer 1"
       transform="matrix(2.2142281,0,0,-2.2699629,244.15258,533.76224)"
       style="fill:#bf2c26;fill-opacity:1;stroke-width:0.548697;stroke-miterlimit:4;stroke-dasharray:none">
      <path
         style="fill:#bf2c26;fill-opacity:1;stroke:none;stroke-width:0.548697;stroke-linecap:butt;stroke-linejoin:miter;stroke-miterlimit:4;stroke-dasharray:none;stroke-opacity:1"
         d="M 26.860588,44.099473 C 23.17669,33.73823 10.816157,31.905338 7.9929525,24.588796 3.4688555,12.027834 24.698589,3.5423745 27.127856,16.971615 c 4.225973,23.361621 0.959785,14.101824 -0.267268,27.127858 z"
         id="path832-7"
         sodipodi:nodetypes="ccsc" />
      <path
         sodipodi:nodetypes="ccsc"
         id="path834-8"
         d="M 26.860588,44.099473 C 30.544486,33.73823 42.905019,31.905338 45.728223,24.588796 50.25232,12.027834 29.022587,3.5423745 26.59332,16.971615 22.367347,40.333236 25.633535,31.073439 26.860588,44.099473 Z"
         style="fill:#bf2c26;fill-opacity:1;stroke:none;stroke-width:0.548697;stroke-linecap:butt;stroke-linejoin:miter;stroke-miterlimit:4;stroke-dasharray:none;stroke-opacity:1" />
    </g>
    <g
       style="fill:#bf2c26;fill-opacity:1;stroke-width:0.548697;stroke-miterlimit:4;stroke-dasharray:none"
       transform="matrix(-1.3668075,0,0,1.4012117,79.046588,81.428706)"
       inkscape:label="Layer 1"
       id="g1013">
      <path
         sodipodi:nodetypes="ccsc"
         id="path1009"
         d="M 26.860588,44.099473 C 23.17669,33.73823 10.816157,31.905338 7.9929525,24.588796 3.4688555,12.027834 24.698589,3.5423745 27.127856,16.971615 c 4.225973,23.361621 0.959785,14.101824 -0.267268,27.127858 z"
         style="fill:#bf2c26;fill-opacity:1;stroke:none;stroke-width:0.548697;stroke-linecap:butt;stroke-linejoin:miter;stroke-miterlimit:4;stroke-dasharray:none;stroke-opacity:1" />
      <path
         style="fill:#bf2c26;fill-opacity:1;stroke:none;stroke-width:0.548697;stroke-linecap:butt;stroke-linejoin:miter;stroke-miterlimit:4;stroke-dasharray:none;stroke-opacity:1"
         d="M 26.860588,44.099473 C 30.544486,33.73823 42.905019,31.905338 45.728223,24.588796 50.25232,12.027834 29.022587,3.5423745 26.59332,16.971615 22.367347,40.333236 25.633535,31.073439 26.860588,44.099473 Z"
         id="path1011"
         sodipodi:nodetypes="ccsc" />
    </g>
    <g
       id="g1032"
       inkscape:label="Layer 1"
       transform="matrix(1.3668075,0,0,-1.4012117,365.4534,552.05938)"
       style="fill:#bf2c26;fill-opacity:1;stroke-width:0.548697;stroke-miterlimit:4;stroke-dasharray:none">
      <path
         style="fill:#bf2c26;fill-opacity:1;stroke:none;stroke-width:0.548697;stroke-linecap:butt;stroke-linejoin:miter;stroke-miterlimit:4;stroke-dasharray:none;stroke-opacity:1"
         d="M 26.860588,44.099473 C 23.17669,33.73823 10.816157,31.905338 7.9929525,24.588796 3.4688555,12.027834 24.698589,3.5423745 27.127856,16.971615 c 4.225973,23.361621 0.959785,14.101824 -0.267268,27.127858 z"
         id="path1027"
         sodipodi:nodetypes="ccsc" />
      <path
         sodipodi:nodetypes="ccsc"
         id="path1029"
         d="M 26.860588,44.099473 C 30.544486,33.73823 42.905019,31.905338 45.728223,24.588796 50.25232,12.027834 29.022587,3.5423745 26.59332,16.971615 22.367347,40.333236 25.633535,31.073439 26.860588,44.099473 Z"
         style="fill:#bf2c26;fill-opacity:1;stroke:none;stroke-width:0.548697;stroke-linecap:butt;stroke-linejoin:miter;stroke-miterlimit:4;stroke-dasharray:none;stroke-opacity:1" />
    </g>
    <g
       style="fill:#bf2c26;fill-opacity:1;stroke-width:0.548697;stroke-miterlimit:4;stroke-dasharray:none"
       transform="matrix(2.2142281,0,0,-2.2699629,97.94065,531.85965)"
       inkscape:label="Layer 1"
       id="g869">
      <path
         sodipodi:nodetypes="ccsc"
         id="path865"
         d="M 26.860588,44.099473 C 23.17669,33.73823 10.816157,31.905338 7.9929525,24.588796 3.4688555,12.027834 24.698589,3.5423745 27.127856,16.971615 c 4.225973,23.361621 0.959785,14.101824 -0.267268,27.127858 z"
         style="fill:#bf2c26;fill-opacity:1;stroke:none;stroke-width:0.548697;stroke-linecap:butt;stroke-linejoin:miter;stroke-miterlimit:4;stroke-dasharray:none;stroke-opacity:1" />
      <path
         style="fill:#bf2c26;fill-opacity:1;stroke:none;stroke-width:0.548697;stroke-linecap:butt;stroke-linejoin:miter;stroke-miterlimit:4;stroke-dasharray:none;stroke-opacity:1"
         d="M 26.860588,44.099473 C 30.544486,33.73823 42.905019,31.905338 45.728223,24.588796 50.25232,12.027834 29.022587,3.5423745 26.59332,16.971615 22.367347,40.333236 25.633535,31.073439 26.860588,44.099473 Z"
         id="path867"
         sodipodi:nodetypes="ccsc" />
    </g>
    <g
       id="g864"
       inkscape:label="Layer 1"
       transform="matrix(2.2142281,0,0,2.2699629,238.07126,94.637945)"
       style="fill:#bf2c26;fill-opacity:1;stroke-width:0.548697;stroke-miterlimit:4;stroke-dasharray:none">
      <path
         style="fill:#bf2c26;fill-opacity:1;stroke:none;stroke-width:0.548697;stroke-linecap:butt;stroke-linejoin:miter;stroke-miterlimit:4;stroke-dasharray:none;stroke-opacity:1"
         d="M 26.860588,44.099473 C 23.17669,33.73823 10.816157,31.905338 7.9929525,24.588796 3.4688555,12.027834 24.698589,3.5423745 27.127856,16.971615 c 4.225973,23.361621 0.959785,14.101824 -0.267268,27.127858 z"
         id="path860"
         sodipodi:nodetypes="ccsc" />
      <path
         sodipodi:nodetypes="ccsc"
         id="path862"
         d="M 26.860588,44.099473 C 30.544486,33.73823 42.905019,31.905338 45.728223,24.588796 50.25232,12.027834 29.022587,3.5423745 26.59332,16.971615 22.367347,40.333236 25.633535,31.073439 26.860588,44.099473 Z"
         style="fill:#bf2c26;fill-opacity:1;stroke:none;stroke-width:0.548697;stroke-linecap:butt;stroke-linejoin:miter;stroke-miterlimit:4;stroke-dasharray:none;stroke-opacity:1" />
    </g>
    <g
       style="fill:#bf2c26;fill-opacity:1;stroke-width:0.548697;stroke-miterlimit:4;stroke-dasharray:none"
       transform="matrix(2.2142281,0,0,-2.2699629,243.39663,380.30391)"
       inkscape:label="Layer 1"
       id="g878">
      <path
         sodipodi:nodetypes="ccsc"
         id="path874"
         d="M 26.860588,44.099473 C 23.17669,33.73823 10.816157,31.905338 7.9929525,24.588796 3.4688555,12.027834 24.698589,3.5423745 27.127856,16.971615 c 4.225973,23.361621 0.959785,14.101824 -0.267268,27.127858 z"
         style="fill:#bf2c26;fill-opacity:1;stroke:none;stroke-width:0.548697;stroke-linecap:butt;stroke-linejoin:miter;stroke-miterlimit:4;stroke-dasharray:none;stroke-opacity:1" />
      <path
         style="fill:#bf2c26;fill-opacity:1;stroke:none;stroke-width:0.548697;stroke-linecap:butt;stroke-linejoin:miter;stroke-miterlimit:4;stroke-dasharray:none;stroke-opacity:1"
         d="M 26.860588,44.099473 C 30.544486,33.73823 42.905019,31.905338 45.728223,24.588796 50.25232,12.027834 29.022587,3.5423745 26.59332,16.971615 22.367347,40.333236 25.633535,31.073439 26.860588,44.099473 Z"
         id="path876"
         sodipodi:nodetypes="ccsc" />
    </g>
    <g
       id="g884"
       inkscape:label="Layer 1"
       transform="matrix(2.2142281,0,0,-2.2699629,97.184698,378.40132)"
       style="fill:#bf2c26;fill-opacity:1;stroke-width:0.548697;stroke-miterlimit:4;stroke-dasharray:none">
      <path
         style="fill:#bf2c26;fill-opacity:1;stroke:none;stroke-width:0.548697;stroke-linecap:butt;stroke-linejoin:miter;stroke-miterlimit:4;stroke-dasharray:none;stroke-opacity:1"
         d="M 26.860588,44.099473 C 23.17669,33.73823 10.816157,31.905338 7.9929525,24.588796 3.4688555,12.027834 24.698589,3.5423745 27.127856,16.971615 c 4.225973,23.361621 0.959785,14.101824 -0.267268,27.127858 z"
         id="path880"
         sodipodi:nodetypes="ccsc" />
      <path
         sodipodi:nodetypes="ccsc"
         id="path882"
         d="M 26.860588,44.099473 C 30.544486,33.73823 42.905019,31.905338 45.728223,24.588796 50.25232,12.027834 29.022587,3.5423745 26.59332,16.971615 22.367347,40.333236 25.633535,31.073439 26.860588,44.099473 Z"
         style="fill:#bf2c26;fill-opacity:1;stroke:none;stroke-width:0.548697;stroke-linecap:butt;stroke-linejoin:miter;stroke-miterlimit:4;stroke-dasharray:none;stroke-opacity:1" />
    </g>
    <g
       id="g868"
       inkscape:label="Layer 1"
       transform="matrix(2.2142281,0,0,-2.2699629,172.15369,464.21462)"
       style="fill:#bf2c26;fill-opacity:1;stroke-width:0.548697;stroke-miterlimit:4;stroke-dasharray:none">
      <path
         style="fill:#bf2c26;fill-opacity:1;stroke:none;stroke-width:0.548697;stroke-linecap:butt;stroke-linejoin:miter;stroke-miterlimit:4;stroke-dasharray:none;stroke-opacity:1"
         d="M 26.860588,44.099473 C 23.17669,33.73823 10.816157,31.905338 7.9929525,24.588796 3.4688555,12.027834 24.698589,3.5423745 27.127856,16.971615 c 4.225973,23.361621 0.959785,14.101824 -0.267268,27.127858 z"
         id="path863"
         sodipodi:nodetypes="ccsc" />
      <path
         sodipodi:nodetypes="ccsc"
         id="path866"
         d="M 26.860588,44.099473 C 30.544486,33.73823 42.905019,31.905338 45.728223,24.588796 50.25232,12.027834 29.022587,3.5423745 26.59332,16.971615 22.367347,40.333236 25.633535,31.073439 26.860588,44.099473 Z"
         style="fill:#bf2c26;fill-opacity:1;stroke:none;stroke-width:0.548697;stroke-linecap:butt;stroke-linejoin:miter;stroke-miterlimit:4;stroke-dasharray:none;stroke-opacity:1" />
    </g>
  </g>
</svg>
