<?xml version="1.0" encoding="UTF-8" standalone="no"?>
<svg
   xmlns:dc="http://purl.org/dc/elements/1.1/"
   xmlns:cc="http://creativecommons.org/ns#"
   xmlns:rdf="http://www.w3.org/1999/02/22-rdf-syntax-ns#"
   xmlns:svg="http://www.w3.org/2000/svg"
   xmlns="http://www.w3.org/2000/svg"
   xmlns:xlink="http://www.w3.org/1999/xlink"
   xmlns:sodipodi="http://sodipodi.sourceforge.net/DTD/sodipodi-0.dtd"
   xmlns:inkscape="http://www.inkscape.org/namespaces/inkscape"
   sodipodi:docname="knug.svg"
   inkscape:version="1.0 (4035a4fb49, 2020-05-01)"
   id="svg8"
   version="1.1"
   viewBox="0 0 443 624"
   height="624mm"
   width="443mm">
  <defs
     id="defs2">
    <pattern
       patternTransform="matrix(8.5,0,0,8.5,30.531242,18.364686)"
       id="pattern3461"
       xlink:href="#Polkadots-med"
       inkscape:collect="always" />
    <pattern
       patternTransform="matrix(8.5,0,0,8.5,30.531242,18.364686)"
       id="pattern3459"
       xlink:href="#Polkadots-med"
       inkscape:collect="always" />
    <pattern
       inkscape:collect="always"
       patternUnits="userSpaceOnUse"
       width="10"
       height="10"
       patternTransform="translate(0,0) scale(10,10)"
       id="Polkadots-med"
       inkscape:stockid="Polka dots, medium">
      <circle
         style="fill:black;stroke:none"
         cx="2.567"
         cy="0.810"
         r="0.15"
         id="circle2460" />
      <circle
         style="fill:black;stroke:none"
         cx="3.048"
         cy="2.33"
         r="0.15"
         id="circle2462" />
      <circle
         style="fill:black;stroke:none"
         cx="4.418"
         cy="2.415"
         r="0.15"
         id="circle2464" />
      <circle
         style="fill:black;stroke:none"
         cx="1.844"
         cy="3.029"
         r="0.15"
         id="circle2466" />
      <circle
         style="fill:black;stroke:none"
         cx="6.08"
         cy="1.363"
         r="0.15"
         id="circle2468" />
      <circle
         style="fill:black;stroke:none"
         cx="5.819"
         cy="4.413"
         r="0.15"
         id="circle2470" />
      <circle
         style="fill:black;stroke:none"
         cx="4.305"
         cy="4.048"
         r="0.15"
         id="circle2472" />
      <circle
         style="fill:black;stroke:none"
         cx="5.541"
         cy="3.045"
         r="0.15"
         id="circle2474" />
      <circle
         style="fill:black;stroke:none"
         cx="4.785"
         cy="5.527"
         r="0.15"
         id="circle2476" />
      <circle
         style="fill:black;stroke:none"
         cx="2.667"
         cy="5.184"
         r="0.15"
         id="circle2478" />
      <circle
         style="fill:black;stroke:none"
         cx="7.965"
         cy="1.448"
         r="0.15"
         id="circle2480" />
      <circle
         style="fill:black;stroke:none"
         cx="7.047"
         cy="5.049"
         r="0.15"
         id="circle2482" />
      <circle
         style="fill:black;stroke:none"
         cx="4.340"
         cy="0.895"
         r="0.15"
         id="circle2484" />
      <circle
         style="fill:black;stroke:none"
         cx="7.125"
         cy="0.340"
         r="0.15"
         id="circle2486" />
      <circle
         style="fill:black;stroke:none"
         cx="9.553"
         cy="1.049"
         r="0.15"
         id="circle2488" />
      <circle
         style="fill:black;stroke:none"
         cx="7.006"
         cy="2.689"
         r="0.15"
         id="circle2490" />
      <circle
         style="fill:black;stroke:none"
         cx="8.909"
         cy="2.689"
         r="0.15"
         id="circle2492" />
      <circle
         style="fill:black;stroke:none"
         cx="9.315"
         cy="4.407"
         r="0.15"
         id="circle2494" />
      <circle
         style="fill:black;stroke:none"
         cx="7.820"
         cy="3.870"
         r="0.15"
         id="circle2496" />
      <circle
         style="fill:black;stroke:none"
         cx="8.270"
         cy="5.948"
         r="0.15"
         id="circle2498" />
      <circle
         style="fill:black;stroke:none"
         cx="7.973"
         cy="7.428"
         r="0.15"
         id="circle2500" />
      <circle
         style="fill:black;stroke:none"
         cx="9.342"
         cy="8.072"
         r="0.15"
         id="circle2502" />
      <circle
         style="fill:black;stroke:none"
         cx="8.206"
         cy="9.315"
         r="0.15"
         id="circle2504" />
      <circle
         style="fill:black;stroke:none"
         cx="9.682"
         cy="9.475"
         r="0.15"
         id="circle2506" />
      <circle
         style="fill:black;stroke:none"
         cx="9.688"
         cy="6.186"
         r="0.15"
         id="circle2508" />
      <circle
         style="fill:black;stroke:none"
         cx="3.379"
         cy="6.296"
         r="0.15"
         id="circle2510" />
      <circle
         style="fill:black;stroke:none"
         cx="2.871"
         cy="8.204"
         r="0.15"
         id="circle2512" />
      <circle
         style="fill:black;stroke:none"
         cx="4.59"
         cy="8.719"
         r="0.15"
         id="circle2514" />
      <circle
         style="fill:black;stroke:none"
         cx="3.181"
         cy="9.671"
         r="0.15"
         id="circle2516" />
      <circle
         style="fill:black;stroke:none"
         cx="5.734"
         cy="7.315"
         r="0.15"
         id="circle2518" />
      <circle
         style="fill:black;stroke:none"
         cx="6.707"
         cy="6.513"
         r="0.15"
         id="circle2520" />
      <circle
         style="fill:black;stroke:none"
         cx="5.730"
         cy="9.670"
         r="0.15"
         id="circle2522" />
      <circle
         style="fill:black;stroke:none"
         cx="6.535"
         cy="8.373"
         r="0.15"
         id="circle2524" />
      <circle
         style="fill:black;stroke:none"
         cx="4.37"
         cy="7.154"
         r="0.15"
         id="circle2526" />
      <circle
         style="fill:black;stroke:none"
         cx="0.622"
         cy="7.25"
         r="0.15"
         id="circle2528" />
      <circle
         style="fill:black;stroke:none"
         cx="0.831"
         cy="5.679"
         r="0.15"
         id="circle2530" />
      <circle
         style="fill:black;stroke:none"
         cx="1.257"
         cy="8.519"
         r="0.15"
         id="circle2532" />
      <circle
         style="fill:black;stroke:none"
         cx="1.989"
         cy="6.877"
         r="0.15"
         id="circle2534" />
      <circle
         style="fill:black;stroke:none"
         cx="0.374"
         cy="3.181"
         r="0.15"
         id="circle2536" />
      <circle
         style="fill:black;stroke:none"
         cx="1.166"
         cy="1.664"
         r="0.15"
         id="circle2538" />
      <circle
         style="fill:black;stroke:none"
         cx="1.151"
         cy="0.093"
         r="0.15"
         id="circle2540" />
      <circle
         style="fill:black;stroke:none"
         cx="1.151"
         cy="10.093"
         r="0.15"
         id="circle2542" />
      <circle
         style="fill:black;stroke:none"
         cx="1.302"
         cy="4.451"
         r="0.15"
         id="circle2544" />
      <circle
         style="fill:black;stroke:none"
         cx="3.047"
         cy="3.763"
         r="0.15"
         id="circle2546" />
    </pattern>
    <clipPath
       clipPathUnits="userSpaceOnUse"
       id="clipEmfPath1">
      <path
         d="M 0,0 H 264.09071 V 373.01291 H 0 Z"
         id="path833" />
    </clipPath>
    <pattern
       id="EMFhbasepattern"
       patternUnits="userSpaceOnUse"
       width="6"
       height="6"
       x="0"
       y="0" />
  </defs>
  <sodipodi:namedview
     inkscape:window-maximized="1"
     inkscape:window-y="35"
     inkscape:window-x="-11"
     inkscape:window-height="1000"
     inkscape:window-width="1920"
     showgrid="false"
     inkscape:document-rotation="0"
     inkscape:current-layer="layer1"
     inkscape:document-units="mm"
     inkscape:cy="1437.8295"
     inkscape:cx="636.72709"
     inkscape:zoom="0.24748738"
     inkscape:pageshadow="2"
     inkscape:pageopacity="0.0"
     borderopacity="1.0"
     bordercolor="#666666"
     pagecolor="#ffffff"
     id="base" />
  <metadata
     id="metadata5">
    <rdf:RDF>
      <cc:Work
         rdf:about="">
        <dc:format>image/svg+xml</dc:format>
        <dc:type
           rdf:resource="http://purl.org/dc/dcmitype/StillImage" />
        <dc:title />
      </cc:Work>
    </rdf:RDF>
  </metadata>
  <g
     id="layer1"
     inkscape:groupmode="layer"
     inkscape:label="Layer 1">
    <path
       id="path903"
       d="m 162.10481,278.07649 1.10947,203.00055 112.4259,-0.86938 0.36982,-202.13117 z"
       style="fill:#d00000;fill-opacity:1;stroke:#000000;stroke-width:0.793833px;stroke-linecap:butt;stroke-linejoin:miter;stroke-opacity:1" />
    <path
       sodipodi:nodetypes="cscczsc"
       id="path990"
       d="m 145.0295,292.79703 c 0,0 -55.886052,25.89839 -54.977336,65.88193 0.908716,39.98351 0.454356,22.71789 0.454356,22.71789 l 28.98956,-0.68153 c 0,0 -1.03428,-12.26484 0.1559,-21.40523 1.19017,-9.14038 13.36736,-32.5303 28.10366,-34.02645 16.99193,-1.72517 -2.72614,-32.48661 -2.72614,-32.48661 z"
       style="fill:#302e65;fill-opacity:1;stroke:#000000;stroke-width:0.224896px;stroke-linecap:butt;stroke-linejoin:miter;stroke-opacity:1" />
    <text
       xml:space="preserve"
       style="font-style:normal;font-weight:normal;font-size:27.5656px;line-height:1.25;font-family:sans-serif;fill:#000000;fill-opacity:1;stroke:none;stroke-width:0.861423"
       x="26.895372"
       y="60.379772"
       id="text874"><tspan
         sodipodi:role="line"
         x="26.895372"
         y="60.379772"
         style="font-style:normal;font-variant:normal;font-weight:normal;font-stretch:normal;font-size:27.5656px;font-family:Cabin;-inkscape-font-specification:Cabin;stroke-width:0.861423"
         id="tspan884" /></text>
    <g
       transform="matrix(0.85,0,0,0.85,30.304063,19.84135)"
       id="g1031">
      <g
         id="g1048">
        <path
           style="fill:#bcbcbc;fill-opacity:1;stroke:#000000;stroke-width:0.264583px;stroke-linecap:butt;stroke-linejoin:miter;stroke-opacity:1"
           d="m 331.85012,266.55639 c 0,0 75.75145,4.06506 75.88713,-1.58278 0.13568,-5.64784 0.18804,-4.84441 -0.0182,-10.25526 -0.29438,-7.72315 -76.03756,-8.83039 -76.03756,-8.83039 z"
           id="path1010"
           sodipodi:nodetypes="czscc" />
        <path
           id="path1014"
           d="m 332.61903,239.63689 -58.96427,-2.64583 -1.32292,32.69495 59.34226,3.59076 z"
           style="fill:#bcbcbc;fill-opacity:1;stroke:none;stroke-width:0.264583px;stroke-linecap:butt;stroke-linejoin:miter;stroke-opacity:1" />
        <path
           style="fill:none;stroke:#dddddd;stroke-width:1.32292;stroke-linecap:butt;stroke-linejoin:miter;stroke-miterlimit:4;stroke-dasharray:none;stroke-opacity:1"
           d="m 331.68148,245.88796 -58.66567,-3.47451"
           id="path1024" />
        <path
           id="path1026"
           d="m 331.85012,266.55639 -58.66567,-3.47451"
           style="fill:none;stroke:#dddddd;stroke-width:1.32292;stroke-linecap:butt;stroke-linejoin:miter;stroke-miterlimit:4;stroke-dasharray:none;stroke-opacity:1" />
        <path
           id="path1012"
           d="m 330.84543,293.33638 2.64583,-69.54762"
           style="fill:none;stroke:#7a7a7a;stroke-width:9.26042;stroke-linecap:round;stroke-linejoin:miter;stroke-miterlimit:4;stroke-dasharray:none;stroke-opacity:1" />
      </g>
      <g
         id="g1037" />
    </g>
    <path
       style="fill:#302e65;fill-opacity:1;stroke:#000000;stroke-width:0.224896px;stroke-linecap:butt;stroke-linejoin:miter;stroke-opacity:1"
       d="m 288.32203,330.42146 c 0,0 59.53423,-15.80043 65.58239,-55.33433 6.04815,-39.53386 3.49747,-22.45165 3.49747,-22.45165 l -28.66749,-4.3628 c 0,0 -1.11118,12.2581 -3.87053,21.05296 -2.75929,8.79485 -18.81309,29.71488 -33.58533,28.62936 -17.03334,-1.25166 -2.95651,32.46646 -2.95651,32.46646 z"
       id="path994"
       sodipodi:nodetypes="cscczsc" />
    <path
       style="fill:#fafafb;fill-opacity:1;stroke:#000000;stroke-width:1.79917;stroke-linecap:butt;stroke-linejoin:miter;stroke-miterlimit:4;stroke-dasharray:none;stroke-opacity:1"
       d="m 134.57927,281.89242 c 0,0 32.30036,63.52746 24.57628,98.9674 -7.72409,35.43994 -3.98546,72.66465 -6.85632,110.49173 -1.34491,17.7208 42.70967,-9.54153 42.70967,-9.54153 0,0 1.81744,-20.44611 -4.99794,-57.24912 -6.81537,-36.80301 2.2718,-95.86959 2.2718,-95.86959 l -5.4523,-54.97733 c 0,0 -32.25943,-14.53945 -52.25119,8.17844 z"
       id="path3234"
       sodipodi:nodetypes="csscsccc" />
    <path
       sodipodi:nodetypes="csscsccc"
       id="path998"
       d="m 134.57927,281.89242 c 0,0 32.30036,63.52746 24.57628,98.9674 -7.72409,35.43994 -3.98546,72.66465 -6.85632,110.49173 -1.34491,17.7208 42.70967,-9.54153 42.70967,-9.54153 0,0 1.81744,-20.44611 -4.99794,-57.24912 -6.81537,-36.80301 2.2718,-95.86959 2.2718,-95.86959 l -5.4523,-54.97733 c 0,0 -32.25943,-14.53945 -52.25119,8.17844 z"
       style="fill:url(#pattern3459);fill-opacity:1;stroke:#000000;stroke-width:1.79917;stroke-linecap:butt;stroke-linejoin:miter;stroke-miterlimit:4;stroke-dasharray:none;stroke-opacity:1" />
    <path
       style="fill:#fafafb;fill-opacity:1;stroke:#000000;stroke-width:1.79917;stroke-linecap:butt;stroke-linejoin:miter;stroke-miterlimit:4;stroke-dasharray:none;stroke-opacity:1"
       d="m 308.13746,278.67962 c 0,0 -32.30036,63.52747 -24.57628,98.96741 7.72409,35.43993 3.98546,72.66465 6.85631,110.49172 1.34492,17.7208 -42.70967,-9.54152 -42.70967,-9.54152 0,0 -1.81743,-20.44611 4.99795,-57.24913 6.81537,-36.80301 -2.2718,-95.86958 -2.2718,-95.86958 l 5.4523,-54.97734 c 0,0 32.25943,-14.53945 52.25119,8.17844 z"
       id="path1008"
       sodipodi:nodetypes="csscsccc" />
    <path
       sodipodi:nodetypes="csscsccc"
       id="path3236"
       d="m 308.13746,278.67962 c 0,0 -32.30036,63.52747 -24.57628,98.96741 7.72409,35.43993 3.98546,72.66465 6.85631,110.49172 1.34492,17.7208 -42.70967,-9.54152 -42.70967,-9.54152 0,0 -1.81743,-20.44611 4.99795,-57.24913 6.81537,-36.80301 -2.2718,-95.86958 -2.2718,-95.86958 l 5.4523,-54.97734 c 0,0 32.25943,-14.53945 52.25119,8.17844 z"
       style="fill:url(#pattern3461);fill-opacity:1;stroke:#000000;stroke-width:1.79917;stroke-linecap:butt;stroke-linejoin:miter;stroke-miterlimit:4;stroke-dasharray:none;stroke-opacity:1" />
    <g
       transform="matrix(0.85,0,0,0.85,30.531242,18.364686)"
       id="g986">
      <circle
         r="66.343704"
         cy="261.58655"
         cx="223.35309"
         id="path883-1"
         style="fill:#f8e89b;fill-opacity:1;stroke:#303030;stroke-width:4.26015;stroke-linecap:round;stroke-miterlimit:4;stroke-dasharray:none;stroke-opacity:1;paint-order:stroke fill markers" />
      <ellipse
         style="fill:#000000;fill-opacity:1;stroke:#f8e798;stroke-width:5.54367;stroke-linecap:round;stroke-miterlimit:4;stroke-dasharray:none;stroke-opacity:1;paint-order:stroke fill markers"
         id="path900"
         cx="198.77075"
         cy="240.85179"
         rx="13.952684"
         ry="15.978811" />
      <ellipse
         ry="16.264074"
         rx="13.930296"
         cy="240.76167"
         cx="248.58803"
         id="path900-2"
         style="fill:#000000;fill-opacity:1;stroke:#f8e798;stroke-width:5.58847;stroke-linecap:round;stroke-miterlimit:4;stroke-dasharray:none;stroke-opacity:1;paint-order:stroke fill markers" />
      <path
         style="fill:none;stroke:#000000;stroke-width:3.44568;stroke-linecap:butt;stroke-linejoin:miter;stroke-miterlimit:4;stroke-dasharray:none;stroke-opacity:1"
         d="m 194.62257,274.20937 c 0,0 12.93103,16.49568 22.44951,25.08451 2.84373,2.56598 6.83925,3.30412 9.84485,0.61531 5.0722,-4.53761 23.96589,-23.31324 23.96589,-27.3127"
         id="path873"
         sodipodi:nodetypes="cssc" />
    </g>
    <g
       transform="matrix(0.85,0,0,0.85,30.531242,25.432841)"
       id="g1152">
      <g
         transform="matrix(0.98094342,0,0,1,2.8740007,-5.9067913)"
         id="g3457">
        <g
           id="g3435">
          <rect
             style="fill:#e1b035;fill-opacity:1;stroke:none;stroke-width:1.03189;paint-order:stroke fill markers"
             id="rect876"
             width="159.29263"
             height="47.259052"
             x="146.03526"
             y="184.72356" />
          <path
             style="fill:#e1b035;fill-opacity:1;stroke:none;stroke-width:0.262431px;stroke-linecap:butt;stroke-linejoin:miter;stroke-opacity:1"
             d="m 146.03525,184.72356 -8.24951,-45.40924 38.47298,43.94239 24.43089,-49.21986 25.54256,49.52792 26.50419,-48.93824 21.70908,48.82934 38.8097,-44.35937 -7.92726,45.62706 z"
             id="path880"
             sodipodi:nodetypes="cccccccccc" />
        </g>
        <rect
           style="fill:#343434;fill-opacity:1;stroke:none;stroke-width:1.12488;stroke-opacity:1;paint-order:stroke fill markers"
           id="rect893"
           width="159.38446"
           height="9.0528193"
           x="146.03526"
           y="222.92979" />
        <rect
           style="fill:#de1515;fill-opacity:1;stroke:none;stroke-width:1.12488;stroke-opacity:1;paint-order:stroke fill markers"
           id="rect895"
           width="159.38446"
           height="9.0528193"
           x="146.03526"
           y="218.4034" />
        <g
           id="g1101"
           transform="matrix(1,0,0,1.12905,-0.1755572,-28.276299)">
          <path
             style="fill:#343434;fill-opacity:1;stroke:none;stroke-width:0.296717px;stroke-linecap:butt;stroke-linejoin:miter;stroke-opacity:1"
             d="M 153.17907,214.46856 149,208.73957 l 5.14347,-6.91669 4.70145,7.05643 -4.05853,5.93858 z"
             id="path897"
             sodipodi:nodetypes="cccccc" />
          <path
             sodipodi:nodetypes="cccccc"
             id="path918"
             d="m 165.20688,214.46856 -4.17908,-5.72899 5.14348,-6.91669 4.70145,7.05643 -4.05853,5.93858 z"
             style="fill:#343434;fill-opacity:1;stroke:none;stroke-width:0.296717px;stroke-linecap:butt;stroke-linejoin:miter;stroke-opacity:1" />
          <path
             style="fill:#343434;fill-opacity:1;stroke:none;stroke-width:0.296717px;stroke-linecap:butt;stroke-linejoin:miter;stroke-opacity:1"
             d="m 177.23469,214.46856 -4.17908,-5.72899 5.14348,-6.91669 4.70145,7.05643 -4.05853,5.93858 z"
             id="path920"
             sodipodi:nodetypes="cccccc" />
          <path
             sodipodi:nodetypes="cccccc"
             id="path922"
             d="m 189.26249,214.46856 -4.17907,-5.72899 5.14347,-6.91669 4.70146,7.05643 -4.05853,5.93858 z"
             style="fill:#343434;fill-opacity:1;stroke:none;stroke-width:0.296717px;stroke-linecap:butt;stroke-linejoin:miter;stroke-opacity:1" />
          <path
             style="fill:#343434;fill-opacity:1;stroke:none;stroke-width:0.296717px;stroke-linecap:butt;stroke-linejoin:miter;stroke-opacity:1"
             d="m 201.2903,214.46856 -4.17907,-5.72899 5.14347,-6.91669 4.70146,7.05643 -4.05853,5.93858 z"
             id="path924"
             sodipodi:nodetypes="cccccc" />
          <path
             sodipodi:nodetypes="cccccc"
             id="path926"
             d="m 213.31811,214.46856 -4.17907,-5.72899 5.14347,-6.91669 4.70145,7.05643 -4.05853,5.93858 z"
             style="fill:#343434;fill-opacity:1;stroke:none;stroke-width:0.296717px;stroke-linecap:butt;stroke-linejoin:miter;stroke-opacity:1" />
          <path
             style="fill:#343434;fill-opacity:1;stroke:none;stroke-width:0.296717px;stroke-linecap:butt;stroke-linejoin:miter;stroke-opacity:1"
             d="m 225.34592,214.46856 -4.17908,-5.72899 5.14348,-6.91669 4.70145,7.05643 -4.05853,5.93858 z"
             id="path928"
             sodipodi:nodetypes="cccccc" />
          <path
             sodipodi:nodetypes="cccccc"
             id="path930"
             d="m 249.40153,214.46856 -4.17907,-5.72899 5.14347,-6.91669 4.70146,7.05643 -4.05853,5.93858 z"
             style="fill:#343434;fill-opacity:1;stroke:none;stroke-width:0.296717px;stroke-linecap:butt;stroke-linejoin:miter;stroke-opacity:1" />
          <path
             style="fill:#343434;fill-opacity:1;stroke:none;stroke-width:0.296717px;stroke-linecap:butt;stroke-linejoin:miter;stroke-opacity:1"
             d="m 237.37373,214.46856 -4.17908,-5.72899 5.14348,-6.91669 4.70145,7.05643 -4.05853,5.93858 z"
             id="path932"
             sodipodi:nodetypes="cccccc" />
          <path
             style="fill:#343434;fill-opacity:1;stroke:none;stroke-width:0.296717px;stroke-linecap:butt;stroke-linejoin:miter;stroke-opacity:1"
             d="m 261.42934,214.46856 -4.17907,-5.72899 5.14347,-6.91669 4.70146,7.05643 -4.05853,5.93858 z"
             id="path934"
             sodipodi:nodetypes="cccccc" />
          <path
             sodipodi:nodetypes="cccccc"
             id="path936"
             d="m 273.45715,214.46856 -4.17907,-5.72899 5.14347,-6.91669 4.70145,7.05643 -4.05853,5.93858 z"
             style="fill:#343434;fill-opacity:1;stroke:none;stroke-width:0.296717px;stroke-linecap:butt;stroke-linejoin:miter;stroke-opacity:1" />
          <path
             style="fill:#343434;fill-opacity:1;stroke:none;stroke-width:0.296717px;stroke-linecap:butt;stroke-linejoin:miter;stroke-opacity:1"
             d="m 285.48496,214.46856 -4.17908,-5.72899 5.14348,-6.91669 4.70145,7.05643 -4.05853,5.93858 z"
             id="path938"
             sodipodi:nodetypes="cccccc" />
          <path
             sodipodi:nodetypes="cccccc"
             id="path940"
             d="m 297.51277,214.46856 -4.17908,-5.72899 5.14348,-6.91669 4.70145,7.05643 -4.05853,5.93858 z"
             style="fill:#343434;fill-opacity:1;stroke:none;stroke-width:0.296717px;stroke-linecap:butt;stroke-linejoin:miter;stroke-opacity:1" />
        </g>
        <rect
           y="213.87695"
           x="146.03526"
           height="9.0528479"
           width="159.38446"
           id="rect882"
           style="fill:#343434;fill-opacity:1;stroke:none;stroke-width:1.12488;stroke-opacity:1;paint-order:stroke fill markers" />
      </g>
    </g>
    <path
       style="fill:#f1c600;fill-opacity:1;stroke:#000000;stroke-width:0.199645px;stroke-linecap:butt;stroke-linejoin:miter;stroke-opacity:1"
       d="m 357.40189,252.63548 12.657,29.24894 c 0,0 -11.37879,-13.69009 -21.25207,-5.95623 -2.66475,2.08733 -6.50909,14.97113 -6.50909,14.97113 0,0 -1.29828,-26.73293 -21.38936,-13.9197 -3.34174,2.13122 -4.75666,2.18359 -4.75666,2.18359 l 12.4552,-25.58148 z"
       id="path1086"
       sodipodi:nodetypes="ccscsccc" />
    <ellipse
       transform="rotate(10)"
       style="fill:#f8e89b;fill-opacity:1;stroke:#030303;stroke-width:3.37344;stroke-miterlimit:4;stroke-dasharray:none;stroke-opacity:1;paint-order:stroke fill markers"
       id="ellipse996"
       cx="377.68704"
       cy="175.1227"
       rx="20.446117"
       ry="20.900476" />
    <text
       id="text1076"
       y="82.548691"
       x="23.465994"
       style="font-style:normal;font-weight:normal;font-size:56.4444px;line-height:1.25;font-family:sans-serif;fill:#bf2c26;fill-opacity:1;stroke:none;stroke-width:0.264583"
       xml:space="preserve"><tspan
         style="font-style:normal;font-variant:normal;font-weight:normal;font-stretch:normal;font-size:56.4444px;font-family:TechnicLite;-inkscape-font-specification:TechnicLite;fill:#bf2c26;fill-opacity:1;stroke-width:0.264583"
         y="82.548691"
         x="23.465994"
         id="tspan1074"
         sodipodi:role="line">K</tspan></text>
    <path
       sodipodi:nodetypes="ccscsccc"
       id="path1084"
       d="M 93.65679,384.02328 78.538836,356.68221 c 0,0 12.414699,12.37313 21.356271,4.11617 2.413283,-2.22851 4.973383,-15.00409 4.973383,-15.00409 0,0 3.76584,25.78744 22.23392,11.81737 3.07179,-2.32363 5.99731,-5.04562 5.99731,-5.04562 l -13.60364,28.14928 z"
       style="fill:#f1c600;fill-opacity:1;stroke:#000000;stroke-width:0.195111px;stroke-linecap:butt;stroke-linejoin:miter;stroke-opacity:1" />
    <ellipse
       ry="20.900476"
       rx="20.446117"
       cy="394.80042"
       cx="105.72752"
       id="path992"
       style="fill:#f8e89b;fill-opacity:1;stroke:#030303;stroke-width:3.37344;stroke-miterlimit:4;stroke-dasharray:none;stroke-opacity:1;paint-order:stroke fill markers" />
    <g
       id="layer1-4"
       inkscape:label="Layer 1"
       transform="matrix(2.733615,0,0,2.8024233,51.735424,-8.2176683)"
       style="fill:#bf2c26;fill-opacity:1;stroke-width:0.548697;stroke-miterlimit:4;stroke-dasharray:none">
      <path
         style="fill:#bf2c26;fill-opacity:1;stroke:none;stroke-width:0.548697;stroke-linecap:butt;stroke-linejoin:miter;stroke-miterlimit:4;stroke-dasharray:none;stroke-opacity:1"
         d="M 26.860588,44.099473 C 23.17669,33.73823 10.816157,31.905338 7.9929525,24.588796 3.4688555,12.027834 24.698589,3.5423745 27.127856,16.971615 c 4.225973,23.361621 0.959785,14.101824 -0.267268,27.127858 z"
         id="path832"
         sodipodi:nodetypes="ccsc" />
      <path
         sodipodi:nodetypes="ccsc"
         id="path834"
         d="M 26.860588,44.099473 C 30.544486,33.73823 42.905019,31.905338 45.728223,24.588796 50.25232,12.027834 29.022587,3.5423745 26.59332,16.971615 22.367347,40.333236 25.633535,31.073439 26.860588,44.099473 Z"
         style="fill:#bf2c26;fill-opacity:1;stroke:none;stroke-width:0.548697;stroke-linecap:butt;stroke-linejoin:miter;stroke-miterlimit:4;stroke-dasharray:none;stroke-opacity:1" />
    </g>
    <text
       xml:space="preserve"
       style="font-style:normal;font-weight:normal;font-size:56.4444px;line-height:1.25;font-family:sans-serif;fill:#bf2c26;fill-opacity:1;stroke:none;stroke-width:0.264583"
       x="-423.62131"
       y="-549.32281"
       id="text969"
       transform="scale(-1)"><tspan
         sodipodi:role="line"
         id="tspan967"
         x="-423.62131"
         y="-549.32281"
         style="font-style:normal;font-variant:normal;font-weight:normal;font-stretch:normal;font-size:56.4444px;font-family:TechnicLite;-inkscape-font-specification:TechnicLite;fill:#bf2c26;fill-opacity:1;stroke-width:0.264583">K</tspan></text>
    <g
       style="fill:#bf2c26;fill-opacity:1;stroke-width:0.548697;stroke-miterlimit:4;stroke-dasharray:none"
       transform="matrix(2.7336149,0,0,-2.8024233,250.87706,639.20805)"
       inkscape:label="Layer 1"
       id="layer1-4-4">
      <path
         sodipodi:nodetypes="ccsc"
         id="path832-7"
         d="M 26.860588,44.099473 C 23.17669,33.73823 10.816157,31.905338 7.9929525,24.588796 3.4688555,12.027834 24.698589,3.5423745 27.127856,16.971615 c 4.225973,23.361621 0.959785,14.101824 -0.267268,27.127858 z"
         style="fill:#bf2c26;fill-opacity:1;stroke:none;stroke-width:0.548697;stroke-linecap:butt;stroke-linejoin:miter;stroke-miterlimit:4;stroke-dasharray:none;stroke-opacity:1" />
      <path
         style="fill:#bf2c26;fill-opacity:1;stroke:none;stroke-width:0.548697;stroke-linecap:butt;stroke-linejoin:miter;stroke-miterlimit:4;stroke-dasharray:none;stroke-opacity:1"
         d="M 26.860588,44.099473 C 30.544486,33.73823 42.905019,31.905338 45.728223,24.588796 50.25232,12.027834 29.022587,3.5423745 26.59332,16.971615 22.367347,40.333236 25.633535,31.073439 26.860588,44.099473 Z"
         id="path834-8"
         sodipodi:nodetypes="ccsc" />
    </g>
    <g
       id="g1013"
       inkscape:label="Layer 1"
       transform="matrix(-1.3668075,0,0,1.4012117,79.046588,81.428706)"
       style="fill:#bf2c26;fill-opacity:1;stroke-width:0.548697;stroke-miterlimit:4;stroke-dasharray:none">
      <path
         style="fill:#bf2c26;fill-opacity:1;stroke:none;stroke-width:0.548697;stroke-linecap:butt;stroke-linejoin:miter;stroke-miterlimit:4;stroke-dasharray:none;stroke-opacity:1"
         d="M 26.860588,44.099473 C 23.17669,33.73823 10.816157,31.905338 7.9929525,24.588796 3.4688555,12.027834 24.698589,3.5423745 27.127856,16.971615 c 4.225973,23.361621 0.959785,14.101824 -0.267268,27.127858 z"
         id="path1009"
         sodipodi:nodetypes="ccsc" />
      <path
         sodipodi:nodetypes="ccsc"
         id="path1011"
         d="M 26.860588,44.099473 C 30.544486,33.73823 42.905019,31.905338 45.728223,24.588796 50.25232,12.027834 29.022587,3.5423745 26.59332,16.971615 22.367347,40.333236 25.633535,31.073439 26.860588,44.099473 Z"
         style="fill:#bf2c26;fill-opacity:1;stroke:none;stroke-width:0.548697;stroke-linecap:butt;stroke-linejoin:miter;stroke-miterlimit:4;stroke-dasharray:none;stroke-opacity:1" />
    </g>
    <g
       style="fill:#bf2c26;fill-opacity:1;stroke-width:0.548697;stroke-miterlimit:4;stroke-dasharray:none"
       transform="matrix(1.3668075,0,0,-1.4012117,365.4534,552.05938)"
       inkscape:label="Layer 1"
       id="g1032">
      <path
         sodipodi:nodetypes="ccsc"
         id="path1027"
         d="M 26.860588,44.099473 C 23.17669,33.73823 10.816157,31.905338 7.9929525,24.588796 3.4688555,12.027834 24.698589,3.5423745 27.127856,16.971615 c 4.225973,23.361621 0.959785,14.101824 -0.267268,27.127858 z"
         style="fill:#bf2c26;fill-opacity:1;stroke:none;stroke-width:0.548697;stroke-linecap:butt;stroke-linejoin:miter;stroke-miterlimit:4;stroke-dasharray:none;stroke-opacity:1" />
      <path
         style="fill:#bf2c26;fill-opacity:1;stroke:none;stroke-width:0.548697;stroke-linecap:butt;stroke-linejoin:miter;stroke-miterlimit:4;stroke-dasharray:none;stroke-opacity:1"
         d="M 26.860588,44.099473 C 30.544486,33.73823 42.905019,31.905338 45.728223,24.588796 50.25232,12.027834 29.022587,3.5423745 26.59332,16.971615 22.367347,40.333236 25.633535,31.073439 26.860588,44.099473 Z"
         id="path1029"
         sodipodi:nodetypes="ccsc" />
    </g>
  </g>
</svg>
